<svg width="58" height="58" viewBox="0 0 58 58" fill="none" xmlns="http://www.w3.org/2000/svg">
<rect width="58" height="58" rx="5" fill="#EBF7FE"/>
<g clip-path="url(#clip0_7616_31113)">
<path d="M34.6 33V29.4H38.2V27L43 31.2L38.2 35.4V33H34.6ZM33.4 25.44V27H19V25.44L26.2 21L33.4 25.44ZM25 28.2H27.4V34.2H25V28.2ZM20.2 28.2H22.6V34.2H20.2V28.2ZM32.2 28.2V31.2L29.8 33.36V28.2H32.2ZM27.52 35.4L26.8 36L28.84 37.8H19V35.4H27.52ZM37 34.2V37.8H33.4V40.2L28.6 36L33.4 31.8V34.2H37Z" fill="#36B3F9"/>
</g>
<defs>
<clipPath id="clip0_7616_31113">
<rect width="24" height="24" fill="white" transform="translate(17 17)"/>
</clipPath>
</defs>
</svg>
