<svg width="58" height="58" viewBox="0 0 58 58" fill="none" xmlns="http://www.w3.org/2000/svg">
<rect width="58" height="58" rx="5" fill="#F2EBFE"/>
<path d="M33.6154 22.0769V29.7692M33.6154 22.0769L31.3077 19M33.6154 22.0769L35.9231 19M19 35.1538L22.76 38.2862C23.3129 38.7465 24.0097 38.9986 24.7292 38.9985H34.64C35.3477 38.9985 35.9231 38.4246 35.9231 37.7169C35.9231 36.3015 34.7754 35.1523 33.3585 35.1523H26.4677M39 22.0769H28.2308V29.7692H39V22.0769Z" stroke="#8135F9" stroke-width="1.5" stroke-linecap="round" stroke-linejoin="round"/>
<path d="M23.6154 33.6157L24.7692 34.7695C25.0752 35.0756 25.4903 35.2475 25.9231 35.2475C26.3559 35.2475 26.7709 35.0756 27.0769 34.7695C27.3829 34.4635 27.5549 34.0485 27.5549 33.6157C27.5549 33.1829 27.3829 32.7679 27.0769 32.4618L25.2862 30.6695C25 30.3837 24.6603 30.1571 24.2865 30.0027C23.9127 29.8482 23.5121 29.769 23.1077 29.7695H19" stroke="#8135F9" stroke-width="1.5" stroke-linecap="round" stroke-linejoin="round"/>
</svg>
