<svg width="58" height="58" viewBox="0 0 58 58" fill="none" xmlns="http://www.w3.org/2000/svg">
<rect width="58" height="58" rx="5" fill="#FEEBEB"/>
<path d="M23 25H27" stroke="#F93636" stroke-width="1.5" stroke-linecap="round" stroke-linejoin="round"/>
<path d="M37.833 26H35.231C33.446 26 32 27.343 32 29C32 30.657 33.447 32 35.23 32H37.833C37.917 32 37.958 32 37.993 31.998C38.533 31.965 38.963 31.566 38.998 31.065C39 31.033 39 30.994 39 30.917V27.083C39 27.006 39 26.967 38.998 26.935C38.962 26.434 38.533 26.035 37.993 26.002C37.959 26 37.917 26 37.833 26Z" stroke="#F93636" stroke-width="1.5"/>
<path d="M37.965 26C37.887 24.128 37.637 22.98 36.828 22.172C35.657 21 33.771 21 30 21H27C23.229 21 21.343 21 20.172 22.172C19 23.343 19 25.229 19 29C19 32.771 19 34.657 20.172 35.828C21.343 37 23.229 37 27 37H30C33.771 37 35.657 37 36.828 35.828C37.637 35.02 37.888 33.872 37.965 32" stroke="#F93636" stroke-width="1.5"/>
<path d="M34.9912 29H35.0012" stroke="#F93636" stroke-width="2" stroke-linecap="round" stroke-linejoin="round"/>
</svg>
