<svg width="58" height="58" viewBox="0 0 58 58" fill="none" xmlns="http://www.w3.org/2000/svg">
<rect width="58" height="58" rx="5" fill="#FEEBEB"/>
<path d="M40.917 38.8862L40.979 38.7622V38.7202C40.979 38.6792 41 38.6372 41 38.6172V38.5752C41 38.5342 41 38.4722 40.98 38.4302L40.917 38.3062V38.2852L29.54 19.1352C29.4855 19.0403 29.4068 18.9616 29.3119 18.907C29.2171 18.8523 29.1095 18.8238 29 18.8242C28.8914 18.8267 28.7852 18.8564 28.691 18.9106C28.5969 18.9647 28.5178 19.0416 28.461 19.1342L17.083 38.2652V38.2862L17.021 38.4102C17 38.4512 17 38.5132 17 38.5542V38.5962C17 38.6372 17 38.6792 17.02 38.6992V38.7412C17.041 38.7822 17.041 38.8242 17.083 38.8652L17.103 38.8862C17.124 38.9272 17.145 38.9692 17.187 38.9902L17.249 39.0522C17.269 39.0722 17.29 39.0932 17.311 39.0932C17.331 39.1142 17.373 39.1142 17.394 39.1352C17.414 39.1352 17.435 39.1552 17.456 39.1552C17.5098 39.1715 17.5659 39.1786 17.622 39.1762H40.358C40.42 39.1762 40.461 39.1762 40.523 39.1562C40.544 39.1562 40.565 39.1352 40.586 39.1352C40.627 39.1142 40.648 39.1142 40.689 39.0932C40.709 39.0732 40.731 39.0732 40.751 39.0522L40.813 38.9902C40.8463 38.9604 40.8743 38.9253 40.896 38.8862H40.917ZM29 28.3162L32.627 34.1612H25.373L29 28.3162ZM28.378 26.9692L23.818 34.3262L19.363 36.8762L28.378 21.7262V26.9692ZM24.42 35.4252H33.56L38.016 37.9752H19.964L24.42 35.4252ZM34.181 34.3262L29.621 26.9692V21.7252L38.637 36.8752L34.181 34.3262Z" fill="#F93636"/>
</svg>
