<svg width="58" height="58" viewBox="0 0 58 58" fill="none" xmlns="http://www.w3.org/2000/svg">
<rect width="58" height="58" rx="5" fill="#EBF7FE"/>
<path d="M37 33.0006C36.3793 33.0038 35.7748 33.1995 35.27 33.5606L32.82 32.1106C32.9356 31.7518 32.9963 31.3776 33 31.0006C32.9971 30.1161 32.7011 29.2574 32.1583 28.559C31.6155 27.8605 30.8565 27.3618 30 27.1406V24.8206C30.6672 24.5847 31.2296 24.1205 31.5876 23.5101C31.9457 22.8997 32.0765 22.1824 31.9568 21.4849C31.8371 20.7874 31.4747 20.1547 30.9337 19.6985C30.3926 19.2424 29.7077 18.9922 29 18.9922C28.2923 18.9922 27.6074 19.2424 27.0663 19.6985C26.5253 20.1547 26.1629 20.7874 26.0432 21.4849C25.9235 22.1824 26.0543 22.8997 26.4124 23.5101C26.7704 24.1205 27.3328 24.5847 28 24.8206V27.1406C27.1435 27.3618 26.3845 27.8605 25.8417 28.559C25.2989 29.2574 25.0029 30.1161 25 31.0006C25.0037 31.3776 25.0644 31.7518 25.18 32.1106L22.73 33.5606C22.2252 33.1995 21.6207 33.0038 21 33.0006C20.4067 33.0006 19.8266 33.1766 19.3333 33.5062C18.8399 33.8358 18.4554 34.3044 18.2284 34.8526C18.0013 35.4007 17.9419 36.0039 18.0576 36.5859C18.1734 37.1678 18.4591 37.7024 18.8787 38.1219C19.2982 38.5415 19.8328 38.8272 20.4147 38.943C20.9967 39.0587 21.5999 38.9993 22.1481 38.7723C22.6962 38.5452 23.1648 38.1607 23.4944 37.6673C23.8241 37.174 24 36.594 24 36.0006C23.9963 35.7298 23.9559 35.4606 23.88 35.2006L26.18 33.8306C26.9295 34.5756 27.9433 34.9938 29 34.9938C30.0567 34.9938 31.0706 34.5756 31.82 33.8306L34.12 35.2006C33.9524 35.8062 33.9793 36.4491 34.1967 37.0387C34.4141 37.6282 34.8112 38.1346 35.3318 38.4864C35.8525 38.8382 36.4705 39.0176 37.0986 38.9993C37.7267 38.9811 38.3332 38.766 38.8325 38.3846C39.3318 38.0032 39.6988 37.4746 39.8816 36.8734C40.0644 36.2722 40.0538 35.6288 39.8514 35.034C39.6489 34.4391 39.2648 33.9229 38.7532 33.558C38.2416 33.1932 37.6284 32.9982 37 33.0006ZM21 37.0006C20.8022 37.0006 20.6089 36.942 20.4444 36.8321C20.28 36.7222 20.1518 36.566 20.0761 36.3833C20.0004 36.2006 19.9806 35.9995 20.0192 35.8055C20.0578 35.6115 20.153 35.4334 20.2929 35.2935C20.4327 35.1537 20.6109 35.0584 20.8049 35.0198C20.9989 34.9812 21.2 35.001 21.3827 35.0767C21.5654 35.1524 21.7216 35.2806 21.8315 35.445C21.9414 35.6095 22 35.8028 22 36.0006C22 36.2658 21.8946 36.5202 21.7071 36.7077C21.5196 36.8953 21.2652 37.0006 21 37.0006ZM29 21.0006C29.1978 21.0006 29.3911 21.0593 29.5556 21.1691C29.72 21.279 29.8482 21.4352 29.9239 21.6179C29.9996 21.8007 30.0194 22.0017 29.9808 22.1957C29.9422 22.3897 29.847 22.5679 29.7071 22.7077C29.5673 22.8476 29.3891 22.9428 29.1951 22.9814C29.0011 23.02 28.8 23.0002 28.6173 22.9245C28.4346 22.8488 28.2784 22.7206 28.1685 22.5562C28.0587 22.3917 28 22.1984 28 22.0006C28 21.7354 28.1054 21.481 28.2929 21.2935C28.4804 21.106 28.7348 21.0006 29 21.0006ZM29 33.0006C28.6044 33.0006 28.2178 32.8833 27.8889 32.6636C27.56 32.4438 27.3036 32.1314 27.1522 31.766C27.0009 31.4005 26.9613 30.9984 27.0384 30.6104C27.1156 30.2225 27.3061 29.8661 27.5858 29.5864C27.8655 29.3067 28.2219 29.1162 28.6098 29.039C28.9978 28.9619 29.3999 29.0015 29.7654 29.1529C30.1308 29.3042 30.4432 29.5606 30.6629 29.8895C30.8827 30.2184 31 30.6051 31 31.0006C31 31.531 30.7893 32.0398 30.4142 32.4148C30.0391 32.7899 29.5304 33.0006 29 33.0006ZM37 37.0006C36.8022 37.0006 36.6089 36.942 36.4444 36.8321C36.28 36.7222 36.1518 36.566 36.0761 36.3833C36.0004 36.2006 35.9806 35.9995 36.0192 35.8055C36.0578 35.6115 36.153 35.4334 36.2929 35.2935C36.4327 35.1537 36.6109 35.0584 36.8049 35.0198C36.9989 34.9812 37.2 35.001 37.3827 35.0767C37.5654 35.1524 37.7216 35.2806 37.8315 35.445C37.9414 35.6095 38 35.8028 38 36.0006C38 36.2658 37.8946 36.5202 37.7071 36.7077C37.5196 36.8953 37.2652 37.0006 37 37.0006Z" fill="#36B3F9"/>
</svg>
