<svg width="58" height="58" viewBox="0 0 58 58" fill="none" xmlns="http://www.w3.org/2000/svg">
<rect width="58" height="58" rx="5" fill="#F2EBFE"/>
<path d="M35 30.0013L38 33.0013V37.0013C38 37.5318 37.7893 38.0405 37.4142 38.4156C37.0391 38.7906 36.5304 39.0013 36 39.0013H22C21.4696 39.0013 20.9609 38.7906 20.5858 38.4156C20.2107 38.0405 20 37.5318 20 37.0013V33.0013L23 30.0013H23.83L25.83 32.0013H23.78L22 34.0013H36L34.23 32.0013H32.32L34.32 30.0013H35ZM36 37.0013V36.0013H22V37.0013H36ZM28.34 32.0013L23.39 27.0713C23.2973 26.9788 23.2237 26.8689 23.1736 26.748C23.1234 26.627 23.0976 26.4973 23.0976 26.3663C23.0976 26.2354 23.1234 26.1057 23.1736 25.9847C23.2237 25.8637 23.2973 25.7539 23.39 25.6613L29.76 19.2913C29.8516 19.1982 29.9609 19.1245 30.0815 19.0744C30.2021 19.0244 30.3315 18.9991 30.4621 19C30.5927 19.001 30.7218 19.0281 30.8416 19.0799C30.9615 19.1316 31.0698 19.2069 31.16 19.3013L36.11 24.2513C36.5 24.6413 36.5 25.2713 36.11 25.6613L29.75 32.0013C29.6601 32.0986 29.5511 32.1762 29.4298 32.2293C29.3084 32.2823 29.1774 32.3097 29.045 32.3097C28.9126 32.3097 28.7816 32.2823 28.6602 32.2293C28.5389 32.1762 28.4299 32.0986 28.34 32.0013ZM30.46 21.4113L25.5 26.3613L29.05 29.9013L34 24.9513L30.46 21.4113Z" fill="#8135F9"/>
</svg>
