<svg width="58" height="58" viewBox="0 0 58 58" fill="none" xmlns="http://www.w3.org/2000/svg">
<rect width="58" height="58" rx="5" fill="#F2EBFE"/>
<path d="M24.6496 21.0266C24.6496 21.5428 24.5423 22.0329 24.348 22.4766H28.9996C29.1919 22.4766 29.3763 22.5529 29.5123 22.6889C29.6482 22.8249 29.7246 23.0093 29.7246 23.2016V26.1016H28.9996C28.2305 26.1016 27.4929 26.4071 26.949 26.951C26.4051 27.4948 26.0996 28.2324 26.0996 29.0016V29.7266H23.1996C23.0073 29.7266 22.8229 29.6502 22.687 29.5142C22.551 29.3783 22.4746 29.1938 22.4746 29.0016V24.35C21.7905 24.6484 21.0309 24.7284 20.2996 24.5791V29.0016C20.2996 29.7707 20.6051 30.5083 21.149 31.0522C21.6929 31.596 22.4305 31.9016 23.1996 31.9016H26.0996V34.8016C26.0996 35.5707 26.4051 36.3083 26.949 36.8522C27.4929 37.396 28.2305 37.7016 28.9996 37.7016H33.4221C33.2727 36.9703 33.3527 36.2107 33.6512 35.5266H28.9996C28.8073 35.5266 28.6229 35.4502 28.487 35.3142C28.351 35.1783 28.2746 34.9938 28.2746 34.8016V31.9016H28.9996C29.7687 31.9016 30.5064 31.596 31.0502 31.0522C31.5941 30.5083 31.8996 29.7707 31.8996 29.0016V28.2766H34.7996C34.9919 28.2766 35.1763 28.3529 35.3123 28.4889C35.4482 28.6249 35.5246 28.8093 35.5246 29.0016V33.6532C36.2087 33.3547 36.9683 33.2747 37.6996 33.4241V29.0016C37.6996 28.2324 37.3941 27.4948 36.8502 26.951C36.3064 26.4071 35.5687 26.1016 34.7996 26.1016H31.8996V23.2016C31.8996 22.4324 31.5941 21.6948 31.0502 21.151C30.5064 20.6071 29.7687 20.3016 28.9996 20.3016H24.5771C24.6254 20.5365 24.6496 20.7781 24.6496 21.0266ZM29.7246 28.2766V29.0016C29.7246 29.1938 29.6482 29.3783 29.5123 29.5142C29.3763 29.6502 29.1919 29.7266 28.9996 29.7266H28.2746V29.0016C28.2746 28.8093 28.351 28.6249 28.487 28.4889C28.6229 28.3529 28.8073 28.2766 28.9996 28.2766H29.7246ZM23.1996 21.0266C23.1996 21.6034 22.9705 22.1566 22.5626 22.5645C22.1547 22.9724 21.6015 23.2016 21.0246 23.2016C20.4478 23.2016 19.8945 22.9724 19.4867 22.5645C19.0788 22.1566 18.8496 21.6034 18.8496 21.0266C18.8496 20.4497 19.0788 19.8965 19.4867 19.4886C19.8945 19.0807 20.4478 18.8516 21.0246 18.8516C21.6015 18.8516 22.1547 19.0807 22.5626 19.4886C22.9705 19.8965 23.1996 20.4497 23.1996 21.0266ZM39.1496 36.9766C39.1496 37.5534 38.9205 38.1066 38.5126 38.5145C38.1047 38.9224 37.5515 39.1516 36.9746 39.1516C36.3978 39.1516 35.8445 38.9224 35.4367 38.5145C35.0288 38.1066 34.7996 37.5534 34.7996 36.9766C34.7996 36.3997 35.0288 35.8465 35.4367 35.4386C35.8445 35.0307 36.3978 34.8016 36.9746 34.8016C37.5515 34.8016 38.1047 35.0307 38.5126 35.4386C38.9205 35.8465 39.1496 36.3997 39.1496 36.9766ZM39.1496 21.0266C39.1496 21.6034 38.9205 22.1566 38.5126 22.5645C38.1047 22.9724 37.5515 23.2016 36.9746 23.2016C36.3978 23.2016 35.8445 22.9724 35.4367 22.5645C35.0288 22.1566 34.7996 21.6034 34.7996 21.0266C34.7996 20.4497 35.0288 19.8965 35.4367 19.4886C35.8445 19.0807 36.3978 18.8516 36.9746 18.8516C37.5515 18.8516 38.1047 19.0807 38.5126 19.4886C38.9205 19.8965 39.1496 20.4497 39.1496 21.0266ZM23.1996 36.9766C23.1996 37.5534 22.9705 38.1066 22.5626 38.5145C22.1547 38.9224 21.6015 39.1516 21.0246 39.1516C20.4478 39.1516 19.8945 38.9224 19.4867 38.5145C19.0788 38.1066 18.8496 37.5534 18.8496 36.9766C18.8496 36.3997 19.0788 35.8465 19.4867 35.4386C19.8945 35.0307 20.4478 34.8016 21.0246 34.8016C21.6015 34.8016 22.1547 35.0307 22.5626 35.4386C22.9705 35.8465 23.1996 36.3997 23.1996 36.9766Z" fill="#8135F9"/>
</svg>
