<svg width="58" height="58" viewBox="0 0 58 58" fill="none" xmlns="http://www.w3.org/2000/svg">
<rect width="58" height="58" rx="5" fill="#E8FCEF"/>
<path d="M36 23H34C34 20.2 31.8 18 29 18C26.2 18 24 20.2 24 23H22C20.9 23 20 23.9 20 25V37C20 38.1 20.9 39 22 39H36C37.1 39 38 38.1 38 37V25C38 23.9 37.1 23 36 23ZM29 20C30.7 20 32 21.3 32 23H26C26 21.3 27.3 20 29 20ZM36 37H22V25H36V37ZM29 29C27.3 29 26 27.7 26 26H24C24 28.8 26.2 31 29 31C31.8 31 34 28.8 34 26H32C32 27.7 30.7 29 29 29Z" fill="#17E55D"/>
</svg>
