<svg width="58" height="58" viewBox="0 0 58 58" fill="none" xmlns="http://www.w3.org/2000/svg">
<rect width="58" height="58" rx="5" fill="#EBF7FE"/>
<path d="M29.4375 25.5V24.625H30.3125V23.75H29.4375V22.875H28.5625V23.75H27.6875V24.625H28.5625V25.5H29.4375Z" fill="#36B3F9"/>
<path fill-rule="evenodd" clip-rule="evenodd" d="M29.2734 20.7835C29.1958 20.7214 29.0994 20.6875 29 20.6875C28.9006 20.6875 28.8042 20.7214 28.7266 20.7835L22.2844 25.9372H21.5625C21.4465 25.9372 21.3352 25.9833 21.2531 26.0654C21.1711 26.1474 21.125 26.2587 21.125 26.3747V28.1247C21.125 28.2408 21.1711 28.352 21.2531 28.4341C21.3352 28.5161 21.4465 28.5622 21.5625 28.5622H22V32.9372H21.5625C21.4465 32.9372 21.3352 32.9833 21.2531 33.0654C21.1711 33.1474 21.125 33.2587 21.125 33.3747V34.6872H20.6875C20.5715 34.6872 20.4602 34.7333 20.3781 34.8154C20.2961 34.8974 20.25 35.0087 20.25 35.1247V36.8747C20.25 36.9908 20.2961 37.102 20.3781 37.1841C20.4602 37.2661 20.5715 37.3122 20.6875 37.3122H37.3125C37.4285 37.3122 37.5398 37.2661 37.6219 37.1841C37.7039 37.102 37.75 36.9908 37.75 36.8747V35.1247C37.75 35.0087 37.7039 34.8974 37.6219 34.8154C37.5398 34.7333 37.4285 34.6872 37.3125 34.6872H36.875V33.3747C36.875 33.2587 36.8289 33.1474 36.7469 33.0654C36.6648 32.9833 36.5535 32.9372 36.4375 32.9372H36V28.5622H36.4375C36.5535 28.5622 36.6648 28.5161 36.7469 28.4341C36.8289 28.352 36.875 28.2408 36.875 28.1247V26.3747C36.875 26.2587 36.8289 26.1474 36.7469 26.0654C36.6648 25.9833 36.5535 25.9372 36.4375 25.9372H35.7156L29.2734 20.7835ZM34.3152 25.9372L29 21.6847L23.6844 25.9372H34.3152ZM22 26.8122V27.6872H36V26.8122H22ZM35.125 28.5622H34.25V32.9372H35.125V28.5622ZM33.375 32.9372V28.5622H24.625V32.9372H25.0625C25.1785 32.9372 25.2898 32.9833 25.3719 33.0654C25.4539 33.1474 25.5 33.2587 25.5 33.3747V34.6872H27.25V31.1872C27.25 30.7231 27.4344 30.278 27.7626 29.9498C28.0908 29.6216 28.5359 29.4372 29 29.4372C29.4641 29.4372 29.9092 29.6216 30.2374 29.9498C30.5656 30.278 30.75 30.7231 30.75 31.1872V34.6872H32.5V33.3747C32.5 33.2587 32.5461 33.1474 32.6281 33.0654C32.7102 32.9833 32.8215 32.9372 32.9375 32.9372H33.375ZM28.125 31.1872V34.6872H29.875V31.1872C29.875 30.9552 29.7828 30.7326 29.6187 30.5685C29.4546 30.4044 29.2321 30.3122 29 30.3122C28.7679 30.3122 28.5454 30.4044 28.3813 30.5685C28.2172 30.7326 28.125 30.9552 28.125 31.1872ZM36.875 35.5622V36.4372H21.125V35.5622H36.875ZM33.375 33.8122V34.6872H36V33.8122H33.375ZM22.875 32.9372V28.5622H23.75V32.9372H22.875ZM22 33.8122H24.625V34.6872H22V33.8122Z" fill="#36B3F9"/>
</svg>
