<svg width="58" height="58" viewBox="0 0 58 58" fill="none" xmlns="http://www.w3.org/2000/svg">
<rect width="58" height="58" rx="5" fill="#E8FCEF"/>
<path d="M34.25 27.6875V35.2344C34.25 35.4498 34.2076 35.6632 34.1251 35.8622C34.0427 36.0613 33.9218 36.2421 33.7695 36.3945C33.6171 36.5468 33.4363 36.6677 33.2372 36.7501C33.0382 36.8326 32.8248 36.875 32.6094 36.875H22.7656C22.3305 36.875 21.9132 36.7021 21.6055 36.3945C21.2979 36.0868 21.125 35.6695 21.125 35.2344V25.3906C21.125 24.9555 21.2979 24.5382 21.6055 24.2305C21.9132 23.9229 22.3305 23.75 22.7656 23.75H29.6349" stroke="#17E55D" stroke-width="2" stroke-linecap="round" stroke-linejoin="round"/>
<path d="M37.3648 20.6841C37.3048 20.6182 37.2322 20.5652 37.1512 20.5282C37.0702 20.4913 36.9825 20.4711 36.8935 20.4689C36.8045 20.4668 36.7159 20.4827 36.6333 20.5158C36.5506 20.5488 36.4754 20.5982 36.4124 20.6611L35.905 21.166C35.8435 21.2276 35.809 21.311 35.809 21.398C35.809 21.485 35.8435 21.5684 35.905 21.6299L36.3701 22.0942C36.4006 22.1248 36.4369 22.1491 36.4768 22.1657C36.5167 22.1823 36.5595 22.1909 36.6027 22.1909C36.6459 22.1909 36.6887 22.1823 36.7286 22.1657C36.7685 22.1491 36.8048 22.1248 36.8353 22.0942L37.3299 21.602C37.5801 21.3522 37.6035 20.9454 37.3648 20.6841ZM34.8792 22.1914L27.4751 29.5824C27.4302 29.6271 27.3976 29.6827 27.3803 29.7436L27.0379 30.7637C27.0297 30.7914 27.0291 30.8207 27.0362 30.8487C27.0433 30.8767 27.0578 30.9022 27.0782 30.9227C27.0986 30.9431 27.1242 30.9576 27.1522 30.9647C27.1801 30.9718 27.2095 30.9712 27.2372 30.963L28.2564 30.6205C28.3174 30.6033 28.3729 30.5707 28.4176 30.5258L35.8086 23.1208C35.877 23.0517 35.9154 22.9584 35.9154 22.8612C35.9154 22.764 35.877 22.6707 35.8086 22.6016L35.4005 22.1914C35.3313 22.1224 35.2376 22.0837 35.1399 22.0837C35.0422 22.0837 34.9484 22.1224 34.8792 22.1914Z" fill="#17E55D"/>
</svg>
