<svg width="58" height="58" viewBox="0 0 58 58" fill="none" xmlns="http://www.w3.org/2000/svg">
<rect width="58" height="58" rx="5" fill="#FEEBEB"/>
<path d="M20 20V38H38V20H20ZM21.6364 21.6364H36.3636V36.3636H21.6364V21.6364ZM28.9935 23.2809C28.9628 23.2726 28.9307 23.2706 28.8992 23.2749C28.8677 23.2793 28.8375 23.2899 28.8102 23.3063C28.6842 23.3734 28.6155 23.5255 28.6744 23.6515C29.0704 24.5777 30.4588 27.7695 31.6206 29.9172L32.699 29.3363C31.5969 27.1959 29.6848 24.2251 29.1456 23.3914C29.1112 23.3362 29.0566 23.2966 28.9935 23.2809ZM28.3847 25.1251C28.2446 25.1048 28.1016 25.1268 27.974 25.1883C27.8465 25.2499 27.7402 25.3481 27.6688 25.4704L28.9075 26.2018C29.0004 26.0332 29.025 25.8354 28.9763 25.6493C28.9276 25.4631 28.8093 25.3027 28.6457 25.2012C28.5606 25.1603 28.469 25.1423 28.3847 25.1251ZM27.5665 25.6471L26.9022 26.7852L28.1655 27.4913L28.8053 26.3892L27.5665 25.6471ZM26.8269 26.9095L24.1997 31.4914L25.4376 32.2073L28.0648 27.6516L26.8269 26.9095ZM23.2727 28.1818V29.8182H24.8518L25.8091 28.1818H23.2727ZM28.0509 28.1818L27.11 29.8182H31.2664C31.0373 29.3682 30.6855 28.6645 30.4482 28.1818H28.0509ZM32.3791 28.1818C32.5836 28.5582 32.8536 29.0736 32.9355 29.2373C32.9518 29.2536 33.0009 29.3518 33.0173 29.3845L33.1973 29.8182H34.7273V28.1818H32.3791ZM32.7841 29.495L31.7074 30.0767L32.5157 31.3392L33.356 30.8597L32.7841 29.495ZM33.4411 31.0708L32.6499 31.493L33.4902 33.4975C33.6415 33.8502 34.0465 34.0187 34.3836 33.8338C34.4637 33.7898 34.5339 33.7298 34.5897 33.6575C34.6455 33.5851 34.6858 33.5021 34.7081 33.4135C34.7304 33.3248 34.7341 33.2326 34.7191 33.1425C34.7041 33.0523 34.6707 32.9663 34.6209 32.8896L33.4411 31.0708ZM24.0893 31.6517L23.6434 33.7831L23.7538 33.8322L25.3534 32.384L24.0893 31.6517Z" fill="#F93636"/>
</svg>
