<svg width="58" height="58" viewBox="0 0 58 58" fill="none" xmlns="http://www.w3.org/2000/svg">
<rect width="58" height="58" rx="5" fill="#EBF7FE"/>
<path d="M35.6663 28.166V33.166M31.4997 34.8327V37.3327M26.4997 34.8327V37.3327M22.333 28.166V33.166M27.333 22.3327L26.083 20.666M30.6663 22.3327L31.9163 20.666M24.4163 27.3327H33.583M24.4163 26.916C24.4163 25.7004 24.8992 24.5347 25.7588 23.6751C26.6183 22.8156 27.7841 22.3327 28.9997 22.3327C30.2152 22.3327 31.381 22.8156 32.2406 23.6751C33.1001 24.5347 33.583 25.7004 33.583 26.916V32.3327C33.583 33.511 33.583 34.1002 33.2163 34.466C32.8505 34.8327 32.2613 34.8327 31.083 34.8327H26.9163C25.738 34.8327 25.1488 34.8327 24.783 34.466C24.4163 34.1002 24.4163 33.511 24.4163 32.3327V26.916Z" stroke="#36B3F9" stroke-width="1.5" stroke-linecap="round" stroke-linejoin="round"/>
</svg>
