<svg width="58" height="58" viewBox="0 0 58 58" fill="none" xmlns="http://www.w3.org/2000/svg">
<rect width="58" height="58" rx="5" fill="#F2EBFE"/>
<path d="M27.3 24.7C27.2074 24.7915 27.1338 24.9005 27.0836 25.0207C27.0334 25.1408 27.0076 25.2698 27.0076 25.4C27.0076 25.5302 27.0334 25.6592 27.0836 25.7793C27.1338 25.8995 27.2074 26.0085 27.3 26.1L29.2 28H20C19.45 28 19 28.45 19 29C19 29.55 19.45 30 20 30H29.2L27.3 31.9C27.2074 31.9915 27.1338 32.1005 27.0836 32.2207C27.0334 32.3408 27.0076 32.4698 27.0076 32.6C27.0076 32.7302 27.0334 32.8592 27.0836 32.9793C27.1338 33.0995 27.2074 33.2085 27.3 33.3C27.69 33.69 28.31 33.69 28.7 33.3L32.29 29.71C32.3827 29.6175 32.4563 29.5076 32.5064 29.3866C32.5566 29.2657 32.5824 29.136 32.5824 29.005C32.5824 28.874 32.5566 28.7443 32.5064 28.6234C32.4563 28.5024 32.3827 28.3925 32.29 28.3L28.7 24.7C28.6085 24.6074 28.4995 24.5338 28.3793 24.4836C28.2592 24.4334 28.1302 24.4076 28 24.4076C27.8698 24.4076 27.7408 24.4334 27.6207 24.4836C27.5005 24.5338 27.3915 24.6074 27.3 24.7ZM37 36H30C29.45 36 29 36.45 29 37C29 37.55 29.45 38 30 38H37C38.1 38 39 37.1 39 36V22C39 20.9 38.1 20 37 20H30C29.45 20 29 20.45 29 21C29 21.55 29.45 22 30 22H37V36Z" fill="#8135F9"/>
</svg>
