<svg width="290" height="294" viewBox="0 0 290 294" fill="none" xmlns="http://www.w3.org/2000/svg">
<g clip-path="url(#clip0_8893_43412)">
<g style="mix-blend-mode:multiply" opacity="0.75">
<path d="M248.251 252.067C303.93 196.157 303.93 105.51 248.251 49.6011C192.572 -6.30832 102.299 -6.30832 46.6202 49.6011C-9.05868 105.51 -9.0587 196.157 46.6201 252.067C102.299 307.976 192.572 307.976 248.251 252.067Z" fill="#717FBF"/>
</g>
<g filter="url(#filter0_d_8893_43412)">
<path d="M243.38 244.387C299.059 188.478 299.059 97.8308 243.38 41.9214C187.701 -13.988 97.4279 -13.988 41.7491 41.9214C-13.9298 97.8308 -13.9298 188.478 41.7491 244.387C97.4279 300.297 187.701 300.297 243.38 244.387Z" fill="#8135F9"/>
</g>
<path d="M158.688 257.57C198.595 257.57 230.947 244.861 230.947 229.183C230.947 213.506 198.595 200.797 158.688 200.797C118.781 200.797 86.4297 213.506 86.4297 229.183C86.4297 244.861 118.781 257.57 158.688 257.57Z" fill="#9755FF"/>
<path d="M154.292 242.18C186.307 242.18 212.26 231.896 212.26 219.21C212.26 206.524 186.307 196.24 154.292 196.24C122.277 196.24 96.3242 206.524 96.3242 219.21C96.3242 231.896 122.277 242.18 154.292 242.18Z" fill="#7C38E6"/>
<path d="M147.387 54.6504H151.534C166.657 54.6504 181.16 60.6829 191.854 71.4208C202.548 82.1588 208.555 96.7225 208.555 111.908V192.752C208.555 203.83 204.173 214.453 196.373 222.286C188.572 230.118 177.993 234.519 166.962 234.519H131.949C120.918 234.519 110.338 230.118 102.538 222.286C94.7377 214.453 90.3555 203.83 90.3555 192.752V111.908C90.3555 96.7225 96.3631 82.1588 107.057 71.4208C117.75 60.6829 132.254 54.6504 147.377 54.6504H147.387Z" fill="#717FBF"/>
<path d="M60.6647 231.236L56.2266 227.851C66.6125 214.289 70.96 195.513 69.1485 171.896C68.434 162.569 66.9043 153.1 65.4149 143.944C63.7241 133.475 61.963 122.632 61.3893 111.799C60.081 87.1614 65.8979 66.7079 78.2362 52.6713C88.8838 40.5447 105.207 32.723 121.893 31.763C131.994 31.0212 142.1 33.1208 151.078 37.8263C160.408 42.9397 167.181 51.1049 169.777 60.2504L164.383 61.7663C162.239 54.076 156.412 47.1537 148.391 42.7679C141.035 38.7257 131.726 36.8258 122.175 37.3715C106.948 38.2406 92.074 45.3549 82.3926 56.38C68.0617 72.6903 66.0891 95.357 66.9446 111.485C67.5081 122.026 69.2391 132.707 70.9198 143.035C72.4193 152.302 73.9389 161.892 74.7038 171.452C76.6562 196.422 71.9262 216.542 60.6647 231.236Z" fill="#B9D7FE"/>
<path d="M53.8415 225.354L45.9414 222.838" stroke="#717FBF" stroke-width="2" stroke-linecap="round" stroke-linejoin="round"/>
<path d="M52.4454 229.518L43.9414 231.983" stroke="#717FBF" stroke-width="2" stroke-linecap="round" stroke-linejoin="round"/>
<path d="M55.3416 232.781L52.6445 240.017" stroke="#717FBF" stroke-width="2" stroke-linecap="round" stroke-linejoin="round"/>
<path d="M60.6484 234.793L63.8487 241.523" stroke="#717FBF" stroke-width="2" stroke-linecap="round" stroke-linejoin="round"/>
<path d="M64.6406 230.75L73.2452 231.882" stroke="#717FBF" stroke-width="2" stroke-linecap="round" stroke-linejoin="round"/>
<path d="M117.174 201.575V113.071C117.218 99.4469 122.03 86.2719 130.768 75.8496C139.507 65.4273 151.615 58.421 164.977 56.0555C162.89 55.8084 160.789 55.6835 158.687 55.6816C143.983 55.7243 129.893 61.6087 119.495 72.0493C109.098 82.49 103.238 96.6383 103.195 111.403V196.583C103.225 205.937 106.455 214.997 112.343 222.245C118.232 229.493 126.421 234.49 135.541 236.399C129.892 232.529 125.268 227.336 122.068 221.268C118.868 215.2 117.188 208.441 117.174 201.575Z" fill="#B9D7FE"/>
<path d="M179.602 59.8359C191.664 71.976 198.439 88.4244 198.441 105.574V204.961C198.433 215.748 194.743 226.206 187.985 234.591C195.661 231.653 202.27 226.449 206.941 219.664C211.612 212.879 214.126 204.832 214.151 196.584V111.404C214.123 100.34 210.825 89.5328 204.674 80.3524C198.524 71.172 189.797 64.0316 179.602 59.8359Z" fill="white"/>
<path d="M198.441 105.574C198.437 88.4281 191.662 71.9838 179.602 59.8462C174.925 57.9107 170.004 56.6353 164.979 56.0566C151.617 58.4221 139.509 65.4284 130.77 75.8507C122.032 86.273 117.22 99.448 117.176 113.072V201.576C117.188 208.444 118.867 215.205 122.067 221.275C125.268 227.344 129.893 232.539 135.542 236.41C138.218 236.964 140.942 237.241 143.674 237.239H173.704C178.585 237.233 183.424 236.335 187.985 234.591C194.738 226.201 198.421 215.739 198.421 204.951L198.441 105.574Z" fill="#E3EAFF"/>
<path d="M151.211 141.325C151.213 141.864 151.056 142.39 150.76 142.838C150.464 143.287 150.042 143.637 149.547 143.844C149.053 144.051 148.508 144.107 147.982 144.003C147.456 143.899 146.973 143.641 146.593 143.261C146.214 142.882 145.955 142.397 145.85 141.87C145.744 141.342 145.797 140.795 146.002 140.298C146.207 139.8 146.554 139.375 146.999 139.076C147.444 138.777 147.968 138.617 148.504 138.617C148.859 138.616 149.211 138.685 149.539 138.82C149.868 138.956 150.166 139.155 150.418 139.407C150.669 139.658 150.869 139.957 151.005 140.287C151.141 140.616 151.211 140.969 151.211 141.325Z" fill="#394060"/>
<path d="M193.59 141.325C193.592 141.864 193.435 142.39 193.139 142.838C192.843 143.287 192.42 143.637 191.926 143.844C191.431 144.051 190.887 144.107 190.361 144.003C189.835 143.899 189.352 143.641 188.972 143.261C188.593 142.882 188.334 142.397 188.229 141.87C188.123 141.342 188.176 140.795 188.381 140.298C188.585 139.8 188.932 139.375 189.378 139.076C189.823 138.777 190.347 138.617 190.883 138.617C191.238 138.616 191.59 138.685 191.918 138.82C192.247 138.956 192.545 139.155 192.797 139.407C193.048 139.658 193.248 139.957 193.384 140.287C193.52 140.616 193.59 140.969 193.59 141.325Z" fill="#394060"/>
<path d="M149.398 156.999C158.718 143.862 180.425 143.862 189.734 156.999C183.937 152.569 176.852 150.17 169.566 150.17C162.281 150.17 155.196 152.569 149.398 156.999Z" fill="#394060"/>
<path d="M196.508 136.901C193.901 139.478 188.99 135.89 190.671 132.596C192.402 134.303 194.368 135.752 196.508 136.901Z" fill="#394060"/>
<path d="M142.062 138.365C144.207 137.224 146.173 135.774 147.9 134.061C149.58 137.335 144.669 140.953 142.062 138.365Z" fill="#394060"/>
<path d="M109.387 173.725C109.387 173.725 81.2078 193.774 170.776 190.288" stroke="#717FBF" stroke-width="1.89" stroke-miterlimit="10" stroke-linecap="round"/>
<path d="M214.15 172.521C214.15 172.521 240.155 189.842 177.336 189.842" stroke="#717FBF" stroke-width="2" stroke-miterlimit="10" stroke-linecap="round"/>
<path d="M148.805 237.601C148.805 237.601 159.06 99.5899 165.833 243.351" stroke="#717FBF" stroke-width="2" stroke-miterlimit="10" stroke-linecap="round"/>
<path d="M175.586 237.561C175.586 237.561 185.851 100.056 192.624 243.817" stroke="#717FBF" stroke-width="2" stroke-miterlimit="10" stroke-linecap="round"/>
<path d="M182.71 189.843C182.71 191.651 180.587 193.117 177.98 193.117C175.373 193.117 173.25 191.651 173.25 189.843C173.25 188.034 175.363 186.568 177.98 186.568C180.597 186.568 182.71 188.034 182.71 189.843Z" fill="#394060"/>
<path d="M168.511 193.632C171.124 193.632 173.241 192.166 173.241 190.358C173.241 188.55 171.124 187.084 168.511 187.084C165.899 187.084 163.781 188.55 163.781 190.358C163.781 192.166 165.899 193.632 168.511 193.632Z" fill="#394060"/>
<path d="M176.572 249.576C175.857 251.233 172.184 251.223 168.38 249.576C164.576 247.928 162.06 245.21 162.785 243.512C163.509 241.815 167.172 241.865 170.977 243.512C174.781 245.159 177.297 247.918 176.572 249.576Z" fill="#394060"/>
<path d="M203.08 248.566C202.365 250.223 198.692 250.213 194.878 248.566C191.063 246.919 188.568 244.2 189.282 242.502C189.997 240.805 193.67 240.855 197.484 242.502C201.298 244.15 203.754 246.908 203.08 248.566Z" fill="#394060"/>
<path d="M103.195 123.359C137.111 111.849 180.848 108.625 214.179 123.359C209.651 122.075 205.122 120.843 200.543 119.943C168.339 113.607 135.128 116.81 103.195 123.359Z" fill="#717FBF"/>
<path d="M167.113 115.032V57.2383" stroke="#717FBF" stroke-width="2" stroke-miterlimit="10" stroke-linecap="round"/>
<path d="M165.985 103.652C164.513 103.647 163.103 103.057 162.063 102.012C161.022 100.967 160.435 99.5517 160.43 98.0739V71.3751C160.432 69.8965 161.018 68.4792 162.06 67.4337C163.101 66.3881 164.512 65.7995 165.985 65.7969C167.457 65.8022 168.867 66.3916 169.907 67.4366C170.948 68.4816 171.535 69.8973 171.54 71.3751V98.0739C171.535 99.5517 170.948 100.967 169.907 102.012C168.867 103.057 167.457 103.647 165.985 103.652Z" fill="#717FBF"/>
<path d="M167.254 65.9492V103.552C168.47 103.26 169.554 102.566 170.332 101.583C171.109 100.599 171.535 99.3811 171.541 98.1252V71.3759C171.537 70.1195 171.111 68.9011 170.334 67.9168C169.556 66.9325 168.471 66.2395 167.254 65.9492Z" fill="#717FBF"/>
<path d="M165.985 103.652C164.513 103.647 163.103 103.057 162.063 102.012C161.022 100.967 160.435 99.5517 160.43 98.0739V71.3751C160.432 69.8965 161.018 68.4792 162.06 67.4337C163.101 66.3881 164.512 65.7995 165.985 65.7969C167.457 65.8022 168.867 66.3916 169.907 67.4366C170.948 68.4816 171.535 69.8973 171.54 71.3751V98.0739C171.535 99.5517 170.948 100.967 169.907 102.012C168.867 103.057 167.457 103.647 165.985 103.652Z" fill="#717FBF"/>
<path d="M168.118 102.732C166.646 102.727 165.236 102.138 164.195 101.093C163.155 100.048 162.568 98.6318 162.562 97.154V70.4552C162.568 68.9774 163.155 67.5616 164.195 66.5167C165.236 65.4717 166.646 64.8823 168.118 64.877C169.589 64.8823 170.999 65.4717 172.04 66.5167C173.081 67.5616 173.668 68.9774 173.673 70.4552V97.154C173.67 98.6326 173.084 100.05 172.043 101.095C171.002 102.141 169.59 102.73 168.118 102.732Z" fill="#B9D7FE"/>
<path d="M169.387 65.0293V102.541C170.604 102.251 171.689 101.558 172.466 100.573C173.244 99.5891 173.669 98.3708 173.674 97.1143V70.456C173.669 69.1996 173.244 67.9812 172.466 66.9969C171.689 66.0126 170.604 65.3196 169.387 65.0293Z" fill="white"/>
<path d="M194.898 52.4688V90.6171" stroke="#717FBF" stroke-width="2" stroke-miterlimit="10" stroke-linecap="round"/>
<path d="M187.812 55.4688V77.3573" stroke="#717FBF" stroke-width="2" stroke-miterlimit="10" stroke-linecap="round"/>
<path d="M201.984 64.0801V88.202" stroke="#717FBF" stroke-width="2" stroke-miterlimit="10" stroke-linecap="round"/>
</g>
<defs>
<filter id="filter0_d_8893_43412" x="-4.01172" y="-0.00976562" width="293.152" height="294.328" filterUnits="userSpaceOnUse" color-interpolation-filters="sRGB">
<feFlood flood-opacity="0" result="BackgroundImageFix"/>
<feColorMatrix in="SourceAlpha" type="matrix" values="0 0 0 0 0 0 0 0 0 0 0 0 0 0 0 0 0 0 127 0" result="hardAlpha"/>
<feOffset dy="4"/>
<feGaussianBlur stdDeviation="2"/>
<feComposite in2="hardAlpha" operator="out"/>
<feColorMatrix type="matrix" values="0 0 0 0 0 0 0 0 0 0 0 0 0 0 0 0 0 0 0.25 0"/>
<feBlend mode="normal" in2="BackgroundImageFix" result="effect1_dropShadow_8893_43412"/>
<feBlend mode="normal" in="SourceGraphic" in2="effect1_dropShadow_8893_43412" result="shape"/>
</filter>
<clipPath id="clip0_8893_43412">
<rect width="290" height="294" fill="white"/>
</clipPath>
</defs>
</svg>
