<svg width="270" height="239" viewBox="0 0 270 239" fill="none" xmlns="http://www.w3.org/2000/svg">
<path d="M35.6055 72.058C100.6 -2.77324 166.863 -2.77324 234.393 72.058M135.027 208.487C174.847 208.487 207.162 212.002 207.162 216.272C207.162 220.603 174.841 224.062 135.027 224.062C95.2136 224.062 62.8923 220.609 62.8923 216.272C62.8923 211.997 95.2136 208.487 135.027 208.487Z" stroke="#8135F9" stroke-width="12" stroke-linecap="round" stroke-linejoin="round"/>
<path d="M133.098 200.702C156.479 179.89 174.005 154.067 185.675 123.235C226.602 3.37727 39.5318 1.91477 82.3887 122.768C92.8137 153.919 109.717 179.897 133.098 200.702Z" stroke="#8135F9" stroke-width="12" stroke-linecap="round" stroke-linejoin="round"/>
<path d="M133.1 46.2393C158.918 46.2393 179.883 66.5568 179.883 91.5599C179.883 116.563 158.918 136.875 133.1 136.875C107.281 136.875 86.3164 116.557 86.3164 91.5599C86.3164 66.5624 107.275 46.2393 133.1 46.2393Z" stroke="#8135F9" stroke-width="12" stroke-linecap="round" stroke-linejoin="round"/>
<path d="M148.089 67.901C160.622 76.4622 163.822 93.7479 155.233 106.505C146.655 119.268 129.527 122.672 116.994 114.11C104.462 105.549 101.256 88.2691 109.845 75.506C111.883 72.4782 114.491 69.8761 117.523 67.8447" stroke="#8135F9" stroke-width="12" stroke-linecap="round" stroke-linejoin="round"/>
<path d="M133.33 57.8887C141.823 57.8887 148.669 64.5655 148.669 72.7612C148.669 81.0187 141.823 87.6337 133.33 87.6337C124.836 87.6337 117.99 81.0187 117.99 72.7612C117.99 64.5655 124.841 57.8887 133.33 57.8887Z" stroke="#8135F9" stroke-width="12" stroke-linecap="round" stroke-linejoin="round"/>
</svg>
