<svg width="233" height="233" viewBox="0 0 233 233" fill="none" xmlns="http://www.w3.org/2000/svg">
<path d="M118.122 103.078C54.9204 79.8464 60.459 -15.7127 118.622 33.0814C124.981 21.5382 145.562 7.98534 159.047 27.7418C132.572 24.6012 116.369 57.0464 118.122 103.078Z" stroke="#8135F9" stroke-width="7" stroke-linecap="round" stroke-linejoin="round"/>
<path d="M128.888 114.408C131.13 47.1099 223.607 22.4119 195.506 92.9381C208.467 95.3603 227.786 110.656 213.258 129.65C207.933 103.535 172.046 98.3165 128.888 114.408ZM124.533 127.83C190.045 112.272 238.228 194.977 162.784 186.444C163.867 199.584 154.197 222.253 132.048 213.239C155.843 201.225 151.421 165.231 124.533 127.83ZM106.136 126.742C144.46 182.104 84.9476 257.072 65.4582 183.696C53.614 189.483 28.9742 188.725 29.314 164.814C49.1627 182.604 81.0837 165.396 106.136 126.742ZM103.694 110.957C61.2593 163.246 -27.3632 127.082 37.6292 87.8363C28.7558 78.0795 22.591 54.2212 45.6483 47.8574C34.1148 71.8904 59.5749 97.7146 103.685 110.957H103.694Z" stroke="#8135F9" stroke-width="7" stroke-linecap="round" stroke-linejoin="round"/>
</svg>
