<svg width="239" height="239" viewBox="0 0 239 239" fill="none" xmlns="http://www.w3.org/2000/svg">
<path d="M119.499 226.552C178.623 226.552 226.551 178.624 226.551 119.5C226.551 60.3771 178.623 12.4482 119.499 12.4482C60.3761 12.4482 12.4473 60.3771 12.4473 119.5C12.4473 178.624 60.3761 226.552 119.499 226.552Z" stroke="#8135F9" stroke-width="16" stroke-linecap="round" stroke-linejoin="round"/>
<path d="M209.972 17.0283L77.1274 93.7573C72.2099 96.5913 68.6189 101.262 67.1437 106.743C65.6685 112.223 66.4298 118.065 69.2603 122.985C70.6636 125.427 72.5348 127.567 74.7667 129.284C76.9985 131.002 79.5473 132.262 82.2669 132.993C84.9865 133.723 87.8236 133.91 90.6156 133.543C93.4076 133.176 96.0997 132.261 98.5378 130.852L137.873 108.147C140.307 106.739 142.996 105.825 145.784 105.459C148.572 105.092 151.405 105.28 154.121 106.01C156.836 106.741 159.381 108.001 161.608 109.718C163.836 111.435 165.702 113.574 167.101 116.014C168.513 118.442 169.433 121.126 169.807 123.91C170.18 126.694 170.002 129.524 169.28 132.239C168.558 134.954 167.309 137.5 165.602 139.731C163.895 141.962 161.765 143.835 159.333 145.242L26.4395 221.971" stroke="#8135F9" stroke-width="15" stroke-linecap="round" stroke-linejoin="round"/>
</svg>
