<svg width="260" height="239" viewBox="0 0 260 239" fill="none" xmlns="http://www.w3.org/2000/svg">
<path d="M140.52 170.874C171.653 170.874 196.891 160.356 196.891 147.382C196.891 134.407 171.653 123.89 140.52 123.89C109.387 123.89 84.1484 134.407 84.1484 147.382C84.1484 160.356 109.387 170.874 140.52 170.874Z" stroke="#8135F9" stroke-width="10" stroke-linecap="round" stroke-linejoin="round"/>
<path d="M196.89 162.451V147.382M84.1479 147.382V170.874C84.1479 183.847 109.384 194.366 140.519 194.366C150.964 194.443 161.374 193.146 171.481 190.509M122.888 81.2712C109.545 75.7286 95.1901 73.0421 80.7462 73.3845C49.6167 73.3845 24.375 83.8983 24.375 96.8712C24.375 109.844 49.6167 120.363 80.7462 120.363C95.1901 120.706 109.545 118.019 122.888 112.477" stroke="#8135F9" stroke-width="10" stroke-linecap="round" stroke-linejoin="round"/>
<path d="M24.375 96.8711V120.369C24.375 133.342 49.6167 143.861 80.7463 143.861C82.1329 143.861 83.5069 143.841 84.8683 143.801" stroke="#8135F9" stroke-width="10" stroke-linecap="round" stroke-linejoin="round"/>
<path d="M24.375 120.368V143.86C24.375 156.839 49.6167 167.358 80.7462 167.358C81.8874 167.358 83.0194 167.343 84.1425 167.314" stroke="#8135F9" stroke-width="10" stroke-linecap="round" stroke-linejoin="round"/>
<path d="M179.254 92.6189C210.387 92.6189 235.625 82.1012 235.625 69.1268C235.625 56.1525 210.387 45.6348 179.254 45.6348C148.121 45.6348 122.883 56.1525 122.883 69.1268C122.883 82.1012 148.121 92.6189 179.254 92.6189Z" stroke="#8135F9" stroke-width="10" stroke-linecap="round" stroke-linejoin="round"/>
<path d="M122.877 69.127V92.619C122.877 105.597 148.119 116.117 179.254 116.117C210.389 116.117 235.625 105.592 235.625 92.619V69.127" stroke="#8135F9" stroke-width="10" stroke-linecap="round" stroke-linejoin="round"/>
<path d="M193.061 138.899C217.517 136.332 235.625 127.107 235.625 116.117V92.6191M122.877 92.6246V116.117C123 119.338 124.367 122.386 126.69 124.621" stroke="#8135F9" stroke-width="10" stroke-linecap="round" stroke-linejoin="round"/>
<path d="M196.896 161.925C219.386 158.843 235.626 150.014 235.626 139.608V116.116" stroke="#8135F9" stroke-width="10" stroke-linecap="round" stroke-linejoin="round"/>
<path d="M208.542 236.458C229.482 236.458 246.458 219.482 246.458 198.542C246.458 177.601 229.482 160.625 208.542 160.625C187.601 160.625 170.625 177.601 170.625 198.542C170.625 219.482 187.601 236.458 208.542 236.458Z" stroke="#8135F9" stroke-width="10" stroke-linecap="round" stroke-linejoin="round"/>
<path d="M194.188 220.208V176.875H208.374C212.234 176.875 215.936 178.408 218.665 181.138C221.395 183.867 222.928 187.569 222.928 191.43C222.928 195.29 221.395 198.992 218.665 201.721C215.936 204.451 212.234 205.984 208.374 205.984M208.374 205.984H194.188M208.374 205.984L222.56 220.198" stroke="#8135F9" stroke-width="10" stroke-linecap="round" stroke-linejoin="round"/>
</svg>
