<svg width="242" height="239" viewBox="0 0 242 239" fill="none" xmlns="http://www.w3.org/2000/svg">
<path d="M60.5 220.834H211.75V200.667H60.621C55.9625 200.546 50.4167 198.701 50.4167 190.584C50.4167 182.467 55.9625 180.621 60.621 180.5H211.75V39.3337C211.75 28.2117 202.705 19.167 191.583 19.167H60.5C48.3395 19.167 30.25 27.2236 30.25 49.417V190.584C30.25 212.777 48.3395 220.834 60.5 220.834ZM50.4167 79.667V49.417C50.4167 41.2999 55.9625 39.4547 60.5 39.3337H191.583V160.334H50.4167V79.667Z" fill="#8135F9"/>
<path d="M110.917 140.167H131.083V99.8333H151.25V79.6667H131.083V59.5H110.917V79.6667H90.75V99.8333H110.917V140.167Z" fill="#8135F9"/>
</svg>
