<svg width="262" height="239" viewBox="0 0 262 239" fill="none" xmlns="http://www.w3.org/2000/svg">
<path d="M171.938 120H188.312V136.375H171.938V120ZM73.6875 120H139.188V136.375H73.6875V120ZM171.938 87.25H188.312V103.625H171.938V87.25ZM73.6875 87.25H139.188V103.625H73.6875V87.25ZM73.6875 54.5H188.312V70.875H73.6875V54.5Z" fill="#8135F9"/>
<path d="M204.688 5.375H57.3125C52.9696 5.375 48.8045 7.10022 45.7336 10.1711C42.6627 13.242 40.9375 17.4071 40.9375 21.75V226.438C40.9375 228.609 41.8001 230.691 43.3356 232.227C44.871 233.762 46.9535 234.625 49.125 234.625H57.3125C58.5836 234.625 59.8372 234.329 60.9741 233.761C62.1109 233.192 63.0999 232.367 63.8625 231.35L81.875 207.336L99.8875 231.35C100.682 232.318 101.682 233.098 102.815 233.634C103.947 234.17 105.185 234.448 106.438 234.448C107.69 234.448 108.928 234.17 110.06 233.634C111.193 233.098 112.193 232.318 112.988 231.35L131 207.336L149.013 231.35C149.807 232.318 150.807 233.098 151.94 233.634C153.072 234.17 154.31 234.448 155.562 234.448C156.815 234.448 158.053 234.17 159.185 233.634C160.318 233.098 161.318 232.318 162.112 231.35L180.125 207.336L198.138 231.35C198.9 232.367 199.889 233.192 201.026 233.761C202.163 234.329 203.416 234.625 204.688 234.625H212.875C215.046 234.625 217.129 233.762 218.664 232.227C220.2 230.691 221.062 228.609 221.062 226.438V21.75C221.062 17.4071 219.337 13.242 216.266 10.1711C213.195 7.10022 209.03 5.375 204.688 5.375ZM204.688 212.789L186.675 188.775C185.88 187.807 184.88 187.027 183.748 186.491C182.615 185.955 181.378 185.677 180.125 185.677C178.872 185.677 177.635 185.955 176.502 186.491C175.37 187.027 174.37 187.807 173.575 188.775L155.562 212.789L137.55 188.775C136.755 187.807 135.755 187.027 134.623 186.491C133.49 185.955 132.253 185.677 131 185.677C129.747 185.677 128.51 185.955 127.377 186.491C126.245 187.027 125.245 187.807 124.45 188.775L106.438 212.789L88.425 188.775C87.6301 187.807 86.6303 187.027 85.4977 186.491C84.3651 185.955 83.1279 185.677 81.875 185.677C80.6221 185.677 79.3849 185.955 78.2523 186.491C77.1197 187.027 76.1199 187.807 75.325 188.775L57.3125 212.789V21.75H204.688V212.789Z" fill="#8135F9"/>
</svg>
