<svg width="234" height="234" viewBox="0 0 234 234" fill="none" xmlns="http://www.w3.org/2000/svg">
<path d="M124.313 176.846V146.25H109.688V176.846C104.809 178.57 100.696 181.965 98.078 186.428C95.4596 190.892 94.5034 196.138 95.3785 201.238C96.2536 206.338 98.9036 210.965 102.86 214.301C106.817 217.636 111.825 219.466 117 219.466C122.175 219.466 127.183 217.636 131.14 214.301C135.097 210.965 137.747 206.338 138.622 201.238C139.497 196.138 138.541 190.892 135.922 186.428C133.304 181.965 129.192 178.57 124.313 176.846Z" fill="#8135F9"/>
<path d="M190.125 87.7501C183.658 87.7693 177.38 89.9334 172.275 93.9033C167.17 97.8732 163.525 103.425 161.914 109.688H72.0868C70.307 102.794 66.0743 96.7869 60.182 92.7913C54.2897 88.7957 47.1425 87.0861 40.08 87.9832C33.0175 88.8803 26.5246 92.3223 21.8183 97.6641C17.1121 103.006 14.5156 109.881 14.5156 117C14.5156 124.119 17.1121 130.994 21.8183 136.336C26.5246 141.678 33.0175 145.12 40.08 146.017C47.1425 146.914 54.2897 145.204 60.182 141.209C66.0743 137.213 70.307 131.206 72.0868 124.313H161.914C163.291 129.596 166.122 134.388 170.085 138.144C174.048 141.899 178.986 144.468 184.336 145.559C189.686 146.65 195.235 146.219 200.352 144.314C205.469 142.41 209.95 139.109 213.286 134.786C216.621 130.463 218.678 125.292 219.222 119.859C219.766 114.426 218.776 108.949 216.364 104.05C213.952 99.1517 210.215 95.0276 205.577 92.1463C200.938 89.265 195.585 87.742 190.125 87.7501ZM43.8752 131.625C40.9826 131.625 38.155 130.767 35.75 129.16C33.3449 127.553 31.4704 125.269 30.3634 122.597C29.2565 119.924 28.9669 116.984 29.5312 114.147C30.0955 111.31 31.4884 108.704 33.5338 106.659C35.5791 104.613 38.185 103.22 41.022 102.656C43.859 102.092 46.7996 102.381 49.4719 103.488C52.1443 104.595 54.4284 106.47 56.0354 108.875C57.6424 111.28 58.5002 114.108 58.5002 117C58.4944 120.877 56.9517 124.594 54.2102 127.335C51.4688 130.077 47.7522 131.619 43.8752 131.625ZM190.125 131.625C187.233 131.625 184.405 130.767 182 129.16C179.595 127.553 177.72 125.269 176.613 122.597C175.507 119.924 175.217 116.984 175.781 114.147C176.346 111.31 177.738 108.704 179.784 106.659C181.829 104.613 184.435 103.22 187.272 102.656C190.109 102.092 193.05 102.381 195.722 103.488C198.394 104.595 200.678 106.47 202.285 108.875C203.892 111.28 204.75 114.108 204.75 117C204.744 120.877 203.202 124.594 200.46 127.335C197.719 130.077 194.002 131.619 190.125 131.625Z" fill="#8135F9"/>
<path d="M138.937 36.5625C138.954 32.5368 137.863 28.5842 135.783 25.1374C133.703 21.6907 130.715 18.8827 127.145 17.021C123.576 15.1593 119.563 14.3156 115.546 14.5824C111.529 14.8492 107.663 16.2161 104.372 18.5336C101.08 20.851 98.4892 24.0295 96.8833 27.721C95.2775 31.4126 94.7185 35.4748 95.2674 39.4629C95.8163 43.451 97.452 47.2112 99.9955 50.3317C102.539 53.4521 105.892 55.8126 109.687 57.1545V87.75H124.312V57.1545C128.581 55.6567 132.28 52.8719 134.899 49.1838C137.518 45.4958 138.929 41.0861 138.937 36.5625Z" fill="#8135F9"/>
</svg>
