<svg width="245" height="239" viewBox="0 0 245 239" fill="none" xmlns="http://www.w3.org/2000/svg">
<path d="M91.875 24.625C99.4463 24.625 106.848 26.8702 113.143 31.0766C119.438 35.283 124.345 41.2617 127.242 48.2566C130.14 55.2516 130.898 62.9487 129.421 70.3745C127.944 77.8004 124.298 84.6215 118.944 89.9752C113.59 95.3289 106.769 98.9748 99.3433 100.452C91.9175 101.929 84.2204 101.171 77.2254 98.2735C70.2304 95.3761 64.2517 90.4695 60.0453 84.1742C55.8389 77.8789 53.5938 70.4776 53.5938 62.9062C53.5938 52.7534 57.6269 43.0164 64.8061 35.8373C71.9852 28.6582 81.7222 24.625 91.875 24.625ZM91.875 9.3125C81.2752 9.3125 70.9134 12.4557 62.0999 18.3447C53.2865 24.2336 46.4172 32.6038 42.3608 42.3968C38.3044 52.1898 37.2431 62.9657 39.311 73.3619C41.379 83.758 46.4833 93.3075 53.9785 100.803C61.4737 108.298 71.0232 113.402 81.4194 115.47C91.8156 117.538 102.591 116.477 112.384 112.42C122.177 108.364 130.548 101.495 136.437 92.6813C142.326 83.8679 145.469 73.5061 145.469 62.9062C145.469 48.6923 139.822 35.0605 129.771 25.0097C119.721 14.959 106.089 9.3125 91.875 9.3125ZM168.438 223.688H153.125V185.406C153.125 175.253 149.092 165.516 141.913 158.337C134.734 151.158 124.997 147.125 114.844 147.125H68.9062C58.7534 147.125 49.0164 151.158 41.8373 158.337C34.6582 165.516 30.625 175.253 30.625 185.406V223.688H15.3125V185.406C15.3125 171.192 20.959 157.561 31.0097 147.51C41.0605 137.459 54.6923 131.812 68.9062 131.812H114.844C129.058 131.812 142.689 137.459 152.74 147.51C162.791 157.561 168.438 171.192 168.438 185.406V223.688ZM168.438 24.625H245V39.9375H168.438V24.625ZM168.438 62.9062H245V78.2188H168.438V62.9062ZM168.438 101.188H222.031V116.5H168.438V101.188Z" fill="#8135F9"/>
</svg>
