<svg width="244" height="198" viewBox="0 0 244 198" fill="none" xmlns="http://www.w3.org/2000/svg">
<path d="M234.5 99C234.5 56.5763 234.5 35.3587 221.315 22.185C208.141 9 186.924 9 144.5 9H99.5C57.0763 9 35.8587 9 22.685 22.185C9.5 35.3587 9.5 56.5763 9.5 99C9.5 141.424 9.5 162.641 22.685 175.815C35.8587 189 57.0763 189 99.5 189H144.5C186.924 189 208.141 189 221.315 175.815C228.672 168.469 231.924 158.625 233.353 144M99.5 144H54.5M144.5 144H127.625M9.5 76.5H65.75M234.5 76.5H110.75" stroke="#8135F9" stroke-width="18" stroke-linecap="round"/>
</svg>
