<svg width="245" height="239" viewBox="0 0 245 239" fill="none" xmlns="http://www.w3.org/2000/svg">
<path fill-rule="evenodd" clip-rule="evenodd" d="M43.94 188.787C27.1607 170.369 16.9529 146.054 16.9529 119.394C16.9529 61.8997 64.4037 15.291 122.937 15.291C181.47 15.291 228.921 61.8997 228.921 119.394C228.921 160.047 205.189 195.243 170.598 212.381C149.435 223.415 125.29 229.666 99.6602 229.666C68.2558 229.666 39.082 220.281 14.8887 204.212C14.8887 204.212 31.1127 202.442 43.9358 188.791L43.94 188.787ZM172.723 170.916C200.143 143.497 200.143 99.0427 172.723 71.6236C160.009 58.9096 143.632 52.0951 126.988 51.1727C126.486 38.6858 133.208 30.2487 133.241 30.2075L133.234 30.2089L133.239 30.2022C114.111 33.8973 95.8449 43.1514 81.0331 57.9633C69.6738 69.3221 61.5857 82.7129 56.7638 96.9648C57.4697 95.0956 58.2568 93.25 59.125 91.4339C58.1256 93.9824 57.2227 96.5866 56.406 99.2509C48.3759 123.628 54.0438 151.529 73.4305 170.916C100.85 198.336 145.305 198.336 172.723 170.916Z" fill="#8135F9"/>
<path fill-rule="evenodd" clip-rule="evenodd" d="M87.4336 114.054V122.776V128.586C87.4336 134.385 92.1345 139.086 97.9344 139.086C103.734 139.086 108.434 134.385 108.434 128.586V122.767V114.054C108.434 108.255 103.734 103.553 97.9344 103.553C92.1345 103.553 87.4336 108.255 87.4336 114.054Z" fill="#8135F9"/>
<path fill-rule="evenodd" clip-rule="evenodd" d="M139.408 114.054V122.776V128.586C139.408 134.385 144.11 139.086 149.908 139.086C155.708 139.086 160.409 134.385 160.409 128.586V122.767V114.054C160.409 108.255 155.708 103.553 149.908 103.553C144.11 103.553 139.408 108.255 139.408 114.054Z" fill="#8135F9"/>
</svg>
