<svg width="250" height="176" viewBox="0 0 250 176" fill="none" xmlns="http://www.w3.org/2000/svg">
<path fill-rule="evenodd" clip-rule="evenodd" d="M119.206 125.969C116.837 126.238 114.454 126.372 112.069 126.369H75V156.75C75 156.75 69.9625 155.731 62.5 152.856C41.1625 144.65 0 121.313 0 63.4375C0 28.6875 28.175 0.5 62.9375 0.5H112.063C142.388 0.5 167.706 21.95 173.669 50.5H199.656C213.009 50.5017 225.814 55.8071 235.255 65.2494C244.696 74.6917 250 87.4974 250 100.85C250 146.344 213.575 165.163 193.75 172.031C186.344 174.6 181.25 175.5 181.25 175.5V151.194H162.85C153.999 151.199 145.304 148.87 137.641 144.441C129.978 140.012 123.619 133.641 119.206 125.969ZM62.5 113.869V139.338C56.2731 136.605 50.3492 133.228 44.825 129.263C28.6375 117.556 12.5 97.7125 12.5 63.4313C12.5017 50.0555 17.8163 37.2281 27.275 27.7706C36.7337 18.3131 49.5617 13 62.9375 13H112.063C124.927 13.0002 137.306 17.9164 146.666 26.7428C156.025 35.5691 161.658 47.6384 162.413 60.4813C162.388 61.0354 162.352 61.5854 162.306 62.1313C161.654 70.4916 159.334 78.6367 155.484 86.0862C151.634 93.5358 146.331 100.139 139.888 105.506C131.642 110.975 121.963 113.884 112.069 113.869H62.5ZM147.344 115.556C143.044 119.085 138.365 122.125 133.394 124.619C136.94 129.016 141.427 132.563 146.525 134.999C151.622 137.435 157.201 138.697 162.85 138.694H193.75V158.7C199.04 156.614 204.13 154.052 208.956 151.044C223.75 141.7 237.5 126.525 237.5 100.85C237.5 90.8126 233.513 81.1863 226.416 74.0882C219.319 66.9902 209.694 63.0017 199.656 63H175V63.4375C175 85.1188 164.031 104.238 147.344 115.556Z" fill="#8135F9"/>
</svg>
