<svg width="214" height="214" viewBox="0 0 214 214" fill="none" xmlns="http://www.w3.org/2000/svg">
<path d="M114.498 134.641L106.999 115.916L99.5004 134.641L80.2494 136.353L94.8727 149.63L90.4678 169.416L106.999 158.904L123.531 169.416L119.126 149.63L133.749 136.353L114.498 134.641ZM53.4993 17.833H160.499V35.6663H53.4993V17.833ZM35.666 53.4997H178.333V71.333H35.666V53.4997Z" fill="#8135F9"/>
<path d="M178.334 107V178.334H35.6673V107H178.334ZM178.334 89.167H35.6673C30.9376 89.167 26.4016 91.0459 23.0572 94.3903C19.7128 97.7347 17.834 102.271 17.834 107V178.334C17.834 183.063 19.7128 187.599 23.0572 190.944C26.4016 194.288 30.9376 196.167 35.6673 196.167H178.334C183.064 196.167 187.6 194.288 190.944 190.944C194.288 187.599 196.167 183.063 196.167 178.334V107C196.167 102.271 194.288 97.7347 190.944 94.3903C187.6 91.0459 183.064 89.167 178.334 89.167Z" fill="#8135F9"/>
</svg>
