<svg width="286" height="232" viewBox="0 0 286 232" fill="none" xmlns="http://www.w3.org/2000/svg">
<path d="M50.25 82.875C50.25 82.875 16.1776 96.125 10.5 142.5M235.75 82.875C235.75 82.875 269.822 96.125 275.5 142.5M103.25 82.875C103.25 82.875 135.05 90.6064 143 129.25C150.95 90.6064 182.75 82.875 182.75 82.875M116.5 182.25C116.5 182.25 88.675 187.219 76.75 222M169.5 182.25C169.5 182.25 197.325 187.219 209.25 222" stroke="#8135F9" stroke-width="20" stroke-linecap="round"/>
<path d="M143 195.5C161.294 195.5 176.125 180.669 176.125 162.375C176.125 144.081 161.294 129.25 143 129.25C124.706 129.25 109.875 144.081 109.875 162.375C109.875 180.669 124.706 195.5 143 195.5Z" stroke="#8135F9" stroke-width="20" stroke-linecap="round" stroke-linejoin="round"/>
<path d="M209.25 89.5C231.203 89.5 249 71.7033 249 49.75C249 27.7967 231.203 10 209.25 10C187.297 10 169.5 27.7967 169.5 49.75C169.5 71.7033 187.297 89.5 209.25 89.5Z" stroke="#8135F9" stroke-width="20" stroke-linecap="round" stroke-linejoin="round"/>
<path d="M76.75 89.5C98.7033 89.5 116.5 71.7033 116.5 49.75C116.5 27.7967 98.7033 10 76.75 10C54.7967 10 37 27.7967 37 49.75C37 71.7033 54.7967 89.5 76.75 89.5Z" stroke="#8135F9" stroke-width="20" stroke-linecap="round" stroke-linejoin="round"/>
</svg>
