<svg width="245" height="239" viewBox="0 0 245 239" fill="none" xmlns="http://www.w3.org/2000/svg">
<path d="M122.499 39.9375C105.344 39.9371 88.5739 45.0219 74.3076 54.5494C60.0413 64.0768 48.9193 77.6194 42.347 93.4656C35.7747 109.312 34.0471 126.751 37.3824 143.579C40.7178 160.406 48.9665 175.868 61.0861 188.009C62.4801 189.454 63.2509 191.388 63.2325 193.396C63.2141 195.403 62.408 197.323 60.9878 198.742C59.5676 200.161 57.6469 200.965 55.6395 200.982C53.632 200.998 51.6984 200.226 50.255 198.83C40.7805 189.363 33.2677 178.119 28.1473 165.743C23.0269 153.367 20.3996 140.102 20.4161 126.708C20.4161 70.3277 66.1188 24.625 122.499 24.625C178.88 24.625 224.583 70.3277 224.583 126.708C224.599 140.102 221.972 153.367 216.852 165.743C211.731 178.119 204.218 189.363 194.744 198.83C193.3 200.226 191.367 200.998 189.359 200.982C187.352 200.965 185.431 200.161 184.011 198.742C182.591 197.323 181.785 195.403 181.766 193.396C181.748 191.388 182.519 189.454 183.913 188.009C196.032 175.868 204.281 160.406 207.616 143.579C210.952 126.751 209.224 109.312 202.652 93.4656C196.08 77.6194 184.958 64.0768 170.691 54.5494C156.425 45.0219 139.655 39.9371 122.499 39.9375ZM122.499 75.6667C112.403 75.6668 102.533 78.6615 94.138 84.272C85.7435 89.8824 79.2015 97.8565 75.3396 107.186C71.4777 116.515 70.4694 126.78 72.4423 136.682C74.4152 146.584 79.2807 155.679 86.4232 162.815C87.8185 164.259 88.5911 166.192 88.5747 168.2C88.5582 170.207 87.7539 172.128 86.335 173.548C84.9161 174.968 82.9962 175.774 80.9888 175.793C78.9813 175.811 77.047 175.04 75.6023 173.646C66.3162 164.369 59.9903 152.546 57.4249 139.673C54.8595 126.8 56.1698 113.455 61.1901 101.326C66.2104 89.198 74.7152 78.8312 85.6284 71.5373C96.5417 64.2434 109.373 60.3502 122.499 60.3502C135.626 60.3502 148.457 64.2434 159.37 71.5373C170.284 78.8312 178.788 89.198 183.809 101.326C188.829 113.455 190.139 126.8 187.574 139.673C185.009 152.546 178.683 164.369 169.396 173.646C167.945 174.999 166.025 175.735 164.042 175.7C162.059 175.665 160.166 174.861 158.763 173.459C157.361 172.056 156.557 170.163 156.522 168.18C156.487 166.196 157.223 164.277 158.576 162.825C165.722 155.689 170.59 146.594 172.565 136.69C174.54 126.786 173.533 116.519 169.67 107.188C165.808 97.8564 159.264 89.8807 150.868 84.2697C142.471 78.6588 132.598 75.6648 122.499 75.6667ZM122.499 101.188C115.731 101.188 109.24 103.876 104.453 108.662C99.6674 113.448 96.9786 119.94 96.9786 126.708C96.9786 133.477 99.6674 139.968 104.453 144.754C109.24 149.54 115.731 152.229 122.499 152.229C129.268 152.229 135.759 149.54 140.545 144.754C145.331 139.968 148.02 133.477 148.02 126.708C148.02 119.94 145.331 113.448 140.545 108.662C135.759 103.876 129.268 101.188 122.499 101.188ZM112.291 126.708C112.291 124.001 113.367 121.404 115.281 119.49C117.195 117.576 119.792 116.5 122.499 116.5C125.207 116.5 127.803 117.576 129.718 119.49C131.632 121.404 132.708 124.001 132.708 126.708C132.708 129.416 131.632 132.012 129.718 133.927C127.803 135.841 125.207 136.917 122.499 136.917C119.792 136.917 117.195 135.841 115.281 133.927C113.367 132.012 112.291 129.416 112.291 126.708Z" fill="#8135F9"/>
</svg>
