<svg width="38" height="126" viewBox="0 0 38 126" fill="none" xmlns="http://www.w3.org/2000/svg">
<path d="M6 1.5C3.5 1.5 1.5 3.5 1.5 6C1.5 8.5 3.5 10.5 6 10.5C8.5 10.5 10.5 8.5 10.5 6C10.5 3.5 8.5 1.5 6 1.5Z" fill="white"/>
<path d="M5.00947 112.874C4.38736 113.421 4.32651 114.368 4.87356 114.991L13.7883 125.128C14.3354 125.751 15.2832 125.811 15.9053 125.264C16.5274 124.717 16.5882 123.77 16.0412 123.147L8.11696 114.136L17.1284 106.212C17.7506 105.665 17.8114 104.717 17.2644 104.095C16.7173 103.473 15.7695 103.412 15.1474 103.959L5.00947 112.874ZM3 6C3 4.32843 4.32843 3 6 3V0C2.67157 0 0 2.67157 0 6H3ZM6 3C7.67157 3 9 4.32843 9 6H12C12 2.67157 9.32843 0 6 0V3ZM9 6C9 7.67157 7.67157 9 6 9V12C9.32843 12 12 9.32843 12 6H9ZM6 9C4.32843 9 3 7.67157 3 6H0C0 9.32843 2.67157 12 6 12V9ZM10.5 7.5C13.7467 7.5 16.8045 8.98831 19.6344 11.8157C22.4768 14.6556 25.0178 18.7833 27.1556 23.8489C31.4294 33.9755 33.9616 47.5391 34.2256 61.0709C34.4898 74.6158 32.4778 87.943 27.8229 97.6482C23.1893 107.309 16.0926 113.145 6.0961 112.503L5.9039 115.497C17.5411 116.244 25.5738 109.274 30.5278 98.9456C35.4605 88.6612 37.4943 74.8148 37.225 61.0124C36.9555 47.197 34.3751 33.2398 29.9196 22.6824C27.6927 17.4059 24.965 12.9008 21.7548 9.69343C18.532 6.4735 14.7533 4.5 10.5 4.5V7.5Z" fill="#6C6D79"/>
</svg>
