<svg width="38" height="116" viewBox="0 0 38 116" fill="none" xmlns="http://www.w3.org/2000/svg">
<path d="M6 1.5C3.5 1.5 1.5 3.5 1.5 6C1.5 8.5 3.5 10.5 6 10.5C8.5 10.5 10.5 8.5 10.5 6C10.5 3.5 8.5 1.5 6 1.5Z" fill="white"/>
<path d="M5.01684 102.867C4.39117 103.41 4.32414 104.357 4.86713 104.983L13.7156 115.179C14.2585 115.805 15.2059 115.872 15.8316 115.329C16.4573 114.786 16.5243 113.838 15.9813 113.213L8.11603 104.15L17.179 96.2844C17.8047 95.7414 17.8717 94.7941 17.3287 94.1684C16.7857 93.5427 15.8383 93.4757 15.2127 94.0187L5.01684 102.867ZM3 6C3 4.32843 4.32843 3 6 3V0C2.67157 0 0 2.67157 0 6H3ZM6 3C7.67157 3 9 4.32843 9 6H12C12 2.67157 9.32843 0 6 0V3ZM9 6C9 7.67157 7.67157 9 6 9V12C9.32843 12 12 9.32843 12 6H9ZM6 9C4.32843 9 3 7.67157 3 6H0C0 9.32843 2.67157 12 6 12V9ZM10.5 7.5C17.067 7.5 22.8657 13.063 27.1764 22.3732C31.4356 31.5721 33.9623 43.8963 34.2257 56.1801C34.4893 68.4775 32.4807 80.5401 27.85 89.2765C23.258 97.9398 16.1837 103.217 6.10586 102.504L5.89414 105.496C17.45 106.314 25.5051 100.106 30.5007 90.6814C35.4575 81.3298 37.4948 68.7011 37.225 56.1158C36.9549 43.5169 34.3689 30.7672 29.8988 21.1127C25.4802 11.5697 18.933 4.5 10.5 4.5V7.5Z" fill="#6C6D79"/>
</svg>
