<svg width="270" height="239" viewBox="0 0 270 239" fill="none" xmlns="http://www.w3.org/2000/svg">
<path d="M180 7.5C148.95 7.5 123.75 32.7 123.75 63.75C123.75 94.8 148.95 120 180 120C211.05 120 236.25 94.8 236.25 63.75C236.25 32.7 211.05 7.5 180 7.5ZM180 97.5C161.325 97.5 146.25 82.425 146.25 63.75C146.25 45.075 161.325 30 180 30C198.675 30 213.75 45.075 213.75 63.75C213.75 82.425 198.675 97.5 180 97.5ZM213.75 165H191.25C191.25 151.5 182.812 139.35 170.212 134.625L100.913 108.75H11.25V232.5H78.75V216.3L157.5 238.125L247.5 210V198.75C247.5 180.075 232.425 165 213.75 165ZM56.25 210H33.75V131.25H56.25V210ZM157.163 214.613L78.75 193.125V131.25H96.8625L162.338 155.663C166.163 157.125 168.75 160.837 168.75 165C168.75 165 146.25 164.438 142.875 163.312L116.1 154.425L109.012 175.8L135.787 184.688C141.525 186.6 147.488 187.5 153.562 187.5H213.75C218.137 187.5 222.075 190.2 223.875 193.912L157.163 214.613Z" fill="#8135F9"/>
</svg>
