<svg width="245" height="239" viewBox="0 0 245 239" fill="none" xmlns="http://www.w3.org/2000/svg">
<path d="M224.583 24.625H20.416V85.875H30.6243V198.167C30.6243 203.581 32.7754 208.775 36.6043 212.603C40.4331 216.432 45.6262 218.583 51.041 218.583H193.958C199.373 218.583 204.566 216.432 208.394 212.603C212.223 208.775 214.374 203.581 214.374 198.167V85.875H224.583V24.625ZM40.8327 45.0417H204.166V65.4583H40.8327V45.0417ZM193.958 198.167H51.041V85.875H193.958V198.167ZM91.8744 106.292H153.124C153.124 111.706 150.973 116.9 147.144 120.728C143.316 124.557 138.123 126.708 132.708 126.708H112.291C106.876 126.708 101.683 124.557 97.8543 120.728C94.0254 116.9 91.8744 111.706 91.8744 106.292Z" fill="#8135F9"/>
</svg>
