<svg width="239" height="239" viewBox="0 0 239 239" fill="none" xmlns="http://www.w3.org/2000/svg">
<g clip-path="url(#clip0_8825_43358)">
<path d="M79.6673 109.541C92.8729 109.541 105.538 104.295 114.875 94.9577C124.213 85.6199 129.459 72.9552 129.459 59.7497C129.459 46.5441 124.213 33.8794 114.875 24.5416C105.538 15.2039 92.8729 9.95801 79.6673 9.95801C66.4617 9.95801 53.797 15.2039 44.4593 24.5416C35.1215 33.8794 29.8757 46.5441 29.8757 59.7497C29.8757 72.9552 35.1215 85.6199 44.4593 94.9577C53.797 104.295 66.4617 109.541 79.6673 109.541ZM79.6673 109.541C99.7134 109.541 117.23 117.11 129.688 129.687C137.074 137.176 142.6 146.293 145.821 156.306M79.6673 109.541C39.834 109.541 9.95898 139.416 9.95898 179.25V229.041H109.542M119.501 187.455L161.226 219.083L229.042 129.458" stroke="#8135F9" stroke-width="21"/>
</g>
<defs>
<clipPath id="clip0_8825_43358">
<rect width="239" height="239" fill="white"/>
</clipPath>
</defs>
</svg>
