<svg width="127" height="37" viewBox="0 0 127 37" fill="none" xmlns="http://www.w3.org/2000/svg">
<path d="M125.797 32.2894C125.797 34.2346 124.187 35.8101 122.195 35.8101H4.30959C2.31867 35.8101 0.702637 34.2346 0.702637 32.2894V4.21282C0.702637 2.26861 2.31867 0.6875 4.30959 0.6875H122.194C124.187 0.6875 125.796 2.26861 125.796 4.21282L125.797 32.2894Z" fill="black"/>
<path d="M121.815 0.731143C123.984 0.731143 125.749 2.45007 125.749 4.5625V31.9375C125.749 34.0499 123.984 35.7689 121.815 35.7689H4.68518C2.51594 35.7689 0.750801 34.0499 0.750801 31.9375V4.5625C0.750801 2.45007 2.51594 0.731143 4.68518 0.731143H121.815ZM121.815 3.8147e-06H4.68518C2.1095 3.8147e-06 0 2.05427 0 4.5625V31.9375C0 34.4457 2.1095 36.5 4.68518 36.5H121.815C124.39 36.5 126.5 34.4457 126.5 31.9375V4.5625C126.5 2.05427 124.39 3.8147e-06 121.815 3.8147e-06Z" fill="#A6A6A6"/>
<path d="M28.2309 18.0518C28.2037 15.1108 30.7037 13.68 30.8181 13.6134C29.4022 11.6031 27.2076 11.3285 26.4365 11.3066C24.5933 11.1177 22.8054 12.3806 21.8665 12.3806C20.9089 12.3806 19.463 11.3248 17.9047 11.3558C15.8995 11.3859 14.0235 12.5165 12.9947 14.2722C10.8713 17.8519 12.4549 23.1125 14.4892 26.006C15.5069 27.4231 16.696 29.0054 18.2524 28.9497C19.7751 28.8886 20.3439 28.0044 22.1814 28.0044C24.002 28.0044 24.5362 28.9497 26.1235 28.9142C27.7577 28.8886 28.7866 27.4907 29.7686 26.0608C30.9445 24.4365 31.4168 22.8369 31.4356 22.7548C31.3971 22.742 28.2618 21.5767 28.2309 18.0518Z" fill="white"/>
<path d="M25.2324 9.40309C26.0513 8.40572 26.6117 7.04884 26.4561 5.67188C25.2708 5.72297 23.7884 6.47031 22.9348 7.44577C22.1795 8.30535 21.5048 9.71425 21.6791 11.0392C23.0107 11.1359 24.3778 10.3849 25.2324 9.40309Z" fill="white"/>
<path d="M45.9619 9.13233C45.9619 10.2063 45.6311 11.0148 44.9705 11.5578C44.3586 12.0587 43.4891 12.3097 42.3627 12.3097C41.8043 12.3097 41.3264 12.2859 40.9263 12.2385V6.37019C41.4482 6.28807 42.0104 6.24609 42.6176 6.24609C43.6905 6.24609 44.4992 6.47331 45.0446 6.92773C45.6555 7.44147 45.9619 8.17603 45.9619 9.13233ZM44.9265 9.15879C44.9265 8.46256 44.7372 7.92874 44.3586 7.55644C43.9801 7.18506 43.4272 6.99891 42.6991 6.99891C42.3899 6.99891 42.1266 7.01898 41.9083 7.06096V11.5222C42.0292 11.5404 42.2503 11.5486 42.5717 11.5486C43.3232 11.5486 43.9032 11.3451 44.3118 10.9382C44.7203 10.5312 44.9265 9.93807 44.9265 9.15879Z" fill="white"/>
<path d="M51.4518 10.07C51.4518 10.7315 51.2578 11.2735 50.8699 11.6988C50.4632 12.1359 49.9244 12.3539 49.2516 12.3539C48.6032 12.3539 48.0869 12.145 47.7018 11.7252C47.3176 11.3064 47.1255 10.7781 47.1255 10.1411C47.1255 9.47501 47.3232 8.92842 47.7205 8.50411C48.1178 8.0798 48.6519 7.86719 49.3247 7.86719C49.9731 7.86719 50.4941 8.07615 50.8886 8.49499C51.2634 8.90196 51.4518 9.42756 51.4518 10.07ZM50.4332 10.101C50.4332 9.70405 50.3452 9.36369 50.1699 9.0799C49.9638 8.7368 49.6705 8.56525 49.2891 8.56525C48.8946 8.56525 48.5948 8.7368 48.3886 9.0799C48.2125 9.36369 48.1253 9.70952 48.1253 10.1183C48.1253 10.5153 48.2134 10.8556 48.3886 11.1394C48.6013 11.4825 48.8974 11.6541 49.2797 11.6541C49.6546 11.6541 49.9488 11.4798 50.1606 11.1303C50.3423 10.841 50.4332 10.4979 50.4332 10.101Z" fill="white"/>
<path d="M58.8135 7.95312L57.4314 12.2546H56.5319L55.9593 10.3868C55.8141 9.92047 55.696 9.45692 55.6042 8.99703H55.5864C55.5011 9.4697 55.383 9.93234 55.2312 10.3868L54.6231 12.2546H53.7132L52.4136 7.95312H53.4228L53.9222 9.99804C54.0431 10.4817 54.1424 10.9425 54.2221 11.3786H54.2399C54.3129 11.0191 54.4338 10.5611 54.6044 10.0072L55.2312 7.95404H56.0315L56.6321 9.96336C56.7774 10.4534 56.8954 10.9251 56.9863 11.3796H57.0135C57.08 10.937 57.1803 10.4652 57.3133 9.96336L57.8493 7.95404H58.8135V7.95312Z" fill="white"/>
<path d="M63.9041 12.2551H62.922V9.79139C62.922 9.03219 62.6259 8.65259 62.0319 8.65259C61.7404 8.65259 61.5052 8.75662 61.3225 8.96558C61.1417 9.17454 61.0498 9.42092 61.0498 9.70288V12.2542H60.0678V9.18276C60.0678 8.80498 60.0557 8.39527 60.0322 7.95179H60.8952L60.9412 8.62431H60.9683C61.0826 8.41534 61.2532 8.24288 61.4771 8.10509C61.7433 7.94449 62.0412 7.86328 62.3673 7.86328C62.7796 7.86328 63.1226 7.99286 63.3952 8.25292C63.7344 8.57138 63.9041 9.04679 63.9041 9.67824V12.2551V12.2551Z" fill="white"/>
<path d="M66.6124 12.2557H65.6313V5.98047H66.6124V12.2557Z" fill="white"/>
<path d="M72.3937 10.07C72.3937 10.7315 72.1997 11.2735 71.8118 11.6988C71.4051 12.1359 70.8654 12.3539 70.1935 12.3539C69.5442 12.3539 69.0278 12.145 68.6437 11.7252C68.2595 11.3064 68.0674 10.7781 68.0674 10.1411C68.0674 9.47501 68.2651 8.92842 68.6624 8.50411C69.0597 8.0798 69.5938 7.86719 70.2657 7.86719C70.915 7.86719 71.4351 8.07615 71.8305 8.49499C72.2053 8.90196 72.3937 9.42756 72.3937 10.07ZM71.3742 10.101C71.3742 9.70405 71.2861 9.36369 71.1109 9.0799C70.9057 8.7368 70.6114 8.56525 70.231 8.56525C69.8356 8.56525 69.5357 8.7368 69.3305 9.0799C69.1543 9.36369 69.0672 9.70952 69.0672 10.1183C69.0672 10.5153 69.1553 10.8556 69.3305 11.1394C69.5432 11.4825 69.8393 11.6541 70.2216 11.6541C70.5965 11.6541 70.8897 11.4798 71.1015 11.1303C71.2842 10.841 71.3742 10.4979 71.3742 10.101Z" fill="white"/>
<path d="M77.1463 12.2563H76.2646L76.1915 11.7608H76.1643C75.8626 12.1559 75.4325 12.3539 74.874 12.3539C74.4571 12.3539 74.1197 12.2235 73.8658 11.9643C73.6353 11.7289 73.52 11.436 73.52 11.0883C73.52 10.5627 73.7449 10.1621 74.1975 9.88472C74.6491 9.60732 75.2845 9.47136 76.1025 9.47775V9.39745C76.1025 8.83079 75.797 8.54791 75.1851 8.54791C74.7494 8.54791 74.3652 8.65468 74.0335 8.86637L73.8339 8.23857C74.2443 7.99129 74.7513 7.86719 75.3491 7.86719C76.5035 7.86719 77.0826 8.46031 77.0826 9.64656V11.2307C77.0826 11.6604 77.1042 12.0026 77.1463 12.2563ZM76.1268 10.7781V10.1147C75.0436 10.0964 74.502 10.3857 74.502 10.9815C74.502 11.206 74.5639 11.3739 74.6904 11.4862C74.8169 11.5984 74.978 11.6541 75.1701 11.6541C75.3857 11.6541 75.5871 11.5874 75.7708 11.4551C75.9554 11.3219 76.0688 11.1531 76.1109 10.946C76.1212 10.8994 76.1268 10.8428 76.1268 10.7781Z" fill="white"/>
<path d="M82.7264 12.2557H81.855L81.8091 11.565H81.7819C81.5036 12.0906 81.0295 12.3534 80.3632 12.3534C79.831 12.3534 79.3878 12.1499 79.0364 11.7429C78.685 11.3359 78.5098 10.8076 78.5098 10.1588C78.5098 9.46257 78.7 8.89864 79.0823 8.46794C79.4524 8.06644 79.9059 7.86569 80.4457 7.86569C81.0388 7.86569 81.4539 8.06006 81.6901 8.44969H81.7088V5.98047H82.6918V11.0969C82.6918 11.5157 82.703 11.9017 82.7264 12.2557ZM81.7088 10.4417V9.72446C81.7088 9.60036 81.6994 9.49998 81.6816 9.42333C81.6263 9.19338 81.5073 8.99993 81.3265 8.84389C81.1438 8.68786 80.9236 8.60938 80.6696 8.60938C80.3032 8.60938 80.0165 8.75082 79.8057 9.03461C79.5967 9.31839 79.4908 9.68066 79.4908 10.1232C79.4908 10.5484 79.5911 10.8934 79.7926 11.1589C80.0053 11.4418 80.292 11.5832 80.6509 11.5832C80.9732 11.5832 81.2309 11.4655 81.4268 11.2292C81.616 11.0111 81.7088 10.7483 81.7088 10.4417Z" fill="white"/>
<path d="M91.1251 10.07C91.1251 10.7315 90.9312 11.2735 90.5432 11.6988C90.1365 12.1359 89.5987 12.3539 88.925 12.3539C88.2775 12.3539 87.7612 12.145 87.3751 11.7252C86.9909 11.3064 86.7988 10.7781 86.7988 10.1411C86.7988 9.47501 86.9965 8.92842 87.3938 8.50411C87.7912 8.0798 88.3253 7.86719 88.999 7.86719C89.6465 7.86719 90.1684 8.07615 90.562 8.49499C90.9368 8.90196 91.1251 9.42756 91.1251 10.07ZM90.1075 10.101C90.1075 9.70405 90.0194 9.36369 89.8442 9.0799C89.6371 8.7368 89.3448 8.56525 88.9624 8.56525C88.5689 8.56525 88.269 8.7368 88.062 9.0799C87.8858 9.36369 87.7986 9.70952 87.7986 10.1183C87.7986 10.5153 87.8867 10.8556 88.062 11.1394C88.2747 11.4825 88.5708 11.6541 88.9531 11.6541C89.3279 11.6541 89.6231 11.4798 89.8348 11.1303C90.0157 10.841 90.1075 10.4979 90.1075 10.101Z" fill="white"/>
<path d="M96.4056 12.2551H95.4245V9.79139C95.4245 9.03219 95.1284 8.65259 94.5334 8.65259C94.2419 8.65259 94.0067 8.75662 93.825 8.96558C93.6432 9.17454 93.5523 9.42092 93.5523 9.70288V12.2542H92.5693V9.18276C92.5693 8.80498 92.5581 8.39527 92.5347 7.95179H93.3967L93.4427 8.62431H93.4698C93.5851 8.41534 93.7556 8.24288 93.9786 8.10509C94.2457 7.94449 94.5427 7.86328 94.8698 7.86328C95.2811 7.86328 95.6241 7.99286 95.8967 8.25292C96.2369 8.57138 96.4056 9.04679 96.4056 9.67824V12.2551V12.2551Z" fill="white"/>
<path d="M103.014 8.6704H101.933V10.76C101.933 11.2911 102.125 11.5566 102.506 11.5566C102.682 11.5566 102.828 11.542 102.943 11.5119L102.969 12.2374C102.775 12.3085 102.52 12.3441 102.206 12.3441C101.818 12.3441 101.516 12.2292 101.298 11.9992C101.079 11.7693 100.97 11.3823 100.97 10.8394V8.6704H100.324V7.95409H100.97V7.16569L101.932 6.88281V7.95318H103.014V8.6704H103.014Z" fill="white"/>
<path d="M108.213 12.2557H107.23V9.81023C107.23 9.03917 106.934 8.65318 106.341 8.65318C105.886 8.65318 105.574 8.87674 105.404 9.32387C105.375 9.41786 105.358 9.53283 105.358 9.66788V12.2548H104.377V5.98047H105.358V8.57288H105.377C105.686 8.10112 106.129 7.86569 106.704 7.86569C107.11 7.86569 107.447 7.99527 107.714 8.25533C108.046 8.57927 108.213 9.06107 108.213 9.69799V12.2557V12.2557Z" fill="white"/>
<path d="M113.576 9.90246C113.576 10.074 113.562 10.2182 113.539 10.3359H110.594C110.607 10.7611 110.748 11.0851 111.02 11.3095C111.27 11.5103 111.591 11.6107 111.984 11.6107C112.42 11.6107 112.817 11.5431 113.175 11.4072L113.329 12.0715C112.91 12.2485 112.417 12.337 111.847 12.337C111.163 12.337 110.624 12.1408 110.234 11.7485C109.842 11.3561 109.648 10.8296 109.648 10.1689C109.648 9.52013 109.829 8.97992 110.194 8.54922C110.574 8.08932 111.089 7.85938 111.738 7.85938C112.373 7.85938 112.856 8.08932 113.182 8.54922C113.445 8.91422 113.576 9.36591 113.576 9.90246ZM112.639 9.65517C112.646 9.37139 112.581 9.12684 112.448 8.92061C112.278 8.65508 112.018 8.52185 111.667 8.52185C111.346 8.52185 111.085 8.65142 110.885 8.91149C110.722 9.11862 110.626 9.36591 110.594 9.65517H112.639Z" fill="white"/>
<path d="M50.2674 28.749H48.1393L46.9737 25.1821H42.9219L41.8115 28.749H39.7397L43.754 16.6055H46.2334L50.2674 28.749ZM46.6223 23.6856L45.5681 20.5146C45.4566 20.1907 45.2476 19.4278 44.9394 18.227H44.9019C44.7791 18.7435 44.5814 19.5063 44.3097 20.5146L43.2742 23.6856H46.6223V23.6856Z" fill="white"/>
<path d="M60.5908 24.2628C60.5908 25.752 60.1776 26.9291 59.3511 27.7932C58.6108 28.5625 57.6916 28.9466 56.5943 28.9466C55.4099 28.9466 54.5591 28.5323 54.0409 27.7038H54.0034V32.3165H52.0057V22.8748C52.0057 21.9386 51.9804 20.9778 51.9316 19.9923H53.6886L53.8001 21.3802H53.8376C54.5038 20.3345 55.5149 19.8125 56.8717 19.8125C57.9324 19.8125 58.8179 20.2204 59.5263 21.0371C60.2366 21.8547 60.5908 22.9296 60.5908 24.2628ZM58.5556 24.3339C58.5556 23.4817 58.3588 22.779 57.9633 22.2261C57.5314 21.6494 56.9513 21.361 56.2242 21.361C55.7313 21.361 55.2834 21.5216 54.8833 21.8382C54.4823 22.1576 54.2199 22.5746 54.0971 23.0911C54.0353 23.332 54.0044 23.5291 54.0044 23.6842V25.1442C54.0044 25.7812 54.2049 26.3186 54.6059 26.7575C55.007 27.1964 55.528 27.4154 56.1689 27.4154C56.9214 27.4154 57.507 27.1326 57.9259 26.5686C58.3457 26.0038 58.5556 25.2592 58.5556 24.3339Z" fill="white"/>
<path d="M70.9326 24.2628C70.9326 25.752 70.5194 26.9291 69.692 27.7932C68.9527 28.5625 68.0334 28.9466 66.9362 28.9466C65.7518 28.9466 64.9009 28.5323 64.3837 27.7038H64.3462V32.3165H62.3484V22.8748C62.3484 21.9386 62.3231 20.9778 62.2744 19.9923H64.0314L64.1429 21.3802H64.1803C64.8456 20.3345 65.8567 19.8125 67.2145 19.8125C68.2743 19.8125 69.1598 20.2204 69.87 21.0371C70.5775 21.8547 70.9326 22.9296 70.9326 24.2628ZM68.8974 24.3339C68.8974 23.4817 68.6997 22.779 68.3042 22.2261C67.8723 21.6494 67.2941 21.361 66.566 21.361C66.0722 21.361 65.6253 21.5216 65.2242 21.8382C64.8232 22.1576 64.5617 22.5746 64.439 23.0911C64.3781 23.332 64.3462 23.5291 64.3462 23.6842V25.1442C64.3462 25.7812 64.5467 26.3186 64.9459 26.7575C65.347 27.1955 65.868 27.4154 66.5108 27.4154C67.2632 27.4154 67.8489 27.1326 68.2677 26.5686C68.6875 26.0038 68.8974 25.2592 68.8974 24.3339Z" fill="white"/>
<path d="M82.4959 25.3418C82.4959 26.3748 82.1277 27.2152 81.3884 27.864C80.576 28.573 79.445 28.927 77.9916 28.927C76.6498 28.927 75.5741 28.6752 74.7598 28.1706L75.2227 26.5491C76.0997 27.0655 77.0621 27.3247 78.1106 27.3247C78.8631 27.3247 79.4487 27.1586 79.8694 26.8283C80.2883 26.498 80.4972 26.0545 80.4972 25.5015C80.4972 25.0088 80.3248 24.5936 79.9791 24.2569C79.6352 23.9201 79.0608 23.6072 78.2587 23.3179C76.0754 22.5249 74.9847 21.3633 74.9847 19.8358C74.9847 18.8375 75.367 18.019 76.1325 17.3821C76.8953 16.7442 77.9129 16.4258 79.1854 16.4258C80.3201 16.4258 81.2628 16.6183 82.0152 17.0025L81.5158 18.5884C80.813 18.2161 80.0184 18.03 79.1292 18.03C78.4264 18.03 77.8773 18.1988 77.4837 18.5346C77.1511 18.8348 76.9843 19.2007 76.9843 19.6341C76.9843 20.1141 77.1745 20.511 77.5568 20.8231C77.8895 21.1115 78.4939 21.4235 79.3709 21.7603C80.4438 22.1809 81.2319 22.6728 81.7388 23.2367C82.2439 23.7988 82.4959 24.5023 82.4959 25.3418Z" fill="white"/>
<path d="M89.101 21.4504H86.899V25.7017C86.899 26.783 87.2869 27.3232 88.0647 27.3232C88.4217 27.3232 88.7178 27.2931 88.9521 27.2329L89.0073 28.7102C88.6138 28.8535 88.0956 28.9256 87.4537 28.9256C86.6647 28.9256 86.0482 28.6911 85.6031 28.223C85.1599 27.7539 84.9368 26.9674 84.9368 25.8623V21.4486H83.625V19.9886H84.9368V18.3853L86.899 17.8086V19.9886H89.101V21.4504Z" fill="white"/>
<path d="M99.0362 24.2974C99.0362 25.6434 98.6408 26.7484 97.8518 27.6125C97.0244 28.5022 95.9262 28.9457 94.5572 28.9457C93.2378 28.9457 92.1874 28.5196 91.404 27.6673C90.6207 26.815 90.229 25.7392 90.229 24.4425C90.229 23.0856 90.6319 21.9742 91.4406 21.1101C92.2474 20.245 93.3362 19.8125 94.7052 19.8125C96.0246 19.8125 97.0862 20.2386 97.8874 21.0918C98.6539 21.9195 99.0362 22.988 99.0362 24.2974ZM96.9635 24.3604C96.9635 23.5528 96.7864 22.8602 96.4275 22.2826C96.0086 21.5837 95.4099 21.2351 94.634 21.2351C93.831 21.2351 93.221 21.5846 92.8021 22.2826C92.4432 22.8612 92.2661 23.5647 92.2661 24.3969C92.2661 25.2045 92.4432 25.897 92.8021 26.4737C93.2341 27.1727 93.8375 27.5213 94.6162 27.5213C95.379 27.5213 95.9777 27.1654 96.4097 26.4555C96.778 25.8669 96.9635 25.167 96.9635 24.3604Z" fill="white"/>
<path d="M105.53 21.7032C105.332 21.6676 105.121 21.6494 104.9 21.6494C104.198 21.6494 103.654 21.9076 103.272 22.425C102.939 22.8812 102.772 23.4579 102.772 24.1542V28.7486H100.775L100.794 22.7498C100.794 21.7406 100.769 20.8217 100.719 19.9932H102.459L102.532 21.6685H102.588C102.799 21.0927 103.131 20.6292 103.587 20.2815C104.032 19.9685 104.512 19.8125 105.031 19.8125C105.215 19.8125 105.382 19.8253 105.53 19.8481V21.7032Z" fill="white"/>
<path d="M114.465 23.9531C114.465 24.3016 114.441 24.5955 114.392 24.8354H108.398C108.422 25.7005 108.711 26.3621 109.268 26.8183C109.773 27.2262 110.426 27.4306 111.228 27.4306C112.116 27.4306 112.925 27.2928 113.653 27.0163L113.966 28.3668C113.115 28.7282 112.111 28.9079 110.952 28.9079C109.557 28.9079 108.463 28.5083 107.666 27.7098C106.872 26.9114 106.474 25.8392 106.474 24.4942C106.474 23.1738 106.844 22.0742 107.585 21.1973C108.361 20.2611 109.409 19.793 110.729 19.793C112.025 19.793 113.006 20.2611 113.672 21.1973C114.199 21.941 114.465 22.8608 114.465 23.9531ZM112.56 23.4484C112.573 22.8717 112.443 22.3735 112.172 21.9529C111.826 21.4117 111.295 21.1416 110.58 21.1416C109.927 21.1416 109.395 21.4054 108.99 21.9346C108.657 22.3553 108.459 22.8599 108.398 23.4475H112.56V23.4484Z" fill="white"/>
</svg>
