<svg width="232" height="231" viewBox="0 0 232 231" fill="none" xmlns="http://www.w3.org/2000/svg">
<path d="M135.317 50.7959L180.671 96.1501M51.0879 135.025L96.4421 180.379M96.4421 50.7959L51.0879 96.1501M180.671 135.025L135.317 180.379" stroke="#8135F9" stroke-width="10" stroke-linecap="round"/>
<path d="M115.88 57.2747C130.193 57.2747 141.796 45.6715 141.796 31.3581C141.796 17.0447 130.193 5.44141 115.88 5.44141C101.566 5.44141 89.9629 17.0447 89.9629 31.3581C89.9629 45.6715 101.566 57.2747 115.88 57.2747Z" stroke="#8135F9" stroke-width="10"/>
<path d="M115.88 225.733C130.193 225.733 141.796 214.129 141.796 199.816C141.796 185.503 130.193 173.899 115.88 173.899C101.566 173.899 89.9629 185.503 89.9629 199.816C89.9629 214.129 101.566 225.733 115.88 225.733Z" stroke="#8135F9" stroke-width="10"/>
<path d="M31.651 141.504C45.9644 141.504 57.5677 129.901 57.5677 115.588C57.5677 101.274 45.9644 89.6709 31.651 89.6709C17.3377 89.6709 5.73438 101.274 5.73438 115.588C5.73438 129.901 17.3377 141.504 31.651 141.504Z" stroke="#8135F9" stroke-width="10"/>
<path d="M200.11 141.504C214.423 141.504 226.027 129.901 226.027 115.588C226.027 101.274 214.423 89.6709 200.11 89.6709C185.797 89.6709 174.193 101.274 174.193 115.588C174.193 129.901 185.797 141.504 200.11 141.504Z" stroke="#8135F9" stroke-width="10"/>
<path d="M31.651 122.067C35.2294 122.067 38.1302 119.166 38.1302 115.588C38.1302 112.009 35.2294 109.108 31.651 109.108C28.0727 109.108 25.1719 112.009 25.1719 115.588C25.1719 119.166 28.0727 122.067 31.651 122.067Z" stroke="#8135F9" stroke-width="10"/>
<path d="M115.88 206.295C119.458 206.295 122.359 203.394 122.359 199.816C122.359 196.238 119.458 193.337 115.88 193.337C112.301 193.337 109.4 196.238 109.4 199.816C109.4 203.394 112.301 206.295 115.88 206.295Z" stroke="#8135F9" stroke-width="10"/>
</svg>
