<svg width="127" height="37" viewBox="0 0 127 37" fill="none" xmlns="http://www.w3.org/2000/svg">
<path d="M122.315 36.5H5.18518C2.6095 36.5 0.5 34.4457 0.5 31.9375V4.5625C0.5 2.05426 2.6095 -9.53674e-07 5.18518 -9.53674e-07H122.315C124.89 -9.53674e-07 127 2.05426 127 4.5625V31.9375C127 34.4457 124.89 36.5 122.315 36.5Z" fill="black"/>
<path d="M122.315 0.731138C124.484 0.731138 126.249 2.45006 126.249 4.5625V31.9375C126.249 34.0499 124.484 35.7689 122.315 35.7689H5.18518C3.01594 35.7689 1.2508 34.0499 1.2508 31.9375V4.5625C1.2508 2.45006 3.01594 0.731138 5.18518 0.731138H122.315ZM122.315 -9.53674e-07H5.18518C2.6095 -9.53674e-07 0.5 2.05426 0.5 4.5625V31.9375C0.5 34.4457 2.6095 36.5 5.18518 36.5H122.315C124.89 36.5 127 34.4457 127 31.9375V4.5625C127 2.05426 124.89 -9.53674e-07 122.315 -9.53674e-07Z" fill="#A6A6A6"/>
<path d="M10.2778 6.87956C10.0026 7.16015 9.84326 7.59701 9.84326 8.16276V28.3427C9.84326 28.9085 10.0026 29.3453 10.2778 29.6259L10.3457 29.6875L21.958 18.3839V18.117L10.3457 6.8134L10.2778 6.87956Z" fill="url(#paint0_linear_7309_7745)"/>
<path d="M25.8245 22.1562L21.958 18.3865V18.1196L25.8291 14.3498L25.9158 14.3989L30.5003 16.939C31.8086 17.6599 31.8086 18.8462 30.5003 19.5716L25.9158 22.1072L25.8245 22.1562V22.1562Z" fill="url(#paint1_linear_7309_7745)"/>
<path d="M25.9158 22.1054L21.958 18.2512L10.2778 29.6266C10.7124 30.0715 11.421 30.1251 12.2269 29.6802L25.9158 22.1054" fill="url(#paint2_linear_7309_7745)"/>
<path d="M25.9158 14.3958L12.2269 6.82094C11.421 6.38066 10.7124 6.43427 10.2778 6.87911L21.958 18.25L25.9158 14.3958Z" fill="url(#paint3_linear_7309_7745)"/>
<path d="M44.9322 9.34483C44.9322 10.1068 44.6979 10.717 44.2364 11.1721C43.7058 11.7116 43.0147 11.9831 42.1679 11.9831C41.3585 11.9831 40.6675 11.7071 40.1006 11.163C39.5325 10.6109 39.249 9.93339 39.249 9.12241C39.249 8.31142 39.5325 7.63389 40.1006 7.08639C40.6675 6.53775 41.3585 6.26172 42.1679 6.26172C42.5708 6.26172 42.955 6.3427 43.3216 6.49327C43.6871 6.64497 43.9846 6.85028 44.2001 7.1035L43.7105 7.58484C43.3345 7.15255 42.8227 6.93925 42.1679 6.93925C41.5776 6.93925 41.0657 7.14 40.6312 7.54492C40.2013 7.95098 39.9858 8.47681 39.9858 9.12241C39.9858 9.768 40.2013 10.2984 40.6312 10.7045C41.0657 11.1048 41.5776 11.3101 42.1679 11.3101C42.7945 11.3101 43.3216 11.1048 43.7374 10.6999C44.0115 10.4318 44.1673 10.0623 44.2083 9.59006H42.1679V8.93078H44.89C44.9228 9.07336 44.9322 9.21137 44.9322 9.34483V9.34483Z" fill="white" stroke="white" stroke-width="0.16" stroke-miterlimit="10"/>
<path d="M49.2505 7.05855H46.6936V8.7923H48.9987V9.45158H46.6936V11.1853H49.2505V11.8572H45.9697V6.38672H49.2505V7.05855Z" fill="white" stroke="white" stroke-width="0.16" stroke-miterlimit="10"/>
<path d="M52.2986 11.8572H51.5747V7.05855H50.0063V6.38672H53.8681V7.05855H52.2986V11.8572V11.8572Z" fill="white" stroke="white" stroke-width="0.16" stroke-miterlimit="10"/>
<path d="M56.6626 11.8572V6.38672H57.3853V11.8572H56.6626Z" fill="white" stroke="white" stroke-width="0.16" stroke-miterlimit="10"/>
<path d="M60.5886 11.8572H59.8706V7.05855H58.2964V6.38672H62.1628V7.05855H60.5886V11.8572Z" fill="white" stroke="white" stroke-width="0.16" stroke-miterlimit="10"/>
<path d="M69.4745 11.1539C68.9205 11.7071 68.2341 11.9831 67.4154 11.9831C66.5919 11.9831 65.9056 11.7071 65.3515 11.1539C64.7987 10.6018 64.5234 9.92427 64.5234 9.12241C64.5234 8.32055 64.7987 7.64302 65.3515 7.09095C65.9056 6.53775 66.5919 6.26172 67.4154 6.26172C68.2294 6.26172 68.9158 6.53775 69.4698 7.09552C70.0274 7.65214 70.3026 8.32511 70.3026 9.12241C70.3026 9.92427 70.0274 10.6018 69.4745 11.1539ZM65.8868 10.6953C66.3038 11.1048 66.811 11.3101 67.4154 11.3101C68.0151 11.3101 68.5269 11.1048 68.9392 10.6953C69.355 10.2858 69.5659 9.76002 69.5659 9.12241C69.5659 8.4848 69.355 7.95897 68.9392 7.54948C68.5269 7.14 68.0151 6.93469 67.4154 6.93469C66.811 6.93469 66.3038 7.14 65.8868 7.54948C65.471 7.95897 65.2602 8.4848 65.2602 9.12241C65.2602 9.76002 65.471 10.2858 65.8868 10.6953V10.6953Z" fill="white" stroke="white" stroke-width="0.16" stroke-miterlimit="10"/>
<path d="M71.3179 11.8572V6.38672H72.1963L74.9278 10.6412H74.9594L74.9278 9.58959V6.38672H75.6505V11.8572H74.8962L72.0359 7.39275H72.0042L72.0359 8.44897V11.8572H71.3179V11.8572Z" fill="white" stroke="white" stroke-width="0.16" stroke-miterlimit="10"/>
<path d="M64.3451 19.8511C62.1442 19.8511 60.3463 21.4822 60.3463 23.7326C60.3463 25.9648 62.1442 27.613 64.3451 27.613C66.5506 27.613 68.3486 25.9648 68.3486 23.7326C68.3486 21.4822 66.5506 19.8511 64.3451 19.8511ZM64.3451 26.0846C63.1375 26.0846 62.0985 25.1139 62.0985 23.7326C62.0985 22.3331 63.1375 21.3795 64.3451 21.3795C65.5527 21.3795 66.5963 22.3331 66.5963 23.7326C66.5963 25.1139 65.5527 26.0846 64.3451 26.0846V26.0846ZM55.6201 19.8511C53.4145 19.8511 51.6213 21.4822 51.6213 23.7326C51.6213 25.9648 53.4145 27.613 55.6201 27.613C57.8245 27.613 59.6189 25.9648 59.6189 23.7326C59.6189 21.4822 57.8245 19.8511 55.6201 19.8511ZM55.6201 26.0846C54.4113 26.0846 53.3689 25.1139 53.3689 23.7326C53.3689 22.3331 54.4113 21.3795 55.6201 21.3795C56.8277 21.3795 57.8666 22.3331 57.8666 23.7326C57.8666 25.1139 56.8277 26.0846 55.6201 26.0846ZM45.2377 21.0408V22.6901H49.2822C49.1639 23.6117 48.8476 24.2893 48.3627 24.7615C47.7724 25.3318 46.8529 25.9648 45.2377 25.9648C42.7487 25.9648 40.7997 24.0087 40.7997 21.5848C40.7997 19.161 42.7487 17.2048 45.2377 17.2048C46.5835 17.2048 47.5627 17.717 48.2854 18.3808L49.479 17.2185C48.4681 16.2787 47.1235 15.5566 45.2377 15.5566C41.8246 15.5566 38.9561 18.2611 38.9561 21.5848C38.9561 24.9086 41.8246 27.613 45.2377 27.613C47.0825 27.613 48.4681 27.0245 49.5575 25.9204C50.6737 24.8333 51.0216 23.3049 51.0216 22.0708C51.0216 21.6875 50.9888 21.335 50.9302 21.0408H45.2377ZM87.6925 22.3194C87.3634 21.4514 86.3479 19.8511 84.2793 19.8511C82.2296 19.8511 80.523 21.424 80.523 23.7326C80.523 25.9067 82.212 27.613 84.4761 27.613C86.3069 27.613 87.3634 26.526 87.7979 25.893L86.4392 25.0113C85.9859 25.6569 85.3687 26.0846 84.4761 26.0846C83.5895 26.0846 82.9534 25.6888 82.5458 24.9086L87.8764 22.7608L87.6925 22.3194V22.3194ZM82.2577 23.6117C82.212 22.1152 83.4512 21.3487 84.3391 21.3487C85.0348 21.3487 85.6252 21.6875 85.8219 22.1723L82.2577 23.6117V23.6117ZM77.9251 27.3769H79.6773V15.9707H77.9251V27.3769ZM75.0554 20.7157H74.9968C74.6033 20.2617 73.8525 19.8511 72.9014 19.8511C70.9055 19.8511 69.0806 21.5575 69.0806 23.7452C69.0806 25.9204 70.9055 27.613 72.9014 27.613C73.8525 27.613 74.6033 27.199 74.9968 26.7313H75.0554V27.288C75.0554 28.7719 74.2413 29.5692 72.9283 29.5692C71.8578 29.5692 71.1936 28.8164 70.9195 28.1834L69.3957 28.8027C69.8349 29.8316 70.998 31.0977 72.9283 31.0977C74.9828 31.0977 76.7163 29.9205 76.7163 27.0564V20.0872H75.0554V20.7157V20.7157ZM73.0513 26.0846C71.8437 26.0846 70.8329 25.1003 70.8329 23.7452C70.8329 22.3776 71.8437 21.3795 73.0513 21.3795C74.2413 21.3795 75.1796 22.3776 75.1796 23.7452C75.1796 25.1003 74.2413 26.0846 73.0513 26.0846V26.0846ZM95.8963 15.9707H91.7054V27.3769H93.4529V23.0551H95.8963C97.8371 23.0551 99.7404 21.6875 99.7404 19.5123C99.7404 17.3383 97.8324 15.9707 95.8963 15.9707V15.9707ZM95.9419 21.4685H93.4529V17.5573H95.9419C97.2468 17.5573 97.9917 18.6124 97.9917 19.5123C97.9917 20.3952 97.2468 21.4685 95.9419 21.4685ZM106.745 19.8294C105.482 19.8294 104.169 20.3724 103.629 21.5757L105.18 22.2088C105.514 21.5757 106.128 21.3704 106.776 21.3704C107.683 21.3704 108.602 21.9008 108.617 22.8373V22.957C108.3 22.7791 107.623 22.5156 106.79 22.5156C105.12 22.5156 103.418 23.411 103.418 25.082C103.418 26.6104 104.786 27.5948 106.324 27.5948C107.5 27.5948 108.149 27.0781 108.557 26.477H108.617V27.3587H110.304V22.9833C110.304 20.9609 108.754 19.8294 106.745 19.8294ZM106.534 26.08C105.962 26.08 105.166 25.804 105.166 25.1139C105.166 24.2311 106.159 23.8923 107.019 23.8923C107.788 23.8923 108.149 24.0577 108.617 24.2756C108.479 25.3318 107.546 26.08 106.534 26.08V26.08ZM116.454 20.0792L114.445 25.0238H114.385L112.308 20.0792H110.424L113.544 26.9891L111.764 30.8342H113.59L118.398 20.0792H116.454V20.0792ZM100.701 27.3769H102.453V15.9707H100.701V27.3769Z" fill="white"/>
<defs>
<linearGradient id="paint0_linear_7309_7745" x1="20.9269" y1="28.5529" x2="5.6184" y2="12.8327" gradientUnits="userSpaceOnUse">
<stop stop-color="#00A0FF"/>
<stop offset="0.0066" stop-color="#00A1FF"/>
<stop offset="0.2601" stop-color="#00BEFF"/>
<stop offset="0.5122" stop-color="#00D2FF"/>
<stop offset="0.7604" stop-color="#00DFFF"/>
<stop offset="1" stop-color="#00E3FF"/>
</linearGradient>
<linearGradient id="paint1_linear_7309_7745" x1="32.2039" y1="18.2518" x2="9.53056" y2="18.2518" gradientUnits="userSpaceOnUse">
<stop stop-color="#FFE000"/>
<stop offset="0.4087" stop-color="#FFBD00"/>
<stop offset="0.7754" stop-color="#FFA500"/>
<stop offset="1" stop-color="#FF9C00"/>
</linearGradient>
<linearGradient id="paint2_linear_7309_7745" x1="23.7637" y1="16.156" x2="3.00403" y2="-5.16187" gradientUnits="userSpaceOnUse">
<stop stop-color="#FF3A44"/>
<stop offset="1" stop-color="#C31162"/>
</linearGradient>
<linearGradient id="paint3_linear_7309_7745" x1="7.33769" y1="36.3392" x2="16.6078" y2="26.8199" gradientUnits="userSpaceOnUse">
<stop stop-color="#32A071"/>
<stop offset="0.0685" stop-color="#2DA771"/>
<stop offset="0.4762" stop-color="#15CF74"/>
<stop offset="0.8009" stop-color="#06E775"/>
<stop offset="1" stop-color="#00F076"/>
</linearGradient>
</defs>
</svg>
