<svg width="207" height="233" viewBox="0 0 207 233" fill="none" xmlns="http://www.w3.org/2000/svg">
<path fill-rule="evenodd" clip-rule="evenodd" d="M178.135 230.469C176.51 232.094 174.306 233.007 172.008 233.007C169.71 233.007 167.506 232.094 165.881 230.469L74.8805 139.469C74.335 138.933 73.8629 138.327 73.4765 137.667H50.6659C48.8663 137.665 47.1117 137.104 45.6457 136.06C44.1796 135.017 43.0748 133.543 42.4845 131.843L0.884523 12.2427C0.257056 10.425 0.251938 8.4502 0.869977 6.62926C1.48801 4.80833 2.6941 3.24465 4.29837 2.1844C5.90263 1.12416 7.81395 0.627569 9.73142 0.772812C11.6489 0.918054 13.4636 1.69688 14.8899 2.98668L108.49 87.92C109.385 88.7318 110.1 89.7218 110.589 90.8262C111.079 91.9307 111.332 93.1253 111.333 94.3334V99.828C111.992 100.209 112.598 100.675 113.135 101.215L204.135 192.215C205.76 193.84 206.673 196.044 206.673 198.342C206.673 200.64 205.76 202.844 204.135 204.469L178.135 230.469ZM106.999 119.588L93.2539 133.333L171.999 212.079L185.745 198.333L106.999 119.588ZM28.4272 38.6587L56.8192 120.333H73.0779L93.9992 99.412V98.1467L28.4272 38.6587Z" fill="#8135F9"/>
</svg>
