<svg width="184" height="184" viewBox="0 0 184 184" fill="none" xmlns="http://www.w3.org/2000/svg">
<g clip-path="url(#clip0_8821_43156)">
<path d="M114 125L101.357 87C87.391 87 84.5 98.3409 84.5 112.333M84.5 112.333V125M84.5 112.333C84.5 98.3409 81.609 87 67.6429 87L55 125" stroke="#8135F9" stroke-width="15" stroke-linecap="round" stroke-linejoin="round"/>
<path d="M168.814 184C159.097 178.338 142.737 165.527 120.734 167.166C115.165 167.581 112.377 167.792 109.833 167.589C108.908 167.558 107.986 167.476 107.07 167.344C94.1245 164.344 84.5 153.037 84.5 139.55M84.5 139.55V25.0954M84.5 139.55C84.5 153.037 74.8755 164.352 61.9301 167.344C61.7864 167.378 61.7103 167.386 59.1669 167.589C56.6234 167.792 53.8349 167.581 48.2664 167.166C26.2626 165.527 9.9034 178.338 0.185901 184M84.5 25.0954C84.5046 22.7547 85.3208 20.4881 86.8093 18.6819C88.2979 16.8757 90.3668 15.6416 92.6633 15.19C94.9598 14.7385 97.3419 15.0974 99.4034 16.2056C101.465 17.3137 103.078 19.1026 103.969 21.2673L126.936 77.4129C135.944 99.4266 140.447 110.429 148.297 116.091C148.779 116.446 149.675 117.046 150.182 117.359C158.387 122.48 161.927 122.48 169 122.48M84.5 25.0954C84.4954 22.7547 83.6792 20.4881 82.1907 18.6819C80.7021 16.8757 78.6332 15.6416 76.3367 15.19C74.0402 14.7385 71.6581 15.0974 69.5966 16.2056C67.535 17.3137 65.9216 19.1026 65.0312 21.2673L42.0641 77.4213C33.0564 99.4351 28.5525 110.446 20.7025 116.1C20.0859 116.539 19.4575 116.962 18.8182 117.367C10.6132 122.488 7.07265 122.488 0 122.488" stroke="#8135F9" stroke-width="15" stroke-linecap="round" stroke-linejoin="round"/>
</g>
<defs>
<clipPath id="clip0_8821_43156">
<rect width="184" height="184" fill="white"/>
</clipPath>
</defs>
</svg>
