<svg width="245" height="239" viewBox="0 0 245 239" fill="none" xmlns="http://www.w3.org/2000/svg">
<path d="M91.8757 214.374C100.002 220.724 110.741 224.583 122.501 224.583C134.261 224.583 145 220.724 153.126 214.374M25.8278 146.938C23.6534 160.75 33.3615 170.336 45.244 175.113C90.8038 193.437 154.198 193.437 199.757 175.113C211.64 170.336 221.348 160.75 219.174 146.938C217.847 138.445 211.242 131.381 206.352 124.48C199.951 115.323 199.318 105.349 199.308 94.7225C199.318 53.6952 164.937 20.416 122.501 20.416C80.0647 20.416 45.683 53.6952 45.683 94.7327C45.683 105.349 45.0501 115.333 38.6392 124.48C33.7597 131.381 27.1651 138.445 25.8278 146.938Z" stroke="#8135F9" stroke-width="21" stroke-linecap="round" stroke-linejoin="round"/>
</svg>
