<svg width="270" height="239" viewBox="0 0 270 239" fill="none" xmlns="http://www.w3.org/2000/svg">
<path d="M247.5 198.75H22.5M247.5 198.75C247.5 192.45 229.556 180.671 225 176.25M247.5 198.75C247.5 205.05 229.556 216.829 225 221.25M22.5 198.75C22.5 192.45 40.4437 180.671 45 176.25M22.5 198.75C22.5 205.05 40.4437 216.829 45 221.25M247.5 142.5L225.799 80.625L206.775 26.3325C206.246 24.825 205.988 24.0825 205.65 23.4413C205.071 22.2742 204.232 21.2549 203.199 20.4614C202.166 19.6678 200.965 19.1209 199.688 18.8625C199.035 18.75 198.315 18.75 196.875 18.75C195.435 18.75 194.715 18.75 194.062 18.8625C192.785 19.1209 191.584 19.6678 190.551 20.4614C189.518 21.2549 188.679 22.2742 188.1 23.4413C187.774 24.0713 187.515 24.825 186.975 26.3325L167.963 80.625M167.963 80.625H225.81M167.963 80.625L146.25 142.5M22.5 18.75L63.225 134.918C63.765 136.414 64.0237 137.168 64.35 137.809C64.9293 138.976 65.7676 139.995 66.801 140.789C67.8344 141.582 69.0355 142.129 70.3125 142.387C70.965 142.5 71.685 142.5 73.125 142.5C74.565 142.5 75.285 142.5 75.9375 142.387C77.2145 142.129 78.4156 141.582 79.449 140.789C80.4824 139.995 81.3207 138.976 81.9 137.809C82.2263 137.179 82.485 136.425 83.025 134.918L123.75 18.75" stroke="#8135F9" stroke-width="15" stroke-linecap="round" stroke-linejoin="round"/>
</svg>
