<svg width="260" height="239" viewBox="0 0 260 239" fill="none" xmlns="http://www.w3.org/2000/svg">
<path d="M76.0494 130.834C52.1077 130.834 32.716 150.225 32.716 174.167C32.716 198.109 52.1077 217.5 76.0494 217.5C99.991 217.5 119.383 198.109 119.383 174.167C119.383 150.225 99.991 130.834 76.0494 130.834ZM76.0494 195.834C64.1327 195.834 54.3827 186.084 54.3827 174.167C54.3827 162.25 64.1327 152.5 76.0494 152.5C87.966 152.5 97.716 162.25 97.716 174.167C97.716 186.084 87.966 195.834 76.0494 195.834ZM140.833 130.834V217.5H227.499V130.834H140.833ZM205.833 195.834H162.499V152.5H205.833V195.834ZM75.8327 11.667L21.666 109.167H129.999L75.8327 11.667ZM75.8327 56.3003L93.166 87.5003H58.4994L75.8327 56.3003ZM208.541 17.0837C197.058 17.0837 188.933 23.1503 184.166 29.7587C179.399 23.1503 171.274 17.0837 159.791 17.0837C142.891 17.0837 129.999 30.9503 129.999 46.8753C129.999 68.542 156.216 83.9253 184.166 109.167C212.116 83.9253 238.333 68.542 238.333 46.8753C238.333 30.9503 225.441 17.0837 208.541 17.0837ZM184.166 80.4587C168.458 67.242 151.666 54.4587 151.666 46.8753C151.666 42.217 155.458 38.7503 159.791 38.7503C163.149 38.7503 165.424 40.592 167.699 42.7587L184.166 58.2503L200.633 42.7587C202.908 40.592 205.183 38.7503 208.541 38.7503C212.874 38.7503 216.666 42.217 216.666 46.8753C216.666 54.4587 199.874 67.242 184.166 80.4587Z" fill="#8135F9"/>
</svg>
