<svg width="245" height="239" viewBox="0 0 245 239" fill="none" xmlns="http://www.w3.org/2000/svg">
<path d="M51.0417 45.0423H71.4583V55.2507C71.4583 66.4798 80.6458 75.6673 91.875 75.6673H153.125C164.354 75.6673 173.542 66.4798 173.542 55.2507V45.0423H193.958V96.084H214.375V45.0423C214.375 33.8132 205.188 24.6257 193.958 24.6257H151.287C147 12.784 135.771 4.20898 122.5 4.20898C109.229 4.20898 98 12.784 93.7125 24.6257H51.0417C39.8125 24.6257 30.625 33.8132 30.625 45.0423V187.959C30.625 199.188 39.8125 208.376 51.0417 208.376H112.292V187.959H51.0417V45.0423ZM122.5 24.6257C128.115 24.6257 132.708 29.2194 132.708 34.834C132.708 40.4486 128.115 45.0423 122.5 45.0423C116.885 45.0423 112.292 40.4486 112.292 34.834C112.292 29.2194 116.885 24.6257 122.5 24.6257Z" fill="#8135F9"/>
<path d="M222.031 119.051C217.846 114.866 210.904 114.866 206.718 119.051L158.331 167.541L135.26 144.572C131.075 140.387 124.235 140.387 119.948 144.572C115.762 148.757 115.762 155.699 119.948 159.885L151.083 190.918C155.064 194.899 161.496 194.899 165.477 190.918L221.929 134.364C226.216 130.178 226.216 123.237 222.031 119.051Z" fill="#8135F9"/>
</svg>
