<svg width="260" height="239" viewBox="0 0 260 239" fill="none" xmlns="http://www.w3.org/2000/svg">
<path fill-rule="evenodd" clip-rule="evenodd" d="M46.6308 190.344C28.8242 170.799 17.9914 144.996 17.9914 116.703C17.9914 55.6888 68.3474 6.22656 130.464 6.22656C192.581 6.22656 242.937 55.6888 242.937 116.703C242.937 159.845 217.753 197.196 181.044 215.383C158.584 227.093 132.962 233.727 105.762 233.727C72.4353 233.727 41.4753 223.767 15.8008 206.714C15.8008 206.714 33.0181 204.836 46.6263 190.349L46.6308 190.344ZM183.299 171.38C212.397 142.282 212.397 95.1059 183.299 66.0081C169.806 52.5157 152.426 45.2839 134.764 44.3051C134.231 31.0536 141.364 22.1 141.399 22.0563L141.392 22.0577L141.397 22.0507C121.098 25.972 101.713 35.7927 85.9949 51.5115C73.9401 63.5657 65.3568 77.7763 60.2397 92.9008C60.9888 90.9172 61.8241 88.9585 62.7455 87.0313C61.6849 89.7358 60.7267 92.4994 59.86 95.3269C51.3382 121.196 57.3532 150.806 77.9268 171.38C107.025 200.478 154.202 200.478 183.299 171.38Z" fill="#8135F9"/>
<path fill-rule="evenodd" clip-rule="evenodd" d="M92.7871 111.035V120.292V126.458C92.7871 132.612 97.7759 137.601 103.931 137.601C110.085 137.601 115.073 132.612 115.073 126.458V120.283V111.035C115.073 104.882 110.085 99.8916 103.931 99.8916C97.7759 99.8916 92.7871 104.882 92.7871 111.035Z" fill="#8135F9"/>
<path fill-rule="evenodd" clip-rule="evenodd" d="M147.943 111.035V120.292V126.458C147.943 132.612 152.933 137.601 159.087 137.601C165.241 137.601 170.23 132.612 170.23 126.458V120.283V111.035C170.23 104.882 165.241 99.8916 159.087 99.8916C152.933 99.8916 147.943 104.882 147.943 111.035Z" fill="#8135F9"/>
</svg>
