<svg xmlns="http://www.w3.org/2000/svg" width="25" height="24" fill="none"><g clip-path="url(#a)"><mask id="b" width="25" height="24" x="0" y="0" maskUnits="userSpaceOnUse" style="mask-type:luminance"><path fill="#fff" stroke="#fff" stroke-linejoin="round" stroke-width="4" d="M12.5 22a9.97 9.97 0 0 0 7.071-2.929A9.97 9.97 0 0 0 22.5 12a9.97 9.97 0 0 0-2.929-7.071A9.97 9.97 0 0 0 12.5 2a9.97 9.97 0 0 0-7.071 2.929A9.97 9.97 0 0 0 2.5 12a9.97 9.97 0 0 0 2.929 7.071A9.97 9.97 0 0 0 12.5 22Z"/><path stroke="#000" stroke-linecap="round" stroke-linejoin="round" stroke-width="4" d="m8.5 12 3 3 6-6"/></mask><g mask="url(#b)"><path fill="#fff" d="M.5 0h24v24H.5z"/></g></g><defs><clipPath id="a"><path fill="#fff" d="M.5 0h24v24H.5z"/></clipPath></defs></svg>