<svg width="245" height="239" viewBox="0 0 245 239" fill="none" xmlns="http://www.w3.org/2000/svg">
<path d="M29.666 172.697L54.4824 31.9544C54.9472 29.3133 55.9277 26.7896 57.368 24.5275C58.8083 22.2654 60.6802 20.3091 62.8766 18.7706C65.0731 17.232 67.5511 16.1412 70.1692 15.5606C72.7873 14.9799 75.4942 14.9207 78.1352 15.3863L198.777 36.6707C204.109 37.6117 208.849 40.6323 211.955 45.068C215.06 49.5036 216.276 54.9911 215.335 60.3234L190.519 201.066C190.054 203.707 189.073 206.23 187.633 208.493C186.193 210.755 184.321 212.711 182.125 214.249C179.928 215.788 177.45 216.879 174.832 217.46C172.214 218.04 169.507 218.099 166.866 217.634L46.2239 196.349C40.8917 195.408 36.1518 192.388 33.0466 187.952C29.9414 183.516 28.7254 178.029 29.666 172.697Z" stroke="#8135F9" stroke-width="22"/>
<path d="M91.1501 59.1484L171.582 73.3278M84.0553 99.3591L164.487 113.549M76.9707 139.57L127.237 148.441" stroke="#8135F9" stroke-width="22" stroke-linecap="round"/>
</svg>
