<svg width="245" height="239" viewBox="0 0 245 239" fill="none" xmlns="http://www.w3.org/2000/svg">
<path d="M40.834 183.751C40.834 172.922 45.1361 162.536 52.7938 154.878C60.4515 147.22 70.8376 142.918 81.6673 142.918H163.334C174.164 142.918 184.55 147.22 192.207 154.878C199.865 162.536 204.167 172.922 204.167 183.751C204.167 189.166 202.016 194.359 198.187 198.188C194.359 202.017 189.165 204.168 183.751 204.168H61.2507C55.8358 204.168 50.6428 202.017 46.8139 198.188C42.985 194.359 40.834 189.166 40.834 183.751Z" stroke="#8135F9" stroke-width="21" stroke-linejoin="round"/>
<path d="M122.5 102.084C139.414 102.084 153.125 88.3727 153.125 71.459C153.125 54.5453 139.414 40.834 122.5 40.834C105.586 40.834 91.875 54.5453 91.875 71.459C91.875 88.3727 105.586 102.084 122.5 102.084Z" stroke="#8135F9" stroke-width="21"/>
</svg>
