<svg width="270" height="239" viewBox="0 0 270 239" fill="none" xmlns="http://www.w3.org/2000/svg">
<path d="M33.75 44.0629C31.5122 44.0629 29.3661 44.9518 27.7838 46.5341C26.2014 48.1165 25.3125 50.2626 25.3125 52.5004C25.3125 54.7381 26.2014 56.8842 27.7838 58.4666C29.3661 60.0489 31.5122 60.9379 33.75 60.9379H52.4812L74.6213 149.532C76.5028 157.041 83.2275 162.188 90.9647 162.188H196.18C203.799 162.188 210.271 157.125 212.271 149.785L234.141 69.3754H216.473L196.172 145.313H90.9562L68.8247 56.7191C67.9105 53.0845 65.803 49.8618 62.8398 47.5671C59.8766 45.2724 56.229 44.0384 52.4812 44.0629H33.75ZM185.625 162.188C171.745 162.188 160.312 173.621 160.312 187.5C160.312 201.38 171.745 212.813 185.625 212.813C199.505 212.813 210.938 201.38 210.938 187.5C210.938 173.621 199.505 162.188 185.625 162.188ZM109.688 162.188C95.8078 162.188 84.375 173.621 84.375 187.5C84.375 201.38 95.8078 212.813 109.688 212.813C123.567 212.813 135 201.38 135 187.5C135 173.621 123.567 162.188 109.688 162.188ZM135 44.0629V86.2504H109.688L143.438 120L177.188 86.2504H151.875V44.0629H135ZM109.688 179.063C114.446 179.063 118.125 182.742 118.125 187.5C118.125 192.259 114.446 195.938 109.688 195.938C104.929 195.938 101.25 192.259 101.25 187.5C101.25 182.742 104.929 179.063 109.688 179.063ZM185.625 179.063C190.384 179.063 194.062 182.742 194.062 187.5C194.062 192.259 190.384 195.938 185.625 195.938C180.866 195.938 177.188 192.259 177.188 187.5C177.188 182.742 180.866 179.063 185.625 179.063Z" fill="#8135F9"/>
</svg>
