<svg width="142" height="184" viewBox="0 0 142 184" fill="none" xmlns="http://www.w3.org/2000/svg">
<path d="M50.0833 40.8743C50.0833 38.1669 51.1589 35.5704 53.0733 33.656C54.9877 31.7415 57.5842 30.666 60.2917 30.666C62.9991 30.666 65.5956 31.7415 67.51 33.656C69.4245 35.5704 70.5 38.1669 70.5 40.8743V86.5056L82.8521 87.8327L133.281 110.189C138.692 112.639 141.958 118.049 141.958 123.97V168.479C141.652 176.849 135.017 183.485 126.646 183.791H60.2917C56.4125 183.791 52.7375 182.26 50.0833 179.401L0.0625 136.526L7.61667 128.666C9.55625 126.522 12.3125 125.399 15.1708 125.399H17.4167L50.0833 142.958V40.8743ZM60.2917 0.0410156C71.1213 0.0410156 81.5075 4.34308 89.1652 12.0008C96.8229 19.6586 101.125 30.0447 101.125 40.8743C101.125 56.1868 92.9583 69.1514 80.7083 76.1952V63.741C86.9354 58.1264 90.9167 49.9598 90.9167 40.8743C90.9167 32.7521 87.6901 24.9625 81.9468 19.2192C76.2035 13.4759 68.4139 10.2493 60.2917 10.2493C52.1694 10.2493 44.3798 13.4759 38.6365 19.2192C32.8932 24.9625 29.6667 32.7521 29.6667 40.8743C29.6667 49.9598 33.6479 58.1264 39.875 63.741V76.1952C27.625 69.1514 19.4583 56.1868 19.4583 40.8743C19.4583 30.0447 23.7604 19.6586 31.4181 12.0008C39.0759 4.34308 49.462 0.0410156 60.2917 0.0410156Z" fill="#8135F9"/>
</svg>
