<svg width="245" height="239" viewBox="0 0 245 239" fill="none" xmlns="http://www.w3.org/2000/svg">
<g clip-path="url(#clip0_8868_43092)">
<path d="M164.609 127.984L206.719 85.875M111.016 97.3594L141.641 127.984M38.2812 147.125L88.0469 97.3594" stroke="#8135F9" stroke-width="32" stroke-linecap="round" stroke-linejoin="round"/>
<path d="M218.203 85.875C224.546 85.875 229.688 80.7333 229.688 74.3906C229.688 68.048 224.546 62.9062 218.203 62.9062C211.86 62.9062 206.719 68.048 206.719 74.3906C206.719 80.7333 211.86 85.875 218.203 85.875Z" stroke="#8135F9" stroke-width="32" stroke-linecap="round" stroke-linejoin="round"/>
<path d="M153.125 150.953C159.468 150.953 164.609 145.811 164.609 139.469C164.609 133.126 159.468 127.984 153.125 127.984C146.782 127.984 141.641 133.126 141.641 139.469C141.641 145.811 146.782 150.953 153.125 150.953Z" stroke="#8135F9" stroke-width="32" stroke-linecap="round" stroke-linejoin="round"/>
<path d="M99.5312 97.3594C105.874 97.3594 111.016 92.2176 111.016 85.875C111.016 79.5324 105.874 74.3906 99.5312 74.3906C93.1886 74.3906 88.0469 79.5324 88.0469 85.875C88.0469 92.2176 93.1886 97.3594 99.5312 97.3594Z" stroke="#8135F9" stroke-width="32" stroke-linecap="round" stroke-linejoin="round"/>
<path d="M26.7969 170.094C33.1395 170.094 38.2812 164.952 38.2812 158.609C38.2812 152.267 33.1395 147.125 26.7969 147.125C20.4542 147.125 15.3125 152.267 15.3125 158.609C15.3125 164.952 20.4542 170.094 26.7969 170.094Z" stroke="#8135F9" stroke-width="32" stroke-linecap="round" stroke-linejoin="round"/>
</g>
<defs>
<clipPath id="clip0_8868_43092">
<rect width="245" height="245" fill="white" transform="translate(0 -6)"/>
</clipPath>
</defs>
</svg>
