<svg width="245" height="239" viewBox="0 0 245 239" fill="none" xmlns="http://www.w3.org/2000/svg">
<path d="M122.5 112.291C139.414 112.291 153.125 98.5797 153.125 81.666C153.125 64.7523 139.414 51.041 122.5 51.041C105.586 51.041 91.875 64.7523 91.875 81.666C91.875 98.5797 105.586 112.291 122.5 112.291Z" stroke="#8135F9" stroke-width="16" stroke-linecap="round"/>
<path d="M155.861 81.6655C157.192 79.3248 158.972 77.2705 161.1 75.6208C163.228 73.9711 165.662 72.7586 168.26 72.0531C170.859 71.3476 173.571 71.1631 176.241 71.5102C178.911 71.8572 181.486 72.729 183.818 74.0753C186.15 75.4216 188.192 77.2158 189.828 79.3547C191.463 81.4936 192.66 83.9349 193.348 86.538C194.036 89.1411 194.203 91.8546 193.838 94.5223C193.473 97.1901 192.584 99.7593 191.223 102.082C188.496 106.733 184.04 110.117 178.828 111.495C173.616 112.873 168.07 112.133 163.401 109.438C158.732 106.742 155.319 102.309 153.906 97.1059C152.493 91.9028 153.196 86.3523 155.861 81.6655ZM53.7775 81.6655C55.1084 79.3248 56.889 77.2705 59.017 75.6208C61.145 73.9711 63.5783 72.7586 66.1767 72.0531C68.7752 71.3476 71.4876 71.1631 74.1577 71.5102C76.8278 71.8572 79.4029 72.729 81.7347 74.0753C84.0665 75.4216 86.1089 77.2158 87.7445 79.3547C89.38 81.4936 90.5763 83.9349 91.2646 86.538C91.9528 89.1411 92.1193 91.8546 91.7545 94.5223C91.3898 97.1901 90.501 99.7593 89.1392 102.082C86.4126 106.733 81.9569 110.117 76.7446 111.495C71.5323 112.873 65.9866 112.133 61.3175 109.438C56.6485 106.742 53.2353 102.309 51.8227 97.1059C50.4101 91.9028 51.1128 86.3523 53.7775 81.6655Z" stroke="#8135F9" stroke-width="16"/>
<path d="M172.337 183.749L162.333 185.76L163.966 193.957H172.337V183.749ZM150.879 150.173L144.714 142.037L132.902 151.011L145.5 158.84L150.879 150.173ZM202.819 173.54H172.347L172.337 193.957H202.819V173.54ZM201.901 175.97C201.796 175.629 201.779 175.268 201.85 174.918C201.912 174.557 202.063 174.217 202.289 173.928C202.615 173.52 202.891 173.54 202.819 173.54V193.957C214.518 193.957 226.023 182.932 221.143 169.151L201.901 175.97ZM173.542 153.124C190.304 153.124 198.072 165.18 201.901 175.97L221.143 169.151C216.396 155.768 203.636 132.707 173.542 132.707V153.124ZM157.066 158.299C160.986 155.318 166.212 153.124 173.542 153.124V132.707C161.68 132.707 152.135 136.402 144.714 142.037L157.066 158.299ZM145.5 158.84C156.106 165.435 160.547 176.93 162.323 185.76L182.331 181.738C180.116 170.682 173.92 152.47 156.28 141.496L145.5 158.84ZM94.121 150.163L99.5008 158.84L112.098 151.011L100.287 142.037L94.121 150.163ZM72.6631 183.749V193.957H81.0237L82.6775 185.76L72.6631 183.749ZM71.4585 153.124C78.7881 153.124 84.0148 155.318 87.9348 158.299L100.287 142.037C92.8654 136.402 83.3206 132.707 71.4585 132.707V153.124ZM43.0998 175.97C46.9279 165.18 54.6965 153.124 71.4585 153.124V132.707C41.3644 132.707 28.604 155.768 23.8571 169.151L43.0998 175.97ZM42.181 173.54C42.1198 173.54 42.3852 173.52 42.7221 173.928C42.9441 174.218 43.0913 174.558 43.1508 174.918C43.2215 175.268 43.2039 175.629 43.0998 175.97L23.8571 169.151C18.9877 182.932 30.4925 193.957 42.1912 193.957L42.181 173.54ZM72.6631 173.54H42.181L42.1912 193.957H72.6631V173.54ZM82.6673 185.76C84.4537 176.93 88.8944 165.435 99.511 158.84L88.7106 141.486C71.0706 152.46 64.8742 170.682 62.6487 181.727L82.6673 185.76Z" fill="#8135F9"/>
<path d="M122.5 142.916C158.964 142.916 169.377 168.957 172.347 183.841C173.46 189.364 168.979 193.958 163.333 193.958H81.6667C76.0317 193.958 71.54 189.364 72.6528 183.841C75.6234 168.947 86.0359 142.916 122.5 142.916Z" stroke="#8135F9" stroke-width="16" stroke-linecap="round"/>
</svg>
