<svg xmlns="http://www.w3.org/2000/svg" width="76" height="28" fill="none"><path fill="#8135F9" fill-rule="evenodd" d="M5.228 1.257C6.993.5 8.88.27 11.435 3.325c1.908 2.282 1.54 6.818-.918 9.734l-.003-.012-.163.163c-1.09 1.094-1.692 1.698-2.624.935-.978-.8-2.312-3.149-3.035-5.482-.722-2.334-.807-2.9-.807-3.554 0-.869 1.006-.729 1.53-.38.772.516 1.214 1.478.243 2.956-.601.915-.243 1.635-.243 1.635s.91 1.803 2.312 1.025 2.977-7.605-2.312-8.182C-1.02 1.46.579 7.262.938 8.566l.027.097c1.013 3.74 3.204 7.263 4.45 8.806.954 1.182 2.187 1.165 3.666.61.744-.278 1.214-.632 1.676-1.018l.014-.002q.257-.181.562-.481l.137-.11-.006-.022c1.982-2.05 4.99-7.397 3.359-12.192-.992-2.917-5.002-5.375-9.595-2.997" clip-rule="evenodd"/><path fill="#282A3A" d="M19.944 15.075a.86.86 0 0 1-.555-.18q-.21-.18-.21-.54v-6.09q0-.36.21-.54a.82.82 0 0 1 .555-.195q.33 0 .54.195.21.18.21.54v6.09q0 .36-.21.54a.8.8 0 0 1-.54.18m0-9.015q-.435 0-.69-.24a.83.83 0 0 1-.256-.63q0-.39.255-.615.255-.24.69-.24.42 0 .675.24.27.225.27.615t-.255.63-.69.24m8.402 1.47q.345 0 .54.21.21.195.21.525v6.15q0 1.68-.9 2.535-.885.855-2.625.855-1.62 0-2.7-.615-.555-.315-.555-.75 0-.255.135-.42a.47.47 0 0 1 .36-.165q.195 0 .615.225.54.255 1.005.39.465.15 1.11.15 2.07 0 2.07-2.085V13.38q-.315.66-.96 1.035-.645.36-1.5.36-.96 0-1.71-.45t-1.17-1.275q-.405-.825-.405-1.905t.42-1.905a3.1 3.1 0 0 1 1.155-1.275q.75-.465 1.71-.465.84 0 1.47.36.645.36.975 1.02v-.63q0-.33.195-.525.21-.195.555-.195m-2.835 6.045q.975 0 1.53-.645t.555-1.785q0-1.125-.555-1.77-.54-.66-1.53-.66t-1.56.645q-.555.645-.555 1.785t.57 1.785 1.545.645m8.351 1.53q-1.08 0-1.905-.465a3.2 3.2 0 0 1-1.26-1.32q-.435-.87-.435-2.01 0-1.155.435-2.01.45-.87 1.26-1.335.825-.465 1.905-.465t1.89.465q.825.465 1.26 1.335.45.855.45 2.01 0 1.14-.45 2.01-.435.855-1.26 1.32-.81.465-1.89.465m0-1.2q1.005 0 1.53-.66.54-.66.54-1.935 0-1.26-.54-1.92-.54-.675-1.53-.675t-1.53.675q-.54.66-.54 1.92 0 1.275.525 1.935.54.66 1.545.66m9.382-6.465q.945 0 1.68.495.75.48 1.155 1.365.42.885.42 2.025t-.42 2.01q-.405.855-1.14 1.32t-1.695.465q-.705 0-1.305-.285a2.3 2.3 0 0 1-.915-.765v2.55q0 .525-.36.84t-.945.315q-.615 0-.99-.345a1.09 1.09 0 0 1-.375-.855V8.7q0-.555.345-.885.36-.345.96-.345.57 0 .915.3.36.3.405.795.315-.525.915-.825.615-.3 1.35-.3m-.81 5.685q.69 0 1.05-.465.375-.465.375-1.335 0-.915-.375-1.395-.375-.495-1.065-.495t-1.065.48-.375 1.38q0 .885.375 1.365.375.465 1.08.465m6.105 1.965q-.57 0-.96-.3-.375-.315-.375-.93V5.595q0-.615.375-.93.39-.315.96-.315t.945.315q.39.315.39.93v8.265q0 .615-.39.93-.375.3-.945.3m5.794-7.65q1.71 0 2.52.825.825.81.825 2.475v3.135q0 .57-.345.9-.33.315-.93.315-.525 0-.87-.3-.33-.3-.36-.81-.21.54-.705.84t-1.185.3q-.765 0-1.38-.3a2.53 2.53 0 0 1-.975-.855 2.3 2.3 0 0 1-.345-1.245q0-.795.405-1.26.42-.48 1.32-.69t2.43-.21h.405v-.18q0-.525-.24-.75-.24-.24-.81-.24-.615 0-1.8.42-.345.12-.585.12-.375 0-.6-.27t-.225-.705q0-.33.135-.54t.435-.375q.525-.27 1.32-.435t1.56-.165m-.42 5.895q.54 0 .885-.375.345-.39.345-.99v-.18h-.24q-.96 0-1.365.18-.405.165-.405.57 0 .345.21.57.225.225.57.225m8.291 1.785q-1.8 0-2.85-1.02t-1.05-2.775q0-1.155.51-2.04T60.24 7.92q.93-.48 2.115-.48.63 0 1.26.165t1.11.465q.465.285.465.87 0 .465-.225.765a.66.66 0 0 1-.555.285q-.225 0-.435-.06a4 4 0 0 1-.465-.21q-.3-.135-.51-.195a1.4 1.4 0 0 0-.465-.075q-1.485 0-1.485 1.815 0 .9.375 1.38.39.465 1.11.465.255 0 .465-.06.225-.075.495-.21.3-.135.48-.195.195-.075.42-.075.345 0 .555.3.225.285.225.75 0 .285-.12.525a.85.85 0 0 1-.33.345q-1.035.63-2.52.63m9.42-2.49q.345 0 .555.27.225.27.225.705 0 .6-.585.915-.51.255-1.215.435a5.5 5.5 0 0 1-1.275.165q-1.23 0-2.145-.465a3.3 3.3 0 0 1-1.41-1.335q-.495-.87-.495-2.04 0-1.11.465-1.98.48-.885 1.32-1.365.855-.495 1.92-.495 1.035 0 1.815.45T72 9.165q.435.825.435 1.935 0 .345-.165.54-.15.18-.45.18h-3.96q.105.72.465 1.035t1.065.315q.375 0 .69-.075.315-.09.705-.24.225-.09.435-.15.225-.075.405-.075M69.06 9.24q-.525 0-.84.345-.315.33-.375.975H70.2q-.09-1.32-1.14-1.32M5.63 24.18a.84.84 0 0 1 .47.31q.17.225.17.55 0 .45-.325.705Q5.624 26 5.06 26H3.77a.32.32 0 0 1-.23-.08.3.3 0 0 1-.08-.225V22.78q0-.145.08-.225a.32.32 0 0 1 .23-.08h1.24q.55 0 .86.245.315.24.315.675 0 .28-.15.485a.83.83 0 0 1-.405.3m-1.54-.22h.815q.665 0 .665-.495 0-.25-.165-.37t-.5-.12H4.09zm.9 1.54q.35 0 .51-.125t.16-.39-.165-.395q-.16-.13-.505-.13h-.9v1.04zm3.758-1.995q.144 0 .23.08a.28.28 0 0 1 .085.215v1.94q0 .13-.09.21a.32.32 0 0 1-.225.08.3.3 0 0 1-.215-.075.27.27 0 0 1-.08-.205v-.125a.8.8 0 0 1-.31.31.9.9 0 0 1-.44.105q-.9 0-.9-1.01V23.8q0-.135.085-.215a.32.32 0 0 1 .225-.08q.144 0 .23.08a.28.28 0 0 1 .085.215v1.235q0 .26.105.385t.33.125a.53.53 0 0 0 .415-.17.66.66 0 0 0 .16-.46V23.8q0-.135.085-.215a.32.32 0 0 1 .225-.08m1.275 2.525a.34.34 0 0 1-.225-.075.3.3 0 0 1-.085-.225V23.8q0-.145.085-.22a.34.34 0 0 1 .225-.075.34.34 0 0 1 .225.075q.09.075.09.22v1.93q0 .146-.09.225a.34.34 0 0 1-.225.075m0-2.97a.4.4 0 0 1-.27-.09.32.32 0 0 1-.1-.245q0-.15.1-.24a.4.4 0 0 1 .27-.09q.165 0 .265.09a.3.3 0 0 1 .105.24q0 .15-.1.245a.4.4 0 0 1-.27.09m1.27 2.97a.34.34 0 0 1-.225-.075.3.3 0 0 1-.085-.225v-2.985q0-.145.085-.22a.34.34 0 0 1 .225-.075.34.34 0 0 1 .225.075q.09.075.09.22v2.985q0 .146-.09.225a.34.34 0 0 1-.225.075m3-3.58q.14 0 .23.08t.09.21v2.99q-.001.135-.086.215a.32.32 0 0 1-.225.08.32.32 0 0 1-.225-.08.28.28 0 0 1-.085-.215v-.125a.8.8 0 0 1-.32.32.94.94 0 0 1-.47.115q-.315 0-.565-.16a1.1 1.1 0 0 1-.385-.45 1.6 1.6 0 0 1-.135-.675q0-.38.135-.665.14-.285.385-.44.246-.155.565-.155.266 0 .47.11a.76.76 0 0 1 .315.31V22.73q0-.125.08-.2a.32.32 0 0 1 .225-.08m-.926 3.105q.3 0 .46-.205.165-.206.165-.585 0-.38-.165-.58a.54.54 0 0 0-.455-.205.57.57 0 0 0-.465.2q-.165.2-.165.575 0 .38.165.59t.46.21m4.33.485a1.3 1.3 0 0 1-.644-.155 1.06 1.06 0 0 1-.425-.44q-.15-.285-.15-.665a1.4 1.4 0 0 1 .155-.67q.16-.295.445-.455t.655-.16q.195 0 .39.055.2.055.35.15.16.105.16.265a.3.3 0 0 1-.055.18.16.16 0 0 1-.135.065.3.3 0 0 1-.115-.025 1 1 0 0 1-.12-.06 1.2 1.2 0 0 0-.21-.1.6.6 0 0 0-.23-.04q-.31 0-.48.205-.165.2-.165.58 0 .375.165.58.17.2.48.2a.6.6 0 0 0 .22-.035q.1-.04.22-.105a1 1 0 0 1 .13-.065.3.3 0 0 1 .11-.025q.08 0 .135.07a.27.27 0 0 1 .055.175.28.28 0 0 1-.16.26q-.156.1-.36.16a1.6 1.6 0 0 1-.42.055m2.472 0q-.375 0-.66-.155a1.1 1.1 0 0 1-.435-.445 1.4 1.4 0 0 1-.155-.675q0-.385.155-.67.155-.29.435-.445.285-.155.66-.155t.655.155q.285.155.435.445.155.285.155.67t-.155.675q-.15.29-.435.445a1.33 1.33 0 0 1-.655.155m-.005-.485q.304 0 .465-.2.16-.2.16-.59 0-.386-.16-.585-.16-.205-.46-.205t-.465.205q-.16.2-.16.585 0 .39.16.59t.46.2m3.186-2.06q.44 0 .655.25t.215.755v1.23a.3.3 0 0 1-.085.22.3.3 0 0 1-.225.08.32.32 0 0 1-.23-.08.3.3 0 0 1-.085-.22v-1.195q0-.285-.11-.415-.105-.13-.335-.13a.58.58 0 0 0-.435.17.64.64 0 0 0-.16.455v1.115a.3.3 0 0 1-.085.22.32.32 0 0 1-.23.08.32.32 0 0 1-.23-.08.3.3 0 0 1-.08-.22v-1.935q0-.13.085-.21a.32.32 0 0 1 .23-.08q.13 0 .21.08.085.075.085.2v.135a.85.85 0 0 1 .335-.315q.21-.11.475-.11m2.925 0q.44 0 .655.25t.215.755v1.23a.3.3 0 0 1-.085.22.3.3 0 0 1-.225.08.32.32 0 0 1-.23-.08.3.3 0 0 1-.085-.22v-1.195q0-.285-.11-.415-.105-.13-.335-.13a.58.58 0 0 0-.435.17.64.64 0 0 0-.16.455v1.115a.3.3 0 0 1-.085.22.32.32 0 0 1-.23.08.32.32 0 0 1-.23-.08.3.3 0 0 1-.08-.22v-1.935q0-.13.085-.21a.32.32 0 0 1 .23-.08q.129 0 .21.08.085.075.085.2v.135a.85.85 0 0 1 .335-.315q.21-.11.475-.11m3.44 1.835q.084 0 .135.065a.26.26 0 0 1 .055.175q0 .155-.185.26a1.65 1.65 0 0 1-.795.21q-.59 0-.935-.34t-.345-.93q0-.375.15-.665t.42-.45q.275-.16.62-.16.33 0 .575.145t.38.41.135.625q0 .215-.19.215H28.26q.03.345.195.51.165.16.48.16.16 0 .28-.04a3 3 0 0 0 .28-.11q.15-.08.22-.08m-.865-1.395a.55.55 0 0 0-.41.16q-.15.16-.18.46h1.13q-.01-.305-.15-.46a.49.49 0 0 0-.39-.16m2.67 2.105a1.3 1.3 0 0 1-.644-.155 1.06 1.06 0 0 1-.425-.44q-.15-.285-.15-.665a1.4 1.4 0 0 1 .155-.67q.16-.295.445-.455t.655-.16q.195 0 .39.055.2.055.35.15.16.105.16.265a.3.3 0 0 1-.055.18.16.16 0 0 1-.135.065.3.3 0 0 1-.115-.025 1 1 0 0 1-.12-.06 1.2 1.2 0 0 0-.21-.1.6.6 0 0 0-.23-.04q-.31 0-.48.205-.165.2-.165.58 0 .375.165.58.17.2.48.2a.6.6 0 0 0 .22-.035q.1-.04.22-.105a1 1 0 0 1 .13-.065.3.3 0 0 1 .11-.025q.08 0 .135.07a.27.27 0 0 1 .055.175.28.28 0 0 1-.16.26q-.156.1-.36.16a1.6 1.6 0 0 1-.42.055m2.642-.475q.25.015.25.225 0 .12-.1.185a.47.47 0 0 1-.275.05l-.135-.01q-.84-.06-.84-.9v-1.09h-.25q-.135 0-.21-.06-.07-.06-.07-.175t.07-.175q.075-.06.21-.06h.25v-.46q0-.135.085-.215a.32.32 0 0 1 .23-.08q.14 0 .225.08a.28.28 0 0 1 .085.215v.46h.425q.135 0 .205.06.075.06.075.175t-.075.175q-.07.06-.205.06h-.425v1.135q0 .37.34.395zm.886.465a.34.34 0 0 1-.225-.075.3.3 0 0 1-.085-.225V23.8q0-.145.085-.22a.34.34 0 0 1 .225-.075.34.34 0 0 1 .225.075q.09.075.09.22v1.93q0 .146-.09.225a.34.34 0 0 1-.225.075m0-2.97a.4.4 0 0 1-.27-.09.32.32 0 0 1-.1-.245q0-.15.1-.24a.4.4 0 0 1 .27-.09q.165 0 .265.09a.3.3 0 0 1 .105.24q0 .15-.1.245a.4.4 0 0 1-.27.09m2.074 2.98q-.375 0-.66-.155a1.1 1.1 0 0 1-.435-.445 1.4 1.4 0 0 1-.155-.675q0-.385.155-.67.154-.29.435-.445.285-.155.66-.155t.655.155q.285.155.435.445.155.285.155.67t-.155.675q-.15.29-.435.445a1.33 1.33 0 0 1-.655.155m-.005-.485q.305 0 .465-.2t.16-.59q0-.386-.16-.585-.16-.205-.46-.205t-.465.205q-.16.2-.16.585 0 .39.16.59t.46.2m3.186-2.06q.44 0 .655.25t.215.755v1.23a.3.3 0 0 1-.085.22.3.3 0 0 1-.225.08.32.32 0 0 1-.23-.08.3.3 0 0 1-.085-.22v-1.195q0-.285-.11-.415-.105-.13-.335-.13a.58.58 0 0 0-.435.17.64.64 0 0 0-.16.455v1.115a.3.3 0 0 1-.085.22.32.32 0 0 1-.23.08.32.32 0 0 1-.23-.08.3.3 0 0 1-.08-.22v-1.935q0-.13.085-.21a.32.32 0 0 1 .23-.08q.13 0 .21.08.085.075.085.2v.135a.85.85 0 0 1 .335-.315q.21-.11.475-.11m2.39 2.545q-.545 0-.88-.215a.3.3 0 0 1-.16-.27q0-.1.055-.16a.17.17 0 0 1 .135-.065q.085 0 .235.08.16.075.29.115.135.04.34.04.21 0 .325-.07.12-.07.12-.195a.18.18 0 0 0-.05-.135.4.4 0 0 0-.17-.09 3 3 0 0 0-.37-.1q-.445-.09-.64-.255a.57.57 0 0 1-.19-.455q0-.22.13-.395a.8.8 0 0 1 .355-.275q.23-.1.52-.1.21 0 .405.055.195.05.35.15.16.1.16.265a.27.27 0 0 1-.055.17.17.17 0 0 1-.135.065.3.3 0 0 1-.11-.02l-.13-.07a2 2 0 0 0-.25-.11.7.7 0 0 0-.26-.04.5.5 0 0 0-.295.075.24.24 0 0 0-.105.205q0 .125.11.19t.425.13q.334.07.525.16.19.09.27.225.085.135.085.345a.64.64 0 0 1-.285.545q-.28.205-.75.205m1.802-.76q.17 0 .275.125t.105.365q0 .475-.33.82a.187.187 0 0 1-.27.015.16.16 0 0 1-.055-.12.17.17 0 0 1 .05-.115.77.77 0 0 0 .195-.36.4.4 0 0 1-.24-.11.35.35 0 0 1-.09-.245q0-.16.1-.265a.35.35 0 0 1 .26-.11m3.718-1.785q.32 0 .565.155t.38.44q.14.285.14.665t-.14.675q-.135.29-.385.45a1 1 0 0 1-.56.16 1 1 0 0 1-.475-.115.8.8 0 0 1-.315-.32v.125q0 .135-.085.215a.32.32 0 0 1-.225.08.32.32 0 0 1-.225-.08.3.3 0 0 1-.08-.215v-2.99q0-.13.085-.21a.33.33 0 0 1 .23-.08q.14 0 .225.075a.26.26 0 0 1 .085.205v1.18a.73.73 0 0 1 .315-.305 1 1 0 0 1 .465-.11m-.165 2.06q.295 0 .46-.21t.165-.59q0-.375-.165-.575-.16-.2-.46-.2t-.465.205q-.16.2-.16.58t.16.585q.165.205.465.205m3.693-2.05q.144 0 .23.08a.28.28 0 0 1 .085.215v1.94q0 .13-.09.21a.32.32 0 0 1-.225.08.3.3 0 0 1-.215-.075.27.27 0 0 1-.08-.205v-.125a.8.8 0 0 1-.31.31.9.9 0 0 1-.44.105q-.9 0-.9-1.01V23.8q0-.135.085-.215a.32.32 0 0 1 .225-.08q.144 0 .23.08a.28.28 0 0 1 .085.215v1.235q0 .26.105.385t.33.125a.53.53 0 0 0 .415-.17.66.66 0 0 0 .16-.46V23.8q0-.135.085-.215a.32.32 0 0 1 .225-.08m1.275 2.525a.34.34 0 0 1-.225-.075.3.3 0 0 1-.085-.225V23.8q0-.145.085-.22a.34.34 0 0 1 .225-.075.34.34 0 0 1 .225.075q.09.075.09.22v1.93q0 .146-.09.225a.34.34 0 0 1-.225.075m0-2.97a.4.4 0 0 1-.27-.09.32.32 0 0 1-.1-.245q0-.15.1-.24a.4.4 0 0 1 .27-.09q.165 0 .265.09a.3.3 0 0 1 .105.24q0 .15-.1.245a.4.4 0 0 1-.27.09m1.27 2.97a.34.34 0 0 1-.225-.075.3.3 0 0 1-.085-.225v-2.985q0-.145.085-.22a.34.34 0 0 1 .225-.075.34.34 0 0 1 .225.075q.09.075.09.22v2.985q0 .146-.09.225a.34.34 0 0 1-.225.075m3-3.58q.14 0 .23.08t.09.21v2.99q0 .135-.086.215a.32.32 0 0 1-.225.08.32.32 0 0 1-.225-.08.28.28 0 0 1-.085-.215v-.125a.8.8 0 0 1-.32.32.94.94 0 0 1-.47.115q-.315 0-.565-.16a1.1 1.1 0 0 1-.385-.45 1.6 1.6 0 0 1-.135-.675q0-.38.135-.665.14-.285.385-.44.246-.155.565-.155.266 0 .47.11a.76.76 0 0 1 .315.31V22.73q0-.125.08-.2a.32.32 0 0 1 .225-.08m-.926 3.105q.3 0 .46-.205.165-.206.165-.585 0-.38-.165-.58a.54.54 0 0 0-.455-.205.57.57 0 0 0-.465.2q-.165.2-.165.575 0 .38.165.59.166.21.46.21m6.55-1.865a.3.3 0 0 1 .1-.135.27.27 0 0 1 .15-.045.3.3 0 0 1 .206.08q.095.075.095.19a.3.3 0 0 1-.025.115l-.825 1.935a.3.3 0 0 1-.125.145.35.35 0 0 1-.36 0 .3.3 0 0 1-.12-.145l-.595-1.43-.575 1.43a.3.3 0 0 1-.125.145.35.35 0 0 1-.36 0 .3.3 0 0 1-.125-.145l-.82-1.935a.24.24 0 0 1 .075-.305.33.33 0 0 1 .22-.085q.084 0 .155.045.069.045.105.135l.59 1.525.605-1.51a.3.3 0 0 1 .115-.14.3.3 0 0 1 .165-.05q.09 0 .165.05.075.045.115.14l.61 1.515zm2.874 1.64q.086 0 .135.065a.26.26 0 0 1 .055.175q0 .155-.185.26a1.65 1.65 0 0 1-.795.21q-.59 0-.935-.34t-.345-.93q0-.375.15-.665t.42-.45q.275-.16.62-.16.33 0 .575.145t.38.41.135.625q0 .215-.19.215h-1.475q.03.345.195.51.165.16.48.16.16 0 .28-.04.125-.04.28-.11.15-.08.22-.08m-.865-1.395a.55.55 0 0 0-.41.16q-.15.16-.18.46h1.13q-.01-.305-.15-.46a.49.49 0 0 0-.39-.16m2.646-.44q.51 0 .755.255.25.25.25.765v1.22a.3.3 0 0 1-.08.215.3.3 0 0 1-.22.075.3.3 0 0 1-.215-.08.28.28 0 0 1-.08-.21v-.11a.65.65 0 0 1-.27.305.8.8 0 0 1-.42.11 1 1 0 0 1-.445-.1.8.8 0 0 1-.315-.275.7.7 0 0 1-.115-.39q0-.27.135-.425.14-.154.45-.225.31-.07.855-.07h.125v-.115q0-.245-.105-.355-.105-.115-.34-.115-.145 0-.295.045a4 4 0 0 0-.355.12.5.5 0 0 1-.19.065.2.2 0 0 1-.15-.065.25.25 0 0 1-.055-.17q0-.085.04-.145a.4.4 0 0 1 .145-.12q.175-.095.415-.15.246-.055.48-.055m-.155 2.095a.53.53 0 0 0 .405-.165.6.6 0 0 0 .16-.435v-.105h-.09q-.335 0-.52.03a.5.5 0 0 0-.265.105.27.27 0 0 0-.08.205.35.35 0 0 0 .11.265q.115.1.28.1m2.105.44a.34.34 0 0 1-.225-.075.3.3 0 0 1-.085-.225v-2.985q0-.145.085-.22a.34.34 0 0 1 .225-.075.34.34 0 0 1 .225.075q.09.075.09.22v2.985q0 .146-.09.225a.34.34 0 0 1-.225.075m2.23-.465q.25.015.25.225 0 .12-.1.185a.47.47 0 0 1-.275.05l-.135-.01q-.84-.06-.84-.9v-1.09h-.25q-.135 0-.21-.06-.07-.06-.07-.175t.07-.175q.075-.06.21-.06h.25v-.46q0-.135.085-.215a.32.32 0 0 1 .23-.08q.14 0 .225.08a.28.28 0 0 1 .085.215v.46h.425q.135 0 .205.06.075.06.075.175t-.075.175q-.07.06-.205.06h-.425v1.135q0 .37.34.395zm2.006-2.07q.86 0 .86 1.005v1.23a.3.3 0 0 1-.085.22.3.3 0 0 1-.225.08.32.32 0 0 1-.23-.08.3.3 0 0 1-.085-.22V24.5q0-.265-.11-.385-.105-.125-.335-.125a.58.58 0 0 0-.435.17.64.64 0 0 0-.16.455v1.115a.3.3 0 0 1-.085.22.32.32 0 0 1-.23.08.32.32 0 0 1-.23-.08.3.3 0 0 1-.08-.22v-2.99q0-.13.085-.21a.33.33 0 0 1 .23-.08q.14 0 .225.075a.26.26 0 0 1 .085.205v1.165a.8.8 0 0 1 .33-.295q.21-.105.475-.105"/></svg>