<svg width="260" height="239" viewBox="0 0 260 239" fill="none" xmlns="http://www.w3.org/2000/svg">
<path d="M43.334 11.667V228.334L65.0007 217.5L86.6673 228.334L108.334 217.5L130.001 228.334L151.667 217.5L173.334 228.334L195.001 217.5L216.667 228.334V11.667L195.001 22.5003L173.334 11.667L151.667 22.5003L130.001 11.667L108.334 22.5003L86.6673 11.667L65.0007 22.5003L43.334 11.667Z" stroke="#8135F9" stroke-width="14" stroke-linecap="round" stroke-linejoin="round"/>
<path d="M173.335 76.667H108.335C102.588 76.667 97.0773 78.9497 93.014 83.013C88.9507 87.0763 86.668 92.5873 86.668 98.3337C86.668 104.08 88.9507 109.591 93.014 113.654C97.0773 117.718 102.588 120 108.335 120H151.668C157.414 120 162.925 122.283 166.989 126.346C171.052 130.41 173.335 135.921 173.335 141.667C173.335 147.413 171.052 152.924 166.989 156.988C162.925 161.051 157.414 163.334 151.668 163.334H86.668M130.001 179.584V60.417" stroke="#8135F9" stroke-width="14" stroke-linecap="round" stroke-linejoin="round"/>
</svg>
