<svg width="245" height="239" viewBox="0 0 245 239" fill="none" xmlns="http://www.w3.org/2000/svg">
<path d="M51.041 116.501C51.041 116.501 77.0212 65.459 122.499 65.459C167.967 65.459 193.958 116.501 193.958 116.501C193.958 116.501 167.967 167.542 122.499 167.542C77.0314 167.542 51.041 116.501 51.041 116.501Z" stroke="#8135F9" stroke-width="18" stroke-linecap="round" stroke-linejoin="round"/>
<path d="M214.375 167.542V187.958C214.375 193.373 212.224 198.566 208.395 202.395C204.566 206.224 199.373 208.375 193.958 208.375H51.0417C45.6268 208.375 40.4338 206.224 36.6049 202.395C32.776 198.566 30.625 193.373 30.625 187.958V167.542M214.375 65.4583V45.0417C214.375 39.6268 212.224 34.4338 208.395 30.6049C204.566 26.776 199.373 24.625 193.958 24.625H51.0417C45.6268 24.625 40.4338 26.776 36.6049 30.6049C32.776 34.4338 30.625 39.6268 30.625 45.0417V65.4583M122.5 126.708C125.207 126.708 127.804 125.633 129.718 123.718C131.633 121.804 132.708 119.207 132.708 116.5C132.708 113.793 131.633 111.196 129.718 109.282C127.804 107.367 125.207 106.292 122.5 106.292C119.793 106.292 117.196 107.367 115.282 109.282C113.367 111.196 112.292 113.793 112.292 116.5C112.292 119.207 113.367 121.804 115.282 123.718C117.196 125.633 119.793 126.708 122.5 126.708Z" stroke="#8135F9" stroke-width="18" stroke-linecap="round" stroke-linejoin="round"/>
</svg>
