<svg width="245" height="239" viewBox="0 0 245 239" fill="none" xmlns="http://www.w3.org/2000/svg">
<path d="M30.625 71.4583V51.0417C30.625 39.8125 39.8125 30.625 51.0417 30.625H71.4583M173.542 30.625H193.958C205.187 30.625 214.375 39.8125 214.375 51.0417V71.4583M214.375 173.542V193.958C214.375 205.187 205.187 214.375 193.958 214.375H173.542M71.4583 214.375H51.0417C39.8125 214.375 30.625 205.187 30.625 193.958V173.542" stroke="#8135F9" stroke-width="18" stroke-linecap="round" stroke-linejoin="round"/>
<path d="M132.709 71.459H81.6673C76.0294 71.459 71.459 76.0294 71.459 81.6673V112.292C71.459 117.93 76.0294 122.501 81.6673 122.501H132.709C138.347 122.501 142.917 117.93 142.917 112.292V81.6673C142.917 76.0294 138.347 71.459 132.709 71.459Z" stroke="#8135F9" stroke-width="18" stroke-linecap="round" stroke-linejoin="round"/>
<path d="M163.334 122.5H112.292C106.654 122.5 102.084 127.07 102.084 132.708V163.333C102.084 168.971 106.654 173.542 112.292 173.542H163.334C168.972 173.542 173.542 168.971 173.542 163.333V132.708C173.542 127.07 168.972 122.5 163.334 122.5Z" stroke="#8135F9" stroke-width="18" stroke-linecap="round" stroke-linejoin="round"/>
</svg>
