<svg width="245" height="239" viewBox="0 0 245 239" fill="none" xmlns="http://www.w3.org/2000/svg">
<path d="M151.952 185.75H151.956C158.45 185.735 164.045 183.421 168.626 178.847C173.209 174.271 175.528 168.672 175.542 162.164C175.557 155.65 173.24 150.047 168.633 145.469C164.034 140.9 158.439 138.581 151.959 138.559C145.468 138.537 139.866 140.856 135.265 145.465C130.665 150.071 128.343 155.674 128.351 162.162C128.358 168.647 130.679 174.241 135.265 178.834C139.853 183.43 145.453 185.75 151.952 185.75ZM38.834 197.889L38.834 197.892C38.8415 203.09 40.6044 207.531 44.1462 211.073C47.6882 214.615 52.1272 216.375 57.3204 216.375H187.668C192.875 216.383 197.323 214.623 200.867 211.072C204.407 207.523 206.167 203.082 206.167 197.889V67.5415C206.175 62.346 204.414 57.9028 200.865 54.3542C197.317 50.8063 192.875 49.0419 187.681 49.0419H171.622V28.2773V26.2773H169.622H159.414H157.414V28.2773V49.0419H88.3836V28.2773V26.2773H86.3836H75.3892H73.3892V28.2773V49.0419L57.3307 49.0419L57.3278 49.0419C52.1355 49.0495 47.6952 50.8129 44.1478 54.3526C40.5984 57.8943 38.834 62.3338 38.834 67.5284L38.834 197.889ZM57.3204 202.167L57.3118 202.167C56.3699 202.171 55.4221 201.803 54.4202 200.796C53.4128 199.784 53.0423 198.83 53.0423 197.889V110.372H191.959L191.959 197.879L191.959 197.887C191.963 198.838 191.594 199.789 190.588 200.789C189.576 201.796 188.622 202.167 187.681 202.167L57.3204 202.167ZM190.581 64.6208L191.999 63.2103L190.581 64.6208C191.589 65.6334 191.959 66.5876 191.959 67.5284V96.1534H53.0423L53.0423 67.5386L53.0423 67.53C53.0382 66.5789 53.4077 65.628 54.4129 64.6281C55.4235 63.6227 56.3807 63.2503 57.3307 63.2503L187.671 63.2503L187.679 63.2502C188.63 63.2461 189.581 63.6157 190.581 64.6208Z" fill="#8135F9" stroke="#8135F9" stroke-width="4"/>
</svg>
