<svg width="245" height="239" viewBox="0 0 245 239" fill="none" xmlns="http://www.w3.org/2000/svg">
<mask id="path-1-outside-1_8868_43105" maskUnits="userSpaceOnUse" x="34.4746" y="34.1484" width="177" height="187" fill="black">
<rect fill="white" x="34.4746" y="34.1484" width="177" height="187"/>
<path d="M54.9713 216.723C50.2754 216.723 46.352 215.151 43.2011 212.007C40.0501 208.863 38.4746 204.943 38.4746 200.247V167.54L71.2638 130.534L78.5423 137.813L49.1015 171.194H195.897L166.967 138.323L174.245 131.045L206.524 167.54V200.247C206.524 204.943 204.949 208.863 201.798 212.007C198.647 215.151 194.727 216.727 190.038 216.734L54.9713 216.723ZM54.9713 206.515H190.028C191.729 206.515 193.202 205.896 194.448 204.657C195.693 203.419 196.316 201.948 196.316 200.247V181.392H48.6829V200.247C48.6829 201.948 49.3057 203.419 50.5511 204.657C51.7965 205.903 53.2699 206.525 54.9713 206.525M111.219 142.039L80.7269 111.159C77.4602 107.892 75.8711 104 75.9596 99.4806C76.0481 94.9618 77.7223 91.0724 80.9821 87.8125L125.695 43.1C128.961 39.8333 132.83 38.183 137.301 38.149C141.773 38.1149 145.642 39.7245 148.908 42.9775L179.584 73.6638C182.851 76.9168 184.501 80.762 184.535 85.1992C184.569 89.6364 182.96 93.4849 179.707 96.7448L134.361 142.09C131.095 145.35 127.236 146.97 122.785 146.949C118.328 146.929 114.469 145.292 111.209 142.039M172.173 89.7725C173.214 88.7245 173.735 87.2204 173.735 85.2604C173.735 83.3004 173.214 81.7964 172.173 80.7483L141.875 50.45C140.827 49.4088 139.323 48.8881 137.363 48.8881C135.403 48.8881 133.899 49.4088 132.851 50.45L87.9952 95.2952C86.9472 96.3365 86.4231 97.8405 86.4231 99.8073C86.4231 101.774 86.9472 103.278 87.9952 104.319L118.294 134.618C119.335 135.666 120.839 136.19 122.806 136.19C124.772 136.19 126.276 135.666 127.318 134.618L172.173 89.7725Z"/>
</mask>
<path d="M54.9713 216.723C50.2754 216.723 46.352 215.151 43.2011 212.007C40.0501 208.863 38.4746 204.943 38.4746 200.247V167.54L71.2638 130.534L78.5423 137.813L49.1015 171.194H195.897L166.967 138.323L174.245 131.045L206.524 167.54V200.247C206.524 204.943 204.949 208.863 201.798 212.007C198.647 215.151 194.727 216.727 190.038 216.734L54.9713 216.723ZM54.9713 206.515H190.028C191.729 206.515 193.202 205.896 194.448 204.657C195.693 203.419 196.316 201.948 196.316 200.247V181.392H48.6829V200.247C48.6829 201.948 49.3057 203.419 50.5511 204.657C51.7965 205.903 53.2699 206.525 54.9713 206.525M111.219 142.039L80.7269 111.159C77.4602 107.892 75.8711 104 75.9596 99.4806C76.0481 94.9618 77.7223 91.0724 80.9821 87.8125L125.695 43.1C128.961 39.8333 132.83 38.183 137.301 38.149C141.773 38.1149 145.642 39.7245 148.908 42.9775L179.584 73.6638C182.851 76.9168 184.501 80.762 184.535 85.1992C184.569 89.6364 182.96 93.4849 179.707 96.7448L134.361 142.09C131.095 145.35 127.236 146.97 122.785 146.949C118.328 146.929 114.469 145.292 111.209 142.039M172.173 89.7725C173.214 88.7245 173.735 87.2204 173.735 85.2604C173.735 83.3004 173.214 81.7964 172.173 80.7483L141.875 50.45C140.827 49.4088 139.323 48.8881 137.363 48.8881C135.403 48.8881 133.899 49.4088 132.851 50.45L87.9952 95.2952C86.9472 96.3365 86.4231 97.8405 86.4231 99.8073C86.4231 101.774 86.9472 103.278 87.9952 104.319L118.294 134.618C119.335 135.666 120.839 136.19 122.806 136.19C124.772 136.19 126.276 135.666 127.318 134.618L172.173 89.7725Z" fill="#8135F9"/>
<path d="M50.6829 206.525V181.392H46.6829V206.525H50.6829ZM54.9713 216.723L54.9716 212.723H54.9713V216.723ZM38.4746 200.247H42.4746H38.4746ZM38.4746 167.54L35.4808 164.887L34.4746 166.022V167.54H38.4746ZM71.2638 130.534L74.0922 127.706L71.0878 124.702L68.27 127.882L71.2638 130.534ZM78.5423 137.813L81.5423 140.459L84.0273 137.641L81.3707 134.985L78.5423 137.813ZM49.1015 171.194L46.1015 168.548L40.2402 175.194H49.1015V171.194ZM195.897 171.194V175.194H204.746L198.9 168.551L195.897 171.194ZM166.967 138.323L164.138 135.495L161.485 138.149L163.964 140.966L166.967 138.323ZM174.245 131.045L177.242 128.395L174.424 125.209L171.417 128.216L174.245 131.045ZM206.524 167.54H210.524V166.024L209.52 164.89L206.524 167.54ZM190.038 216.734L190.037 220.734L190.044 220.734L190.038 216.734ZM196.316 181.392H200.316V177.392H196.316V181.392ZM48.6829 181.392V177.392H44.6829V181.392H48.6829ZM50.5511 204.657L53.3795 201.829L53.3717 201.821L50.5511 204.657ZM80.7269 111.159L83.5732 108.348L83.5643 108.339L83.5553 108.331L80.7269 111.159ZM80.9821 87.8125L83.8105 90.6409L80.9821 87.8125ZM125.695 43.1L122.866 40.2716L122.866 40.2716L125.695 43.1ZM148.908 42.9775L151.737 40.1495L151.731 40.1432L148.908 42.9775ZM179.584 73.6638L176.755 76.4917L176.762 76.4981L179.584 73.6638ZM179.707 96.7448L182.535 99.5732L182.538 99.5703L179.707 96.7448ZM134.361 142.09L137.187 144.922L137.19 144.919L134.361 142.09ZM122.785 146.949L122.804 142.949H122.804L122.785 146.949ZM172.173 89.7725L175.001 92.6013L175.011 92.5917L172.173 89.7725ZM172.173 80.7483L175.011 77.9291L175.002 77.9199L172.173 80.7483ZM141.875 50.45L144.703 47.6216L144.694 47.6124L141.875 50.45ZM132.851 50.45L130.031 47.6124L130.023 47.6213L132.851 50.45ZM87.9952 95.2952L90.8144 98.1329L90.8233 98.124L87.9952 95.2952ZM87.9952 104.319L90.8237 101.491L90.8144 101.482L87.9952 104.319ZM118.294 134.618L121.131 131.799L121.122 131.789L118.294 134.618ZM127.318 134.618L124.49 131.789L124.48 131.799L127.318 134.618ZM54.9713 212.723C51.2702 212.723 48.383 211.527 46.0264 209.176L40.3757 214.839C44.3211 218.775 49.2807 220.723 54.9713 220.723V212.723ZM46.0264 209.176C43.6722 206.826 42.4746 203.945 42.4746 200.247H34.4746C34.4746 205.94 36.428 210.899 40.3757 214.839L46.0264 209.176ZM42.4746 200.247V167.54H34.4746V200.247H42.4746ZM41.4684 170.192L74.2576 133.187L68.27 127.882L35.4808 164.887L41.4684 170.192ZM68.4353 133.363L75.7139 140.641L81.3707 134.985L74.0922 127.706L68.4353 133.363ZM75.5424 135.167L46.1015 168.548L52.1014 173.84L81.5423 140.459L75.5424 135.167ZM49.1015 175.194H195.897V167.194H49.1015V175.194ZM198.9 168.551L169.97 135.681L163.964 140.966L192.895 173.837L198.9 168.551ZM169.795 141.152L177.074 133.873L171.417 128.216L164.138 135.495L169.795 141.152ZM171.249 133.695L203.528 170.19L209.52 164.89L177.242 128.395L171.249 133.695ZM202.524 167.54V200.247H210.524V167.54H202.524ZM202.524 200.247C202.524 203.945 201.327 206.826 198.972 209.176L204.623 214.839C208.571 210.899 210.524 205.94 210.524 200.247H202.524ZM198.972 209.176C196.613 211.53 193.726 212.728 190.032 212.734L190.044 220.734C195.727 220.725 200.68 218.773 204.623 214.839L198.972 209.176ZM190.038 212.734L54.9716 212.723L54.971 220.723L190.037 220.734L190.038 212.734ZM54.9713 210.515H190.028V202.515H54.9713V210.515ZM190.028 210.515C192.824 210.515 195.301 209.45 197.268 207.493L191.627 201.821C191.104 202.341 190.634 202.515 190.028 202.515V210.515ZM197.268 207.493C199.241 205.531 200.316 203.051 200.316 200.247H192.316C192.316 200.846 192.145 201.306 191.627 201.821L197.268 207.493ZM200.316 200.247V181.392H192.316V200.247H200.316ZM196.316 177.392H48.6829V185.392H196.316V177.392ZM44.6829 181.392V200.247H52.6829V181.392H44.6829ZM44.6829 200.247C44.6829 203.051 45.7574 205.531 47.7304 207.493L53.3717 201.821C52.8539 201.306 52.6829 200.846 52.6829 200.247H44.6829ZM47.7226 207.486C49.6887 209.452 52.168 210.525 54.9713 210.525V202.525C54.3718 202.525 53.9043 202.353 53.3795 201.829L47.7226 207.486ZM114.065 139.229L83.5732 108.348L77.8807 113.969L108.373 144.85L114.065 139.229ZM83.5553 108.331C81.0388 105.814 79.8922 102.963 79.9588 99.5589L71.9604 99.4023C71.8501 105.036 73.8817 109.971 77.8985 113.987L83.5553 108.331ZM79.9588 99.5589C80.0266 96.0964 81.2654 93.1861 83.8105 90.6409L78.1537 84.9841C74.1791 88.9586 72.0695 93.8271 71.9604 99.4023L79.9588 99.5589ZM83.8105 90.6409L128.523 45.9284L122.866 40.2716L78.1537 84.9841L83.8105 90.6409ZM128.523 45.9284C131.074 43.377 133.949 42.1746 137.332 42.1488L137.271 34.1491C131.711 34.1914 126.848 36.2897 122.866 40.2716L128.523 45.9284ZM137.332 42.1488C140.698 42.1232 143.55 43.2865 146.086 45.8118L151.731 40.1432C147.733 36.1624 142.847 34.1066 137.271 34.1491L137.332 42.1488ZM146.079 45.8055L176.756 76.4917L182.413 70.8358L151.737 40.1496L146.079 45.8055ZM176.762 76.4981C179.315 79.0403 180.51 81.8906 180.536 85.2299L188.535 85.1685C188.493 79.6334 186.387 74.7934 182.407 70.8294L176.762 76.4981ZM180.536 85.2299C180.561 88.5526 179.405 91.3848 176.876 93.9193L182.538 99.5703C186.515 95.5851 188.578 90.7202 188.535 85.1685L180.536 85.2299ZM176.878 93.9164L131.533 139.262L137.19 144.919L182.535 99.5732L176.878 93.9164ZM131.536 139.259C128.993 141.797 126.146 142.965 122.804 142.949L122.767 150.949C128.327 150.975 133.197 148.903 137.187 144.922L131.536 139.259ZM122.804 142.949C119.437 142.934 116.576 141.744 114.034 139.208L108.384 144.871C112.361 148.84 117.218 150.924 122.767 150.949L122.804 142.949ZM175.011 92.5917C177.015 90.5743 177.735 87.92 177.735 85.2604H169.735C169.735 86.5209 169.414 86.8746 169.336 86.9533L175.011 92.5917ZM177.735 85.2604C177.735 82.6009 177.015 79.9465 175.011 77.9291L169.336 83.5675C169.414 83.6463 169.735 84 169.735 85.2604H177.735ZM175.002 77.9199L144.703 47.6216L139.046 53.2784L169.345 83.5768L175.002 77.9199ZM144.694 47.6124C142.677 45.6081 140.022 44.8881 137.363 44.8881V52.8881C138.623 52.8881 138.977 53.2094 139.056 53.2876L144.694 47.6124ZM137.363 44.8881C134.703 44.8881 132.049 45.6081 130.031 47.6124L135.67 53.2876C135.749 53.2094 136.102 52.8881 137.363 52.8881V44.8881ZM130.023 47.6213L85.1671 92.4665L90.8233 98.124L135.679 53.2788L130.023 47.6213ZM85.176 92.4576C83.1475 94.473 82.4231 97.1403 82.4231 99.8073H90.4231C90.4231 98.5407 90.7469 98.1999 90.8144 98.1328L85.176 92.4576ZM82.4231 99.8073C82.4231 102.474 83.1475 105.142 85.176 107.157L90.8144 101.482C90.7469 101.415 90.4231 101.074 90.4231 99.8073H82.4231ZM85.1668 107.148L115.465 137.446L121.122 131.789L90.8237 101.491L85.1668 107.148ZM115.456 137.437C117.471 139.466 120.139 140.19 122.806 140.19V132.19C121.539 132.19 121.198 131.866 121.131 131.799L115.456 137.437ZM122.806 140.19C125.473 140.19 128.14 139.466 130.155 137.437L124.48 131.799C124.413 131.866 124.072 132.19 122.806 132.19V140.19ZM130.146 137.446L175.001 92.6013L169.345 86.9438L124.49 131.789L130.146 137.446Z" fill="#8135F9" mask="url(#path-1-outside-1_8868_43105)"/>
</svg>
