<svg width="270" height="239" viewBox="0 0 270 239" fill="none" xmlns="http://www.w3.org/2000/svg">
<path d="M56.25 232.5C50.0625 232.5 44.7675 230.299 40.365 225.896C35.9625 221.494 33.7575 216.195 33.75 210V158.812L64.6875 123.656L80.7188 139.688L58.2188 165H211.781L189.844 140.25L205.875 124.219L236.25 158.812V210C236.25 216.188 234.049 221.486 229.646 225.896C225.244 230.306 219.945 232.508 213.75 232.5H56.25ZM56.25 210H213.75V187.5H56.25V210ZM119.531 146.719L79.875 107.063C75.5625 102.75 73.455 97.455 73.5525 91.1775C73.65 84.9 75.8512 79.6012 80.1562 75.2812L135.281 20.1562C139.594 15.8437 144.938 13.5938 151.312 13.4063C157.688 13.2188 163.031 15.2812 167.344 19.5937L207 59.25C211.312 63.5625 213.562 68.8125 213.75 75C213.938 81.1875 211.875 86.4375 207.563 90.75L151.312 147C147 151.312 141.705 153.424 135.427 153.334C129.15 153.244 123.851 151.039 119.531 146.719ZM191.25 75.2812L151.594 35.625L95.9062 91.3125L135.562 130.969L191.25 75.2812Z" fill="#8135F9"/>
</svg>
