<svg width="245" height="239" viewBox="0 0 245 239" fill="none" xmlns="http://www.w3.org/2000/svg">
<path d="M91.8757 132.708H193.959L158.74 86.7702L135.261 117.395L119.438 96.9785L91.8757 132.708ZM30.6257 214.374C25.0111 214.374 20.2063 212.377 16.2115 208.382C12.2166 204.387 10.2158 199.579 10.209 193.958V61.2493H30.6257V193.958H204.167V214.374H30.6257ZM71.459 173.541C65.8444 173.541 61.0397 171.544 57.0448 167.549C53.05 163.554 51.0491 158.746 51.0423 153.124V40.8327C51.0423 35.2181 53.0432 30.4134 57.0448 26.4185C61.0465 22.4237 65.8512 20.4228 71.459 20.416H122.501L142.917 40.8327H214.376C219.99 40.8327 224.798 42.8335 228.8 46.8352C232.802 50.8368 234.799 55.6416 234.792 61.2493V153.124C234.792 158.739 232.795 163.547 228.8 167.549C224.805 171.55 219.997 173.548 214.376 173.541H71.459ZM71.459 153.124H214.376V61.2493H134.495L114.079 40.8327H71.459V153.124Z" fill="#8135F9"/>
</svg>
