<svg width="245" height="239" viewBox="0 0 245 239" fill="none" xmlns="http://www.w3.org/2000/svg">
<path d="M51.0417 214.375C45.4271 214.375 40.6224 212.378 36.6275 208.383C32.6326 204.388 30.6318 199.58 30.625 193.958V51.0417C30.625 45.4271 32.6258 40.6224 36.6275 36.6275C40.6292 32.6326 45.4339 30.6318 51.0417 30.625H142.917V51.0417H51.0417V193.958H193.958V102.083H214.375V193.958C214.375 199.573 212.378 204.381 208.383 208.383C204.388 212.384 199.58 214.382 193.958 214.375H51.0417ZM81.6667 173.542V153.125H163.333V173.542H81.6667ZM81.6667 142.917V122.5H163.333V142.917H81.6667ZM81.6667 112.292V91.875H163.333V112.292H81.6667ZM173.542 91.875V71.4583H153.125V51.0417H173.542V30.625H193.958V51.0417H214.375V71.4583H193.958V91.875H173.542Z" fill="#8135F9"/>
</svg>
