<svg width="245" height="239" viewBox="0 0 245 239" fill="none" xmlns="http://www.w3.org/2000/svg">
<path d="M71.4583 173.542H91.875V122.5H71.4583V173.542ZM153.125 173.542H173.542V71.4583H153.125V173.542ZM112.292 173.542H132.708V142.917H112.292V173.542ZM112.292 122.5H132.708V102.083H112.292V122.5ZM51.0417 214.375C45.4271 214.375 40.6224 212.378 36.6275 208.383C32.6326 204.388 30.6318 199.58 30.625 193.958V51.0417C30.625 45.4271 32.6258 40.6224 36.6275 36.6275C40.6292 32.6326 45.4339 30.6318 51.0417 30.625H193.958C199.573 30.625 204.381 32.6258 208.383 36.6275C212.384 40.6292 214.382 45.4339 214.375 51.0417V193.958C214.375 199.573 212.378 204.381 208.383 208.383C204.388 212.384 199.58 214.382 193.958 214.375H51.0417ZM51.0417 193.958H193.958V51.0417H51.0417V193.958Z" fill="#8135F9"/>
</svg>
