<svg width="270" height="239" viewBox="0 0 270 239" fill="none" xmlns="http://www.w3.org/2000/svg">
<path d="M33.75 210V187.5H236.25V210H33.75ZM33.75 52.5V30H236.25V52.5H33.75ZM56.25 165C50.0625 165 44.7675 162.799 40.365 158.396C35.9625 153.994 33.7575 148.695 33.75 142.5V97.5C33.75 91.3125 35.955 86.0175 40.365 81.615C44.775 77.2125 50.07 75.0075 56.25 75H213.75C219.938 75 225.236 77.205 229.646 81.615C234.056 86.025 236.258 91.32 236.25 97.5V142.5C236.25 148.688 234.049 153.986 229.646 158.396C225.244 162.806 219.945 165.008 213.75 165H56.25ZM56.25 142.5H213.75V97.5H56.25V142.5Z" fill="#8135F9"/>
</svg>
