<svg width="244" height="239" viewBox="0 0 244 239" fill="none" xmlns="http://www.w3.org/2000/svg">
<path d="M162.666 15.333C134.606 15.333 111.833 38.1063 111.833 66.1663C111.833 94.2263 134.606 117 162.666 117C190.726 117 213.499 94.2263 213.499 66.1663C213.499 38.1063 190.726 15.333 162.666 15.333ZM162.666 96.6663C145.789 96.6663 132.166 83.043 132.166 66.1663C132.166 49.2897 145.789 35.6663 162.666 35.6663C179.543 35.6663 193.166 49.2897 193.166 66.1663C193.166 83.043 179.543 96.6663 162.666 96.6663ZM193.166 157.666H172.833C172.833 145.466 165.208 134.486 153.821 130.216L91.1944 106.833H10.166V218.666H71.166V204.026L142.333 223.75L223.666 198.333V188.166C223.666 171.29 210.043 157.666 193.166 157.666ZM50.8327 198.333H30.4993V127.166H50.8327V198.333ZM142.028 202.501L71.166 183.083V127.166H87.5343L146.704 149.228C150.161 150.55 152.499 153.905 152.499 157.666C152.499 157.666 132.166 157.158 129.116 156.141L104.919 148.11L98.5144 167.426L122.711 175.458C127.896 177.186 133.284 178 138.774 178H193.166C197.131 178 200.689 180.44 202.316 183.795L142.028 202.501Z" fill="#8135F9"/>
</svg>
