<svg width="270" height="239" viewBox="0 0 270 239" fill="none" xmlns="http://www.w3.org/2000/svg">
<path d="M202.5 131.25L236.25 165V210C236.25 215.968 233.879 221.691 229.66 225.91C225.44 230.13 219.717 232.5 213.75 232.5H56.25C50.2826 232.5 44.5597 230.13 40.3401 225.91C36.1205 221.691 33.75 215.968 33.75 210V165L67.5 131.25H76.8375L99.3375 153.75H76.275L56.25 176.25H213.75L193.837 153.75H172.35L194.85 131.25H202.5ZM213.75 210V198.75H56.25V210H213.75ZM127.575 153.75L71.8875 98.2879C70.8446 97.2472 70.0172 96.0109 69.4526 94.65C68.8881 93.289 68.5975 91.8301 68.5975 90.3567C68.5975 88.8833 68.8881 87.4244 69.4526 86.0634C70.0172 84.7025 70.8446 83.4662 71.8875 82.4255L143.55 10.763C144.58 9.71558 145.81 8.88578 147.167 8.32281C148.524 7.75983 149.98 7.47514 151.449 7.48563C152.918 7.49612 154.37 7.80158 155.718 8.38389C157.067 8.96619 158.285 9.81347 159.3 10.8755L214.988 66.563C219.375 70.9505 219.375 78.0379 214.988 82.4255L143.438 153.75C142.426 154.845 141.2 155.718 139.835 156.315C138.47 156.912 136.996 157.22 135.506 157.22C134.016 157.22 132.543 156.912 131.178 156.315C129.813 155.718 128.586 154.845 127.575 153.75ZM151.425 34.6129L95.625 90.3004L135.562 130.125L191.25 74.438L151.425 34.6129Z" fill="#8135F9"/>
</svg>
