<svg width="245" height="239" viewBox="0 0 245 239" fill="none" xmlns="http://www.w3.org/2000/svg">
<g clip-path="url(#clip0_8868_43076)">
<path fill-rule="evenodd" clip-rule="evenodd" d="M51.0413 91.8744C51.0413 72.9224 58.5699 54.7467 71.9709 41.3457C85.372 27.9446 103.548 20.416 122.5 20.416C141.452 20.416 159.627 27.9446 173.028 41.3457C186.429 54.7467 193.958 72.9224 193.958 91.8744V130.299L212.558 167.498C213.414 169.21 213.818 171.112 213.732 173.025C213.646 174.937 213.073 176.796 212.066 178.424C211.06 180.052 209.654 181.396 207.981 182.329C206.309 183.261 204.427 183.75 202.513 183.749H162.047C159.776 192.511 154.66 200.27 147.502 205.809C140.345 211.348 131.55 214.353 122.5 214.353C113.449 214.353 104.654 211.348 97.4967 205.809C90.339 200.27 85.2232 192.511 82.9525 183.749H42.4867C40.5724 183.75 38.6898 183.261 37.0177 182.329C35.3457 181.396 33.9396 180.052 32.9332 178.424C31.9267 176.796 31.3532 174.937 31.2672 173.025C31.1812 171.112 31.5855 169.21 32.4417 167.498L51.0413 130.299V91.8744ZM104.819 183.749C106.611 186.853 109.188 189.43 112.292 191.222C115.395 193.014 118.916 193.957 122.5 193.957C126.083 193.957 129.604 193.014 132.707 191.222C135.811 189.43 138.388 186.853 140.18 183.749H104.819ZM122.5 40.8327C108.963 40.8327 95.9799 46.2103 86.4077 55.7824C76.8355 65.3546 71.4579 78.3373 71.4579 91.8744V130.299C71.4577 133.467 70.7203 136.591 69.304 139.425L57.3602 163.333H187.649L175.705 139.425C174.286 136.592 173.545 133.467 173.541 130.299V91.8744C173.541 78.3373 168.164 65.3546 158.592 55.7824C149.019 46.2103 136.037 40.8327 122.5 40.8327Z" fill="#8135F9"/>
</g>
<defs>
<clipPath id="clip0_8868_43076">
<rect width="245" height="245" fill="white"/>
</clipPath>
</defs>
</svg>
