<svg width="240" height="239" viewBox="0 0 240 239" fill="none" xmlns="http://www.w3.org/2000/svg">
<g clip-path="url(#clip0_8868_43102)">
<path d="M63.75 108.75C60.7663 108.75 57.9048 109.935 55.795 112.045C53.6853 114.155 52.5 117.016 52.5 120C52.5 122.984 53.6853 125.845 55.795 127.955C57.9048 130.065 60.7663 131.25 63.75 131.25H176.25C179.234 131.25 182.095 130.065 184.205 127.955C186.315 125.845 187.5 122.984 187.5 120C187.5 117.016 186.315 114.155 184.205 112.045C182.095 109.935 179.234 108.75 176.25 108.75H63.75Z" fill="#8135F9"/>
<path d="M240 120C240 151.826 227.357 182.348 204.853 204.853C182.348 227.357 151.826 240 120 240C88.174 240 57.6516 227.357 35.1472 204.853C12.6428 182.348 0 151.826 0 120C0 88.174 12.6428 57.6516 35.1472 35.1472C57.6516 12.6428 88.174 0 120 0C151.826 0 182.348 12.6428 204.853 35.1472C227.357 57.6516 240 88.174 240 120ZM217.5 120C217.5 94.1414 207.228 69.3419 188.943 51.0571C170.658 32.7723 145.859 22.5 120 22.5C94.1414 22.5 69.3419 32.7723 51.0571 51.0571C32.7723 69.3419 22.5 94.1414 22.5 120C22.5 145.859 32.7723 170.658 51.0571 188.943C69.3419 207.228 94.1414 217.5 120 217.5C145.859 217.5 170.658 207.228 188.943 188.943C207.228 170.658 217.5 145.859 217.5 120Z" fill="#8135F9"/>
</g>
<defs>
<clipPath id="clip0_8868_43102">
<rect width="240" height="240" fill="white"/>
</clipPath>
</defs>
</svg>
