<svg width="256" height="239" viewBox="0 0 256 239" fill="none" xmlns="http://www.w3.org/2000/svg">
<path d="M229.66 109.661L181.66 157.661C180.159 159.162 178.123 160.005 176 160.005C173.877 160.005 171.841 159.162 170.34 157.661C168.839 156.159 167.996 154.123 167.996 152.001C167.996 149.878 168.839 147.842 170.34 146.341L204.69 112.001H165C145.487 111.995 126.525 118.476 111.096 130.423C95.6681 142.37 84.6483 159.107 79.77 178.001C79.2396 180.056 77.9143 181.816 76.0859 182.895C74.2574 183.973 72.0754 184.281 70.02 183.751C67.9646 183.22 66.204 181.895 65.1257 180.066C64.0474 178.238 63.7396 176.056 64.27 174.001C70.0261 151.666 83.0476 131.88 101.284 117.759C119.52 103.638 141.935 95.983 165 96.0005H204.71L170.34 61.6605C169.597 60.9173 169.007 60.0349 168.605 59.0637C168.203 58.0926 167.996 57.0517 167.996 56.0005C167.996 54.9494 168.203 53.9085 168.605 52.9374C169.007 51.9662 169.597 51.0838 170.34 50.3405C171.841 48.8394 173.877 47.9961 176 47.9961C177.051 47.9961 178.092 48.2031 179.063 48.6054C180.034 49.0077 180.917 49.5973 181.66 50.3405L229.66 98.3405C230.404 99.0835 230.994 99.9658 231.396 100.937C231.799 101.908 232.006 102.949 232.006 104.001C232.006 105.052 231.799 106.093 231.396 107.064C230.994 108.035 230.404 108.918 229.66 109.661ZM192 208.001H40V88.0005C40 85.8788 39.1571 83.844 37.6569 82.3437C36.1566 80.8434 34.1217 80.0005 32 80.0005C29.8783 80.0005 27.8434 80.8434 26.3431 82.3437C24.8429 83.844 24 85.8788 24 88.0005V216.001C24 218.122 24.8429 220.157 26.3431 221.657C27.8434 223.158 29.8783 224.001 32 224.001H192C194.122 224.001 196.157 223.158 197.657 221.657C199.157 220.157 200 218.122 200 216.001C200 213.879 199.157 211.844 197.657 210.344C196.157 208.843 194.122 208.001 192 208.001Z" fill="#8135F9"/>
</svg>
