<svg width="245" height="239" viewBox="0 0 245 239" fill="none" xmlns="http://www.w3.org/2000/svg">
<path d="M158.228 153.125L142.915 107.188C126 107.188 122.499 120.897 122.499 137.812M122.499 137.812V153.125M122.499 137.812C122.499 120.897 118.997 107.188 102.082 107.188L86.7695 153.125" stroke="#8135F9" stroke-width="13" stroke-linecap="round" stroke-linejoin="round"/>
<path d="M224.358 224.582C212.619 217.743 192.855 202.267 166.273 204.247C159.545 204.748 156.177 205.003 153.104 204.758C151.987 204.72 150.872 204.621 149.766 204.462C134.127 200.838 122.499 187.179 122.499 170.887M122.499 170.887V32.625M122.499 170.887C122.499 187.179 110.872 200.848 95.2329 204.462C95.0594 204.503 94.9675 204.513 91.8948 204.758C88.8221 205.003 85.4533 204.748 78.726 204.247C52.1435 202.267 32.3802 217.743 20.6406 224.582M122.499 32.625C122.505 29.7975 123.491 27.0594 125.289 24.8774C127.088 22.6955 129.587 21.2047 132.361 20.6593C135.136 20.1138 138.013 20.5473 140.504 21.886C142.995 23.2247 144.944 25.3857 146.019 28.0006L173.766 95.8248C184.648 122.417 190.089 135.709 199.572 142.548C200.154 142.977 201.236 143.702 201.849 144.08C211.761 150.266 216.038 150.266 224.583 150.266M122.499 32.625C122.494 29.7975 121.508 27.0594 119.709 24.8774C117.911 22.6955 115.412 21.2047 112.637 20.6593C109.863 20.1138 106.985 20.5473 104.495 21.886C102.004 23.2247 100.055 25.3857 98.9794 28.0006L71.2331 95.835C60.351 122.428 54.91 135.729 45.4264 142.559C44.6815 143.089 43.9224 143.6 43.15 144.09C33.2377 150.276 28.9604 150.276 20.416 150.276" stroke="#8135F9" stroke-width="13" stroke-linecap="round" stroke-linejoin="round"/>
</svg>
