<svg width="220" height="200" viewBox="0 0 220 200" fill="none" xmlns="http://www.w3.org/2000/svg">
<path d="M184.17 137.13C223.68 87.0296 213.01 37.3497 184.63 19.9397C157.81 3.48965 134.4 10.1196 120.34 20.6796L110 28.4197M184.17 137.13C174.69 149.16 162.32 161.2 146.6 172.83C131.15 184.28 123.42 190 110 190C96.5798 190 88.8598 184.28 73.3998 172.83C-7.78019 112.75 0.179811 41.5297 35.3698 19.9397C62.1898 3.48965 85.5998 10.1196 99.6598 20.6796L110 28.4197M184.17 137.13L128.92 74.4497C127.823 73.2094 126.322 72.3983 124.683 72.1603C123.044 71.9222 121.374 72.2728 119.97 73.1496L98.1098 86.8097C93.8229 89.5217 88.6534 90.4708 83.6827 89.4584C78.7121 88.4461 74.3255 85.5507 71.4408 81.378C68.5562 77.2054 67.3969 72.0789 68.2056 67.071C69.0143 62.0632 71.7283 57.5622 75.7798 54.5097L110 28.4197" stroke="#8135F9" stroke-width="20" stroke-linecap="round" stroke-linejoin="round"/>
</svg>
