<svg width="280" height="239" viewBox="0 0 280 239" fill="none" xmlns="http://www.w3.org/2000/svg">
<path d="M116.667 26.667C72.6723 26.667 50.669 26.667 37.0073 40.3403C23.334 54.002 23.334 76.0053 23.334 120C23.334 163.995 23.334 185.999 37.0073 199.66C50.669 213.334 72.6723 213.334 116.667 213.334H134.167M163.334 26.667C207.329 26.667 229.332 26.667 242.994 40.3403C255.407 52.742 256.551 72.0037 256.667 108.334" stroke="#8135F9" stroke-width="18" stroke-linecap="round"/>
<path d="M180.833 143.334V213.334M180.833 213.334L204.167 190.001M180.833 213.334L157.5 190.001M233.333 213.334V143.334M233.333 143.334L256.667 166.667M233.333 143.334L210 166.667" stroke="#8135F9" stroke-width="18" stroke-linecap="round" stroke-linejoin="round"/>
<path d="M116.667 166.667H70.0006M23.334 96.667H81.6673M256.667 96.667H128.334" stroke="#8135F9" stroke-width="18" stroke-linecap="round"/>
</svg>
