<svg width="245" height="239" viewBox="0 0 245 239" fill="none" xmlns="http://www.w3.org/2000/svg">
<path fill-rule="evenodd" clip-rule="evenodd" d="M114.721 22.5729C108.453 23.3998 100.715 25.176 89.7102 27.7179L77.1641 30.6171C67.8746 32.7608 61.4637 34.2512 56.5739 35.9254C51.8475 37.5485 49.1729 39.141 47.1618 41.1623C45.1406 43.1733 43.5481 45.8479 41.925 50.5744C40.2508 55.4642 38.7604 61.8648 36.6166 71.1646L33.7175 83.7004C31.1756 94.7152 29.3993 102.453 28.5725 108.721C27.7558 114.826 27.9498 118.96 29.0318 122.717C30.1037 126.473 32.1352 130.077 36.0552 134.824C40.0875 139.703 45.6918 145.328 53.685 153.321L72.3662 172.002C86.2393 185.876 96.1108 195.727 104.604 202.199C112.914 208.548 118.998 210.927 125.174 210.927C131.36 210.927 137.434 208.548 145.754 202.199C154.237 195.727 164.119 185.865 177.992 171.992C191.875 158.109 201.726 148.238 208.209 139.754C214.538 131.435 216.926 125.361 216.926 119.174C216.926 112.998 214.548 106.924 208.198 98.6046C201.726 90.1112 191.865 80.2296 177.992 66.3565L159.311 47.6752C151.328 39.6923 145.703 34.0879 140.834 30.0556C136.076 26.1356 132.473 24.1042 128.716 23.0323C124.96 21.9502 120.825 21.7665 114.731 22.5729M112.73 7.39312C120.049 6.42333 126.47 6.45396 132.942 8.31187C139.425 10.1698 144.886 13.5487 150.582 18.2446C156.095 22.7975 162.22 28.9225 169.886 36.589L189.241 55.944C202.614 69.3169 213.211 79.9131 220.377 89.3252C227.768 98.9925 232.249 108.302 232.249 119.174C232.249 130.056 227.768 139.366 220.387 149.034C213.211 158.446 202.625 169.042 189.241 182.415L188.425 183.232C175.052 196.605 164.456 207.201 155.044 214.367C145.376 221.758 136.056 226.239 125.184 226.239C114.312 226.239 105.002 221.758 95.3248 214.377C85.9229 207.201 75.3266 196.615 61.9435 183.232L42.5987 163.866C34.9425 156.21 28.8073 150.075 24.2543 144.573C19.5585 138.866 16.1796 133.405 14.3216 126.933C12.4637 120.45 12.4331 114.029 13.4029 106.71C14.3318 99.6254 16.2918 91.1729 18.7214 80.6175L21.7839 67.316C23.8256 58.5063 25.4793 51.3196 27.4496 45.5927C29.5116 39.6004 32.0943 34.5677 36.341 30.321C40.5877 26.0744 45.6306 23.4815 51.6127 21.4398C57.3396 19.4594 64.5262 17.8056 73.336 15.7742L86.6375 12.7117C97.1929 10.2617 105.645 8.32208 112.73 7.38292M96.8764 75.6154C94.4831 73.2221 91.237 71.8775 87.8523 71.8775C84.4675 71.8775 81.2215 73.2221 78.8281 75.6154C76.4347 78.0088 75.0902 81.2549 75.0902 84.6396C75.0902 88.0243 76.4347 91.2704 78.8281 93.6637C80.0132 94.8488 81.42 95.7889 82.9684 96.4302C84.5168 97.0716 86.1763 97.4017 87.8523 97.4017C89.5282 97.4017 91.1877 97.0716 92.7361 96.4302C94.2845 95.7889 95.6914 94.8488 96.8764 93.6637C98.0615 92.4787 99.0015 91.0718 99.6429 89.5234C100.284 87.9751 100.614 86.3155 100.614 84.6396C100.614 82.9636 100.284 81.3041 99.6429 79.7557C99.0015 78.2074 98.0615 76.8005 96.8764 75.6154ZM67.9971 64.7946C73.2616 59.5287 80.4025 56.5697 87.8486 56.5688C95.2948 56.5678 102.436 59.5249 107.702 64.7895C112.968 70.0541 115.927 77.1949 115.928 84.6411C115.929 92.0873 112.972 99.2289 107.707 104.495C102.442 109.761 95.2994 112.719 87.8523 112.719C80.4051 112.719 73.263 109.761 67.9971 104.495C62.7311 99.2289 59.7728 92.0867 59.7728 84.6396C59.7728 77.1924 62.7311 70.0605 67.9971 64.7946ZM132.616 117.582C130.256 117.672 128.026 118.688 126.409 120.41C122.448 124.37 123.49 128.321 124.602 129.434C125.725 130.546 129.676 131.577 133.626 127.627C141.63 119.624 155.452 116.969 164.302 125.82C171.173 132.69 171.122 142.551 167.008 150.361C168.02 151.832 168.486 153.611 168.325 155.39C168.164 157.168 167.386 158.835 166.126 160.1C164.867 161.366 163.204 162.152 161.426 162.321C159.648 162.491 157.867 162.034 156.391 161.029C151.81 163.54 146.496 164.378 141.364 163.397C140.379 163.194 139.443 162.8 138.61 162.236C137.778 161.672 137.064 160.949 136.51 160.109C135.957 159.269 135.574 158.329 135.384 157.341C135.194 156.353 135.2 155.338 135.403 154.352C135.605 153.367 136 152.431 136.564 151.598C137.128 150.765 137.85 150.052 138.69 149.498C139.53 148.945 140.471 148.562 141.459 148.372C142.446 148.182 143.462 148.188 144.447 148.391C146.254 148.768 149.174 148.186 151.675 145.675C155.625 141.714 154.594 137.764 153.482 136.651C152.359 135.538 148.408 134.507 144.457 138.458C136.454 146.461 122.632 149.115 113.781 140.265C106.911 133.395 106.962 123.533 111.076 115.724C110.064 114.253 109.598 112.474 109.759 110.695C109.92 108.917 110.698 107.25 111.958 105.984C113.217 104.719 114.88 103.933 116.658 103.763C118.436 103.594 120.217 104.051 121.693 105.056C125.164 103.209 128.971 102.229 132.769 102.269C134.799 102.288 136.739 103.113 138.162 104.562C139.584 106.012 140.373 107.967 140.354 109.997C140.335 112.028 139.51 113.968 138.061 115.39C136.612 116.812 134.646 117.601 132.616 117.582Z" fill="#8135F9"/>
</svg>
