<svg width="216" height="216" viewBox="0 0 216 216" fill="none" xmlns="http://www.w3.org/2000/svg">
<path d="M108 0C79.3566 0 51.8864 11.3785 31.6325 31.6325C11.3785 51.8864 0 79.3566 0 108C0 136.643 11.3785 164.114 31.6325 184.368C51.8864 204.621 79.3566 216 108 216C136.643 216 164.114 204.621 184.368 184.368C204.621 164.114 216 136.643 216 108C216 79.3566 204.621 51.8864 184.368 31.6325C164.114 11.3785 136.643 0 108 0ZM85.536 16.1865C100.303 12.5703 115.724 12.5703 130.491 16.1865L108 29.295L85.536 16.1865ZM68.742 22.0185L101.277 40.986V63.936L63.8955 90.288L42.8355 82.6335L34.3845 48.7215C43.6023 37.2641 55.3668 28.1295 68.742 22.0185ZM24.3135 64.071L29.619 85.401L13.905 99.36C15.0525 86.7105 18.6705 74.79 24.3135 64.071ZM13.9725 117.342L38.637 95.472L59.508 103.046L73.6155 147.461L63.936 161.946H30.402C21.1883 148.733 15.526 133.374 13.959 117.342M41.8095 175.446H62.7885L69.6735 194.4C59.3249 189.802 49.8869 183.382 41.8095 175.446ZM86.0355 199.935L75.033 169.614L84.618 155.264H131.423L141.021 169.614L130.018 199.921C115.562 203.381 100.492 203.394 86.0355 199.935ZM146.394 194.359L153.279 175.432H174.19C166.131 183.353 156.717 189.763 146.394 194.359ZM185.598 161.932H152.145L142.425 147.42L156.262 103.046L177.417 95.4315L202.041 117.328C200.474 133.36 194.812 148.72 185.598 161.932ZM202.109 99.3195L186.449 85.401L191.754 64.179C197.343 74.844 200.961 86.724 202.109 99.3195ZM181.669 48.8025L173.232 82.593L151.848 90.288L114.764 63.936V40.986L147.285 22.005C160.683 28.1339 172.463 37.3106 181.683 48.8025M72.873 100.507L108 75.6945L142.911 100.494L130.059 141.75H85.9545L72.873 100.507Z" fill="#8135F9"/>
</svg>
