<svg width="250" height="239" viewBox="0 0 250 239" fill="none" xmlns="http://www.w3.org/2000/svg">
<path d="M42 152.972C42 74.5716 124.821 12 124.821 12C124.821 12 207.643 74.5716 207.643 152.972C207.643 203.63 165.692 227.997 124.821 227.997C83.9506 227.997 42 203.63 42 152.972Z" stroke="#8135F9" stroke-width="21" stroke-linecap="round" stroke-linejoin="round"/>
<path d="M114.342 103.36C112.632 103.36 110.993 104.04 109.784 105.248C108.575 106.457 107.896 108.097 107.896 109.807V127.964H89.7215C88.0119 127.964 86.3723 128.643 85.1634 129.852C83.9545 131.061 83.2754 132.7 83.2754 134.41V155.368C83.2754 158.946 86.161 161.831 89.7215 161.831H107.879V179.972C107.879 183.532 110.747 186.418 114.325 186.418H135.283C136.131 186.42 136.971 186.255 137.755 185.932C138.539 185.609 139.252 185.135 139.852 184.536C140.453 183.937 140.929 183.226 141.254 182.442C141.579 181.659 141.746 180.82 141.746 179.972V161.831H159.887C160.735 161.831 161.574 161.664 162.358 161.339C163.141 161.014 163.852 160.538 164.451 159.937C165.05 159.337 165.524 158.624 165.847 157.84C166.17 157.056 166.335 156.216 166.333 155.368V134.41C166.333 132.7 165.654 131.061 164.445 129.852C163.236 128.643 161.596 127.964 159.887 127.964H141.763V109.807C141.763 108.959 141.596 108.119 141.271 107.336C140.946 106.553 140.47 105.841 139.869 105.242C139.269 104.644 138.556 104.169 137.772 103.846C136.988 103.523 136.148 103.358 135.3 103.36H114.342Z" stroke="#8135F9" stroke-width="21" stroke-linecap="round" stroke-linejoin="round"/>
</svg>
