<svg width="247" height="239" viewBox="0 0 247 239" fill="none" xmlns="http://www.w3.org/2000/svg">
<path d="M176.429 36.107V124.321M176.429 36.107L149.965 0.821289M176.429 36.107L202.894 0.821289M8.82227 186.071L51.9414 221.992C58.2824 227.272 66.2731 230.162 74.5243 230.161H188.18C196.295 230.161 202.894 223.58 202.894 215.464C202.894 199.233 189.732 186.054 173.483 186.054H94.4607M238.179 36.107H114.679V124.321H238.179V36.107Z" stroke="#8135F9" stroke-width="15" stroke-linecap="round" stroke-linejoin="round"/>
<path d="M61.7508 168.428L74.983 181.661C78.4924 185.17 83.2521 187.142 88.2151 187.142C93.1781 187.142 97.9379 185.17 101.447 181.661C104.957 178.151 106.928 173.391 106.928 168.428C106.928 163.465 104.957 158.706 101.447 155.196L80.911 134.642C77.6295 131.365 73.734 128.766 69.4473 126.995C65.1606 125.224 60.5668 124.315 55.9287 124.321H8.82227" stroke="#8135F9" stroke-width="15" stroke-linecap="round" stroke-linejoin="round"/>
</svg>
