<svg width="251" height="239" viewBox="0 0 251 239" fill="none" xmlns="http://www.w3.org/2000/svg">
<path d="M216.271 236.353L241.441 211.117M82.9392 -2.06836L99.3521 14.3511L21.2912 92.4055L4.86523 76.0056L82.9392 -2.06836ZM222.557 100.374L238.97 116.787L142.279 213.478L125.866 197.065L222.557 100.374ZM119.919 81.9656L136.332 98.3786L81.785 152.925L65.372 136.512L119.919 81.9656ZM171.864 90.4623L188.277 106.882L112.016 183.143L95.6026 166.73L171.864 90.4623ZM95.9352 45.5468L112.355 61.9597L51.5805 122.734L35.1675 106.314L95.9352 45.5468ZM234.138 149.235L246.136 241.048L156.083 227.289L234.138 149.235Z" stroke="#8135F9" stroke-width="9" stroke-linecap="round" stroke-linejoin="round"/>
</svg>
