<svg width="196" height="230" viewBox="0 0 196 230" fill="none" xmlns="http://www.w3.org/2000/svg">
<path d="M104 230L101.125 195.5H98.25C71.0333 195.5 47.9375 186.012 28.9625 167.037C9.9875 148.062 0.5 124.967 0.5 97.75C0.5 70.5333 9.9875 47.4375 28.9625 28.4625C47.9375 9.4875 71.0333 0 98.25 0C111.858 0 124.558 2.53767 136.35 7.613C148.141 12.6883 158.491 19.6842 167.4 28.6005C176.308 37.5168 183.3 47.8668 188.376 59.6505C193.451 71.4342 195.992 84.134 196 97.75C196 112.125 193.654 125.925 188.962 139.15C184.27 152.375 177.845 164.642 169.688 175.95C161.531 187.258 151.851 197.513 140.65 206.713C129.449 215.913 117.233 223.675 104 230ZM127 188.025C140.608 176.525 151.679 163.062 160.212 147.637C168.745 132.212 173.008 115.583 173 97.75C173 76.8583 165.763 59.179 151.288 44.712C136.813 30.245 119.134 23.0077 98.25 23C77.366 22.9923 59.6867 30.2297 45.212 44.712C30.7373 59.1943 23.5 76.8737 23.5 97.75C23.5 118.626 30.7373 136.309 45.212 150.799C59.6867 165.289 77.366 172.523 98.25 172.5H127V188.025ZM97.9625 160.713C101.221 160.713 104 159.562 106.3 157.262C108.6 154.962 109.75 152.183 109.75 148.925C109.75 145.667 108.6 142.888 106.3 140.588C104 138.288 101.221 137.137 97.9625 137.137C94.7042 137.137 91.925 138.288 89.625 140.588C87.325 142.888 86.175 145.667 86.175 148.925C86.175 152.183 87.325 154.962 89.625 157.262C91.925 159.562 94.7042 160.713 97.9625 160.713ZM89.625 124.2H106.875C106.875 118.45 107.45 114.425 108.6 112.125C109.75 109.825 113.392 105.608 119.525 99.475C122.975 96.025 125.85 92.2875 128.15 88.2625C130.45 84.2375 131.6 79.925 131.6 75.325C131.6 65.55 128.296 58.2207 121.687 53.337C115.078 48.4533 107.266 46.0077 98.25 46C89.8167 46 82.725 48.3498 76.975 53.0495C71.225 57.7492 67.2 63.4493 64.9 70.15L81 76.475C81.9583 73.2167 83.7792 70.0082 86.4625 66.8495C89.1458 63.6908 93.075 62.1077 98.25 62.1C103.425 62.0923 107.308 63.5298 109.899 66.4125C112.491 69.2952 113.783 72.4577 113.775 75.9C113.775 79.1583 112.817 82.0832 110.9 84.6745C108.983 87.2658 106.683 89.8993 104 92.575C97.2917 98.325 93.2207 102.879 91.787 106.237C90.3533 109.595 89.6327 115.583 89.625 124.2Z" fill="#8135F9"/>
</svg>
