<svg width="245" height="239" viewBox="0 0 245 239" fill="none" xmlns="http://www.w3.org/2000/svg">
<path d="M81.6667 85.8757H163.333M81.6667 126.709H142.917M183.75 34.834C191.872 34.834 199.662 38.0605 205.405 43.8038C211.148 49.5471 214.375 57.3367 214.375 65.459V147.126C214.375 155.248 211.148 163.038 205.405 168.781C199.662 174.524 191.872 177.751 183.75 177.751H132.708L81.6667 208.376V177.751H61.25C53.1277 177.751 45.3382 174.524 39.5949 168.781C33.8516 163.038 30.625 155.248 30.625 147.126V65.459C30.625 57.3367 33.8516 49.5471 39.5949 43.8038C45.3382 38.0605 53.1277 34.834 61.25 34.834H183.75Z" stroke="#8135F9" stroke-width="21" stroke-linecap="round" stroke-linejoin="round"/>
</svg>
