<svg width="218" height="194" viewBox="0 0 218 194" fill="none" xmlns="http://www.w3.org/2000/svg">
<path d="M205.667 121.167C208.747 121.17 211.709 122.349 213.948 124.464C216.188 126.578 217.536 129.467 217.716 132.542C217.897 135.616 216.896 138.644 214.92 141.005C212.943 143.367 210.139 144.885 207.081 145.249L205.667 145.333H41.5028L69.2099 173.04C71.377 175.215 72.6352 178.133 72.7289 181.201C72.8226 184.27 71.7448 187.259 69.7144 189.562C67.684 191.864 64.8532 193.308 61.7971 193.599C58.7409 193.89 55.6885 193.007 53.2599 191.129L52.124 190.126L5.84487 143.847C-2.19055 135.824 2.95695 122.302 13.8561 121.239L15.2457 121.167H205.667ZM148.791 3.8737C150.871 1.79324 153.64 0.543439 156.576 0.358792C159.513 0.174144 162.416 1.06733 164.741 2.87078L165.877 3.8737L212.156 50.1529C220.191 58.1762 215.044 71.6975 204.144 72.7608L202.755 72.8333H12.3336C9.25382 72.8299 6.29156 71.6506 4.05209 69.5364C1.81261 67.4222 0.464946 64.5326 0.284456 61.4581C0.103965 58.3836 1.10427 55.3562 3.08099 52.9945C5.0577 50.6328 7.86163 49.115 10.9199 48.7512L12.3336 48.6666H176.498L148.791 20.9595C146.525 18.6936 145.253 15.6207 145.253 12.4166C145.253 9.21255 146.525 6.13966 148.791 3.8737Z" fill="#8135F9"/>
</svg>
