<svg width="270" height="239" viewBox="0 0 270 239" fill="none" xmlns="http://www.w3.org/2000/svg">
<path d="M202.5 62.7501H213.75V74.0001C213.75 76.9838 214.935 79.8452 217.045 81.955C219.155 84.0648 222.016 85.2501 225 85.2501C227.984 85.2501 230.845 84.0648 232.955 81.955C235.065 79.8452 236.25 76.9838 236.25 74.0001V62.7501H247.5C250.484 62.7501 253.345 61.5648 255.455 59.455C257.565 57.3452 258.75 54.4838 258.75 51.5001C258.75 48.5164 257.565 45.6549 255.455 43.5451C253.345 41.4353 250.484 40.2501 247.5 40.2501H236.25V29.0001C236.25 26.0164 235.065 23.1549 232.955 21.0451C230.845 18.9353 227.984 17.7501 225 17.7501C222.016 17.7501 219.155 18.9353 217.045 21.0451C214.935 23.1549 213.75 26.0164 213.75 29.0001V40.2501H202.5C199.516 40.2501 196.655 41.4353 194.545 43.5451C192.435 45.6549 191.25 48.5164 191.25 51.5001C191.25 54.4838 192.435 57.3452 194.545 59.455C196.655 61.5648 199.516 62.7501 202.5 62.7501ZM225 164C218.017 164.036 211.217 166.237 205.538 170.3L177.975 153.988C179.275 149.951 179.958 145.741 180 141.5C179.968 131.549 176.638 121.889 170.531 114.032C164.424 106.174 155.885 100.563 146.25 98.0751V71.9751C153.756 69.3213 160.082 64.0993 164.111 57.2322C168.139 50.3651 169.61 42.2949 168.264 34.4481C166.918 26.6013 162.841 19.483 156.754 14.3514C150.667 9.2198 142.961 6.40527 135 6.40527C127.039 6.40527 119.333 9.2198 113.246 14.3514C107.159 19.483 103.082 26.6013 101.736 34.4481C100.39 42.2949 101.861 50.3651 105.889 57.2322C109.918 64.0993 116.244 69.3213 123.75 71.9751V98.0751C114.115 100.563 105.576 106.174 99.469 114.032C93.3623 121.889 90.0323 131.549 90 141.5C90.0418 145.741 90.7245 149.951 92.025 153.988L64.4625 170.3C58.783 166.237 51.983 164.036 45 164C38.3249 164 31.7997 165.979 26.2495 169.688C20.6994 173.396 16.3735 178.667 13.8191 184.835C11.2646 191.002 10.5963 197.788 11.8985 204.334C13.2008 210.881 16.4151 216.895 21.1352 221.615C25.8552 226.335 31.8689 229.549 38.4157 230.852C44.9626 232.154 51.7486 231.485 57.9156 228.931C64.0826 226.377 69.3536 222.051 73.0621 216.501C76.7706 210.95 78.75 204.425 78.75 197.75C78.7084 194.703 78.2543 191.675 77.4 188.75L103.275 173.338C111.706 181.719 123.112 186.423 135 186.423C146.888 186.423 158.294 181.719 166.725 173.338L192.6 188.75C190.715 195.563 191.017 202.796 193.463 209.428C195.909 216.061 200.376 221.758 206.233 225.715C212.091 229.673 219.043 231.691 226.109 231.486C233.175 231.28 239.998 228.861 245.616 224.57C251.233 220.279 255.361 214.332 257.418 207.569C259.475 200.806 259.356 193.567 257.078 186.875C254.8 180.183 250.479 174.375 244.723 170.271C238.968 166.167 232.069 163.973 225 164ZM45 209C42.775 209 40.5999 208.34 38.7499 207.104C36.8998 205.868 35.4579 204.111 34.6064 202.055C33.7549 200 33.5321 197.738 33.9662 195.555C34.4003 193.373 35.4717 191.368 37.0451 189.795C38.6184 188.222 40.623 187.15 42.8053 186.716C44.9875 186.282 47.2495 186.505 49.3052 187.356C51.3609 188.208 53.1179 189.65 54.354 191.5C55.5902 193.35 56.25 195.525 56.25 197.75C56.25 200.734 55.0648 203.595 52.955 205.705C50.8452 207.815 47.9837 209 45 209ZM135 29.0001C137.225 29.0001 139.4 29.6599 141.25 30.896C143.1 32.1322 144.542 33.8892 145.394 35.9449C146.245 38.0006 146.468 40.2626 146.034 42.4448C145.6 44.6271 144.528 46.6317 142.955 48.205C141.382 49.7784 139.377 50.8498 137.195 51.2839C135.012 51.718 132.75 51.4952 130.695 50.6437C128.639 49.7922 126.882 48.3503 125.646 46.5002C124.41 44.6502 123.75 42.4751 123.75 40.2501C123.75 37.2664 124.935 34.4049 127.045 32.2951C129.155 30.1853 132.016 29.0001 135 29.0001ZM135 164C130.55 164 126.2 162.68 122.5 160.208C118.8 157.736 115.916 154.222 114.213 150.11C112.51 145.999 112.064 141.475 112.932 137.111C113.801 132.746 115.943 128.737 119.09 125.59C122.237 122.443 126.246 120.301 130.61 119.432C134.975 118.564 139.499 119.01 143.61 120.713C147.722 122.416 151.236 125.3 153.708 129C156.18 132.7 157.5 137.05 157.5 141.5C157.5 147.467 155.129 153.19 150.91 157.41C146.69 161.63 140.967 164 135 164ZM225 209C222.775 209 220.6 208.34 218.75 207.104C216.9 205.868 215.458 204.111 214.606 202.055C213.755 200 213.532 197.738 213.966 195.555C214.4 193.373 215.472 191.368 217.045 189.795C218.618 188.222 220.623 187.15 222.805 186.716C224.988 186.282 227.25 186.505 229.305 187.356C231.361 188.208 233.118 189.65 234.354 191.5C235.59 193.35 236.25 195.525 236.25 197.75C236.25 200.734 235.065 203.595 232.955 205.705C230.845 207.815 227.984 209 225 209Z" fill="#8135F9"/>
</svg>
