<svg width="90" height="75" viewBox="0 0 90 75" fill="none" xmlns="http://www.w3.org/2000/svg">
<path d="M90 5.35714V75H0V5.35714H12V0H30C32.75 0 35.3906 0.376674 37.9219 1.13002C40.4531 1.88337 42.8125 3.01339 45 4.52009C47.1562 3.01339 49.5 1.88337 52.0312 1.13002C54.5625 0.376674 57.2188 0 60 0H78V5.35714H90ZM60 5.35714C57.8125 5.35714 55.6875 5.67801 53.625 6.31975C51.5625 6.9615 49.6875 7.92411 48 9.20759V61.6908C49.8438 60.7701 51.7812 60.0865 53.8125 59.6401C55.8438 59.1936 57.9062 58.9565 60 58.9286H72V5.35714H60ZM18 58.9286H30C32.0938 58.9286 34.1562 59.1518 36.1875 59.5982C38.2188 60.0446 40.1562 60.7422 42 61.6908V9.20759C40.3125 7.95201 38.4375 7.00335 36.375 6.36161C34.3125 5.71987 32.1875 5.38504 30 5.35714H18V58.9286ZM6 69.6429H43.7812C42.7812 68.7779 41.7656 68.0246 40.7344 67.3828C39.7031 66.7411 38.6406 66.183 37.5469 65.7087C36.4531 65.2344 35.2812 64.8856 34.0312 64.6624C32.7812 64.4392 31.4375 64.3136 30 64.2857H12V10.7143H6V69.6429ZM84 10.7143H78V64.2857H60C58.5625 64.2857 57.2344 64.3973 56.0156 64.6205C54.7969 64.8438 53.625 65.1925 52.5 65.6669C51.375 66.1412 50.2969 66.6992 49.2656 67.341C48.2344 67.9827 47.2188 68.75 46.2188 69.6429H84V10.7143Z" fill="#8135F9"/>
</svg>
