<svg width="210" height="210" viewBox="0 0 210 210" fill="none" xmlns="http://www.w3.org/2000/svg">
<path d="M165.417 56.6663H20.4173M165.417 56.6663C168.622 56.6663 171.695 57.9394 173.962 60.2055C176.228 62.4715 177.501 65.545 177.501 68.7497V100.166M165.417 56.6663L117.084 8.33301M20.4173 56.6663C17.2126 56.6663 14.1392 57.9394 11.8731 60.2055C9.60705 62.4715 8.33398 65.545 8.33398 68.7497V189.583C8.33398 192.788 9.60705 195.861 11.8731 198.127C14.1392 200.393 17.2126 201.666 20.4173 201.666H165.417C168.622 201.666 171.695 200.393 173.962 198.127C176.228 195.861 177.501 192.788 177.501 189.583V158.166M20.4173 56.6663L68.7506 8.33301L117.084 56.6663M189.584 105H141.251C134.841 105 128.694 107.546 124.162 112.078C119.63 116.61 117.084 122.757 117.084 129.166C117.084 135.576 119.63 141.723 124.162 146.255C128.694 150.787 134.841 153.333 141.251 153.333H189.584C192.789 153.333 195.862 152.06 198.128 149.794C200.394 147.528 201.667 144.454 201.667 141.25V117.083C201.667 113.878 200.394 110.805 198.128 108.539C195.862 106.273 192.789 105 189.584 105Z" stroke="#8135F9" stroke-width="15" stroke-linecap="round" stroke-linejoin="round"/>
</svg>
