<svg width="58" height="58" viewBox="0 0 58 58" fill="none" xmlns="http://www.w3.org/2000/svg">
<rect width="58" height="58" rx="5" fill="#FEEBEB"/>
<path d="M19.5 38.5007V31.2307L23.5 29.4567V26.1547L28.5 23.6347V21.3477H26.5V20.3477H28.5V18.3477H29.5V20.3477H31.5V21.3477H29.5V23.6367L34.5 26.1557V29.4577L38.5 31.2327V38.5007H30.5V34.9237C30.5 34.5123 30.353 34.1593 30.059 33.8647C29.7643 33.5707 29.4113 33.4237 29 33.4237C28.5887 33.4237 28.2357 33.571 27.941 33.8657C27.647 34.159 27.5 34.5117 27.5 34.9237V38.5007H19.5ZM20.5 37.5007H26.5V34.9127C26.5 34.2127 26.743 33.619 27.229 33.1317C27.7143 32.6443 28.304 32.4007 28.998 32.4007C29.692 32.4007 30.2823 32.644 30.769 33.1307C31.2563 33.6187 31.5 34.2127 31.5 34.9127V37.5007H37.5V31.8737L33.5 30.0807V26.7427L29 24.4427L24.5 26.7427V30.0807L20.5 31.8737V37.5007ZM29.005 30.1167C29.3157 30.1167 29.5783 30.0077 29.793 29.7897C30.0083 29.5717 30.116 29.3073 30.116 28.9967C30.116 28.6853 30.007 28.422 29.789 28.2067C29.571 27.9927 29.3067 27.8857 28.996 27.8857C28.6847 27.8857 28.4213 27.9943 28.206 28.2117C27.992 28.4297 27.885 28.694 27.885 29.0047C27.885 29.316 27.9937 29.5793 28.211 29.7947C28.429 30.0093 28.6933 30.1167 29.004 30.1167" fill="#F93636"/>
<path d="M29.005 30.1167C29.3157 30.1167 29.5783 30.0077 29.793 29.7897C30.0083 29.5717 30.116 29.3073 30.116 28.9967C30.116 28.6853 30.007 28.422 29.789 28.2067C29.571 27.9927 29.3067 27.8857 28.996 27.8857C28.6847 27.8857 28.4213 27.9943 28.206 28.2117C27.992 28.4297 27.885 28.694 27.885 29.0047C27.885 29.316 27.9937 29.5793 28.211 29.7947C28.429 30.0093 28.6933 30.1167 29.004 30.1167M19.5 38.5007V31.2307L23.5 29.4567V26.1547L28.5 23.6347V21.3477H26.5V20.3477H28.5V18.3477H29.5V20.3477H31.5V21.3477H29.5V23.6367L34.5 26.1557V29.4577L38.5 31.2327V38.5007H30.5V34.9237C30.5 34.5123 30.353 34.1593 30.059 33.8647C29.7643 33.5707 29.4113 33.4237 29 33.4237C28.5887 33.4237 28.2357 33.571 27.941 33.8657C27.647 34.159 27.5 34.5117 27.5 34.9237V38.5007H19.5ZM20.5 37.5007H26.5V34.9127C26.5 34.2127 26.743 33.619 27.229 33.1317C27.7143 32.6443 28.304 32.4007 28.998 32.4007C29.692 32.4007 30.2823 32.644 30.769 33.1307C31.2563 33.6187 31.5 34.2127 31.5 34.9127V37.5007H37.5V31.8737L33.5 30.0807V26.7427L29 24.4427L24.5 26.7427V30.0807L20.5 31.8737V37.5007Z" stroke="#F93636" stroke-width="0.5"/>
</svg>
