<svg width="58" height="58" viewBox="0 0 58 58" fill="none" xmlns="http://www.w3.org/2000/svg">
<rect width="58" height="58" rx="5" fill="#F2EBFE"/>
<path d="M39 22V24H36V27H34V24H31V22H34V19H36V22H39ZM36 36H22V22H28V20H22C21.4701 20.0016 20.9623 20.2128 20.5875 20.5875C20.2128 20.9623 20.0016 21.4701 20 22V36C20.0016 36.5299 20.2128 37.0377 20.5875 37.4125C20.9623 37.7872 21.4701 37.9984 22 38H36C36.5299 37.9984 37.0377 37.7872 37.4125 37.4125C37.7872 37.0377 37.9984 36.5299 38 36V30H36V36Z" fill="#8135F9"/>
</svg>
