<svg width="58" height="58" viewBox="0 0 58 58" fill="none" xmlns="http://www.w3.org/2000/svg">
<rect width="58" height="58" rx="5" fill="#F2EBFE"/>
<path d="M27.4799 18.8438L30.6205 20.6318L30.6575 23.7958C30.6234 24.1803 30.4933 24.5501 30.2793 24.8713C30.0653 25.1925 29.7741 25.4548 29.4325 25.6344L24.483 28.5516C24.1492 28.7364 23.8718 29.0082 23.6803 29.3382C23.4887 29.6682 23.3903 30.044 23.3955 30.4255L23.359 32.8187L20.1153 31.0229L20.0981 28.8458C20.0616 28.4228 20.1469 27.9981 20.344 27.622C20.5412 27.2459 20.8419 26.9341 21.2106 26.7234L26.7346 23.349C26.983 23.1496 27.1791 22.8927 27.3058 22.6005C27.4325 22.3082 27.486 21.9895 27.4616 21.6719L27.4799 18.8438ZM32.8491 26.6437C32.7163 26.5978 32.5748 26.5821 32.4352 26.5979C32.2955 26.6137 32.1611 26.6605 32.0418 26.7349L26.8038 29.7969C26.4349 30.0075 26.1341 30.3193 25.9368 30.6956C25.7396 31.0718 25.6542 31.4966 25.6908 31.9198L25.708 34.0958L28.9528 35.8911L28.9892 33.4979C28.9842 33.1166 29.0826 32.7411 29.274 32.4113C29.4654 32.0815 29.7427 31.8098 30.0762 31.625L35.2236 28.6776C35.6273 28.4234 35.6819 28.2021 35.3955 28.0443L32.8491 26.6437ZM34.9168 32.2109C34.8093 32.1508 34.6876 32.1207 34.5645 32.1237C34.4413 32.1268 34.3213 32.1628 34.2168 32.2281L32.7517 33.0615C32.3828 33.2721 32.0818 33.584 31.8846 33.9604C31.6874 34.3367 31.602 34.7616 31.6387 35.1849L31.6559 37.3609L34.9007 39.1562L34.9372 36.763C34.9321 36.3817 35.0306 36.0062 35.222 35.6764C35.4134 35.3466 35.6906 35.0749 36.0241 34.8901L37.9028 33.8536L34.9168 32.2109Z" stroke="#8135F9" stroke-linecap="round" stroke-linejoin="round"/>
</svg>
