<svg width="58" height="58" viewBox="0 0 58 58" fill="none" xmlns="http://www.w3.org/2000/svg">
<rect width="58" height="58" rx="5" fill="#E8FCEF"/>
<path d="M18.208 34.2238C20.6347 36.8261 24.0174 36.4382 26.02 36.3769M18.208 30.9688C20.4159 33.4888 23.3443 33.6883 26.1203 33.3722M25.8363 25.1822C16.9976 23.3283 15.9068 31.327 25.8363 30.4053M27.4795 36.1768C29.7854 38.5685 37.5694 39.1052 39.7913 35.926M27.4795 32.5211C29.2068 35.7003 37.2311 35.6571 39.7913 32.7719M27.4795 29.3915C31.0845 33.1709 37.6878 31.8777 39.7913 29.3915" stroke="#17E55D" stroke-linecap="round" stroke-linejoin="round"/>
<path d="M27.4795 26.2598C29.7522 29.3899 37.2328 29.4809 39.7913 26.3099" stroke="#17E55D" stroke-linecap="round" stroke-linejoin="round"/>
<path d="M33.6464 25.6332C36.8268 25.6332 39.405 24.3407 39.405 22.7463C39.405 21.1519 36.8268 19.8594 33.6464 19.8594C30.4659 19.8594 27.8877 21.1519 27.8877 22.7463C27.8877 24.3407 30.4659 25.6332 33.6464 25.6332Z" stroke="#17E55D" stroke-linecap="round" stroke-linejoin="round"/>
<path d="M25.8369 25.1816V30.4048" stroke="#17E55D" stroke-linecap="round" stroke-linejoin="round"/>
</svg>
