<svg width="58" height="58" viewBox="0 0 58 58" fill="none" xmlns="http://www.w3.org/2000/svg">
<rect width="58" height="58" rx="5" fill="#E8FCEF"/>
<path d="M33 19C30.24 19 28 21.24 28 24C28 26.76 30.24 29 33 29C35.76 29 38 26.76 38 24C38 21.24 35.76 19 33 19ZM33 27C31.34 27 30 25.66 30 24C30 22.34 31.34 21 33 21C34.66 21 36 22.34 36 24C36 25.66 34.66 27 33 27ZM36 33H34C34 31.8 33.25 30.72 32.13 30.3L25.97 28H18V39H24V37.56L31 39.5L39 37V36C39 34.34 37.66 33 36 33ZM22 37H20V30H22V37ZM30.97 37.41L24 35.5V30H25.61L31.43 32.17C31.77 32.3 32 32.63 32 33C32 33 30 32.95 29.7 32.85L27.32 32.06L26.69 33.96L29.07 34.75C29.58 34.92 30.11 35 30.65 35H36C36.39 35 36.74 35.24 36.9 35.57L30.97 37.41Z" fill="#17E55D"/>
</svg>
