<svg width="58" height="58" viewBox="0 0 58 58" fill="none" xmlns="http://www.w3.org/2000/svg">
<rect width="58" height="58" rx="5" fill="#EBF7FE"/>
<path d="M24.6496 21.0246C24.6496 21.5408 24.5423 22.0309 24.348 22.4746H28.9996C29.1919 22.4746 29.3763 22.551 29.5123 22.687C29.6482 22.8229 29.7246 23.0073 29.7246 23.1996V26.0996H28.9996C28.2305 26.0996 27.4929 26.4051 26.949 26.949C26.4051 27.4929 26.0996 28.2305 26.0996 28.9996V29.7246H23.1996C23.0073 29.7246 22.8229 29.6482 22.687 29.5123C22.551 29.3763 22.4746 29.1919 22.4746 28.9996V24.348C21.7905 24.6465 21.0309 24.7265 20.2996 24.5771V28.9996C20.2996 29.7687 20.6051 30.5064 21.149 31.0502C21.6929 31.5941 22.4305 31.8996 23.1996 31.8996H26.0996V34.7996C26.0996 35.5687 26.4051 36.3064 26.949 36.8502C27.4929 37.3941 28.2305 37.6996 28.9996 37.6996H33.4221C33.2727 36.9683 33.3527 36.2087 33.6512 35.5246H28.9996C28.8073 35.5246 28.6229 35.4482 28.487 35.3123C28.351 35.1763 28.2746 34.9919 28.2746 34.7996V31.8996H28.9996C29.7687 31.8996 30.5064 31.5941 31.0502 31.0502C31.5941 30.5064 31.8996 29.7687 31.8996 28.9996V28.2746H34.7996C34.9919 28.2746 35.1763 28.351 35.3123 28.487C35.4482 28.6229 35.5246 28.8073 35.5246 28.9996V33.6512C36.2087 33.3527 36.9683 33.2727 37.6996 33.4221V28.9996C37.6996 28.2305 37.3941 27.4929 36.8502 26.949C36.3064 26.4051 35.5687 26.0996 34.7996 26.0996H31.8996V23.1996C31.8996 22.4305 31.5941 21.6929 31.0502 21.149C30.5064 20.6051 29.7687 20.2996 28.9996 20.2996H24.5771C24.6254 20.5345 24.6496 20.7762 24.6496 21.0246ZM29.7246 28.2746V28.9996C29.7246 29.1919 29.6482 29.3763 29.5123 29.5123C29.3763 29.6482 29.1919 29.7246 28.9996 29.7246H28.2746V28.9996C28.2746 28.8073 28.351 28.6229 28.487 28.487C28.6229 28.351 28.8073 28.2746 28.9996 28.2746H29.7246ZM23.1996 21.0246C23.1996 21.6015 22.9705 22.1547 22.5626 22.5626C22.1547 22.9705 21.6015 23.1996 21.0246 23.1996C20.4478 23.1996 19.8945 22.9705 19.4867 22.5626C19.0788 22.1547 18.8496 21.6015 18.8496 21.0246C18.8496 20.4478 19.0788 19.8945 19.4867 19.4867C19.8945 19.0788 20.4478 18.8496 21.0246 18.8496C21.6015 18.8496 22.1547 19.0788 22.5626 19.4867C22.9705 19.8945 23.1996 20.4478 23.1996 21.0246ZM39.1496 36.9746C39.1496 37.5515 38.9205 38.1047 38.5126 38.5126C38.1047 38.9205 37.5515 39.1496 36.9746 39.1496C36.3978 39.1496 35.8445 38.9205 35.4367 38.5126C35.0288 38.1047 34.7996 37.5515 34.7996 36.9746C34.7996 36.3978 35.0288 35.8445 35.4367 35.4367C35.8445 35.0288 36.3978 34.7996 36.9746 34.7996C37.5515 34.7996 38.1047 35.0288 38.5126 35.4367C38.9205 35.8445 39.1496 36.3978 39.1496 36.9746ZM39.1496 21.0246C39.1496 21.6015 38.9205 22.1547 38.5126 22.5626C38.1047 22.9705 37.5515 23.1996 36.9746 23.1996C36.3978 23.1996 35.8445 22.9705 35.4367 22.5626C35.0288 22.1547 34.7996 21.6015 34.7996 21.0246C34.7996 20.4478 35.0288 19.8945 35.4367 19.4867C35.8445 19.0788 36.3978 18.8496 36.9746 18.8496C37.5515 18.8496 38.1047 19.0788 38.5126 19.4867C38.9205 19.8945 39.1496 20.4478 39.1496 21.0246ZM23.1996 36.9746C23.1996 37.5515 22.9705 38.1047 22.5626 38.5126C22.1547 38.9205 21.6015 39.1496 21.0246 39.1496C20.4478 39.1496 19.8945 38.9205 19.4867 38.5126C19.0788 38.1047 18.8496 37.5515 18.8496 36.9746C18.8496 36.3978 19.0788 35.8445 19.4867 35.4367C19.8945 35.0288 20.4478 34.7996 21.0246 34.7996C21.6015 34.7996 22.1547 35.0288 22.5626 35.4367C22.9705 35.8445 23.1996 36.3978 23.1996 36.9746Z" fill="#36B3F9"/>
</svg>
