<svg width="58" height="58" viewBox="0 0 58 58" fill="none" xmlns="http://www.w3.org/2000/svg">
<rect width="58" height="58" rx="5" fill="#FEEBEB"/>
<path d="M35 29.9994L38 32.9994V36.9994C38 37.5298 37.7893 38.0385 37.4142 38.4136C37.0391 38.7887 36.5304 38.9994 36 38.9994H22C21.4696 38.9994 20.9609 38.7887 20.5858 38.4136C20.2107 38.0385 20 37.5298 20 36.9994V32.9994L23 29.9994H23.83L25.83 31.9994H23.78L22 33.9994H36L34.23 31.9994H32.32L34.32 29.9994H35ZM36 36.9994V35.9994H22V36.9994H36ZM28.34 31.9994L23.39 27.0694C23.2973 26.9769 23.2237 26.867 23.1736 26.746C23.1234 26.625 23.0976 26.4954 23.0976 26.3644C23.0976 26.2334 23.1234 26.1037 23.1736 25.9828C23.2237 25.8618 23.2973 25.7519 23.39 25.6594L29.76 19.2894C29.8516 19.1963 29.9609 19.1225 30.0815 19.0725C30.2021 19.0224 30.3315 18.9971 30.4621 18.9981C30.5927 18.999 30.7218 19.0262 30.8416 19.0779C30.9615 19.1297 31.0698 19.205 31.16 19.2994L36.11 24.2494C36.5 24.6394 36.5 25.2694 36.11 25.6594L29.75 31.9994C29.6601 32.0966 29.5511 32.1742 29.4298 32.2273C29.3084 32.2804 29.1774 32.3078 29.045 32.3078C28.9126 32.3078 28.7816 32.2804 28.6602 32.2273C28.5389 32.1742 28.4299 32.0966 28.34 31.9994ZM30.46 21.4094L25.5 26.3594L29.05 29.8994L34 24.9494L30.46 21.4094Z" fill="#F93636"/>
</svg>
